<?xml version="1.0" encoding="UTF-8" standalone="no"?>
<!DOCTYPE svg PUBLIC "-//W3C//DTD SVG 1.1//EN" "http://www.w3.org/Graphics/SVG/1.1/DTD/svg11.dtd">
<svg width="100%" height="100%" viewBox="0 0 550 160" version="1.1" xmlns="http://www.w3.org/2000/svg" xmlns:xlink="http://www.w3.org/1999/xlink" xml:space="preserve" xmlns:serif="http://www.serif.com/" style="fill-rule:evenodd;clip-rule:evenodd;stroke-miterlimit:10;">
    <g id="Laag-1" serif:id="Laag 1">
        <g>
            <path d="M92.566,142.252C92.566,142.252 130.662,132.766 144.204,94.026C155.986,60.324 149.89,33.076 149.89,33.076L92.967,17.747L91.247,17.747L34.323,33.076C34.323,33.076 28.227,60.324 40.009,94.026C53.551,132.766 91.647,142.252 91.647,142.252L92.566,142.252Z" style="fill:white;fill-rule:nonzero;stroke:rgb(60,59,58);stroke-width:2.59px;"/>
            <path d="M168.069,52.254C168.069,53.814 168.525,55.154 169.439,56.276C170.351,57.398 171.492,58.435 172.861,59.385C174.231,60.336 175.723,61.268 177.34,62.18C178.956,63.094 180.449,64.13 181.818,65.29C183.188,66.451 184.328,67.81 185.242,69.369C186.154,70.929 186.61,72.831 186.61,75.074C186.61,76.557 186.344,77.946 185.812,79.239C185.279,80.533 184.528,81.655 183.558,82.605C182.588,83.556 181.437,84.298 180.107,84.83C178.775,85.362 177.33,85.629 175.771,85.629C174.325,85.629 173.089,85.486 172.063,85.201C171.035,84.915 170.179,84.583 169.495,84.203C168.697,83.784 168.031,83.31 167.499,82.777C167.194,83.347 166.785,83.88 166.272,84.373C165.759,84.868 165.217,85.191 164.646,85.343L163.79,85.343C163.828,84.81 163.866,84.241 163.905,83.632C163.942,83.138 163.98,82.586 164.019,81.977C164.056,81.37 164.075,80.779 164.075,80.209C164.075,79.563 164.056,78.925 164.019,78.297C163.98,77.67 163.942,77.091 163.905,76.557C163.866,75.95 163.828,75.359 163.79,74.789L164.646,74.789C165.52,77.946 166.785,80.351 168.439,82.006C170.095,83.661 172.348,84.487 175.201,84.487C177.483,84.487 179.337,83.756 180.763,82.291C182.189,80.828 182.902,78.802 182.902,76.215C182.902,74.656 182.446,73.315 181.533,72.193C180.62,71.071 179.479,70.035 178.11,69.084C176.741,68.133 175.247,67.201 173.631,66.288C172.014,65.376 170.522,64.339 169.153,63.179C167.783,62.019 166.643,60.66 165.73,59.1C164.817,57.54 164.361,55.639 164.361,53.395C164.361,52.102 164.608,50.884 165.103,49.743C165.596,48.602 166.28,47.604 167.157,46.748C168.031,45.893 169.058,45.218 170.237,44.723C171.416,44.229 172.69,43.981 174.059,43.981C175.201,43.981 176.208,44.134 177.083,44.437C177.957,44.742 178.699,45.065 179.308,45.407C179.993,45.826 180.62,46.302 181.191,46.833C181.495,46.263 181.904,45.731 182.418,45.237C182.931,44.742 183.473,44.419 184.044,44.267L184.899,44.267C184.823,44.837 184.765,45.407 184.728,45.978C184.69,46.511 184.661,47.072 184.642,47.661C184.623,48.251 184.614,48.831 184.614,49.401C184.614,50.048 184.623,50.685 184.642,51.312C184.661,51.94 184.69,52.52 184.728,53.052C184.765,53.662 184.823,54.25 184.899,54.821L184.044,54.821C183.168,51.664 181.951,49.259 180.392,47.604C178.832,45.949 176.912,45.122 174.63,45.122C172.766,45.122 171.207,45.77 169.951,47.062C168.697,48.356 168.069,50.086 168.069,52.254" style="fill:rgb(60,59,58);fill-rule:nonzero;"/>
            <path d="M168.069,52.254C168.069,53.814 168.525,55.154 169.439,56.276C170.351,57.398 171.492,58.435 172.861,59.385C174.231,60.336 175.723,61.268 177.34,62.18C178.956,63.094 180.449,64.13 181.818,65.29C183.188,66.451 184.328,67.81 185.242,69.369C186.154,70.929 186.61,72.831 186.61,75.074C186.61,76.557 186.344,77.946 185.812,79.239C185.279,80.533 184.528,81.655 183.558,82.605C182.588,83.556 181.437,84.298 180.107,84.83C178.775,85.362 177.33,85.629 175.771,85.629C174.325,85.629 173.089,85.486 172.063,85.201C171.035,84.915 170.179,84.583 169.495,84.203C168.697,83.784 168.031,83.31 167.499,82.777C167.194,83.347 166.785,83.88 166.272,84.373C165.759,84.868 165.217,85.191 164.646,85.343L163.79,85.343C163.828,84.81 163.866,84.241 163.905,83.632C163.942,83.138 163.98,82.586 164.019,81.977C164.056,81.37 164.075,80.779 164.075,80.209C164.075,79.563 164.056,78.925 164.019,78.297C163.98,77.67 163.942,77.091 163.905,76.557C163.866,75.95 163.828,75.359 163.79,74.789L164.646,74.789C165.52,77.946 166.785,80.351 168.439,82.006C170.095,83.661 172.348,84.487 175.201,84.487C177.483,84.487 179.337,83.756 180.763,82.291C182.189,80.828 182.902,78.802 182.902,76.215C182.902,74.656 182.446,73.315 181.533,72.193C180.62,71.071 179.479,70.035 178.11,69.084C176.741,68.133 175.247,67.201 173.631,66.288C172.014,65.376 170.522,64.339 169.153,63.179C167.783,62.019 166.643,60.66 165.73,59.1C164.817,57.54 164.361,55.639 164.361,53.395C164.361,52.102 164.608,50.884 165.103,49.743C165.596,48.602 166.28,47.604 167.157,46.748C168.031,45.893 169.058,45.218 170.237,44.723C171.416,44.229 172.69,43.981 174.059,43.981C175.201,43.981 176.208,44.134 177.083,44.437C177.957,44.742 178.699,45.065 179.308,45.407C179.993,45.826 180.62,46.302 181.191,46.833C181.495,46.263 181.904,45.731 182.418,45.237C182.931,44.742 183.473,44.419 184.044,44.267L184.899,44.267C184.823,44.837 184.765,45.407 184.728,45.978C184.69,46.511 184.661,47.072 184.642,47.661C184.623,48.251 184.614,48.831 184.614,49.401C184.614,50.048 184.623,50.685 184.642,51.312C184.661,51.94 184.69,52.52 184.728,53.052C184.765,53.662 184.823,54.25 184.899,54.821L184.044,54.821C183.168,51.664 181.951,49.259 180.392,47.604C178.832,45.949 176.912,45.122 174.63,45.122C172.766,45.122 171.207,45.77 169.951,47.062C168.697,48.356 168.069,50.086 168.069,52.254Z" style="fill:none;stroke:rgb(60,59,58);stroke-width:0.71px;"/>
            <path d="M202.927,58.815C202.205,58.815 201.491,59.034 200.788,59.471C200.084,59.909 199.447,60.622 198.877,61.611C198.306,62.6 197.84,63.912 197.479,65.547C197.117,67.183 196.937,69.218 196.937,71.652C196.937,74.086 197.117,76.121 197.479,77.756C197.84,79.392 198.325,80.714 198.934,81.721C199.542,82.729 200.237,83.443 201.016,83.861C201.795,84.279 202.623,84.488 203.498,84.488C204.487,84.488 205.418,84.299 206.294,83.918C207.168,83.538 207.948,83.025 208.632,82.377C209.318,81.731 209.878,80.951 210.316,80.038C210.753,79.126 211.047,78.137 211.2,77.072L212.056,77.072C211.903,78.289 211.57,79.421 211.058,80.466C210.544,81.513 209.888,82.416 209.089,83.176C208.29,83.937 207.367,84.537 206.322,84.973C205.275,85.41 204.144,85.629 202.927,85.629C201.444,85.629 200.027,85.316 198.677,84.688C197.327,84.06 196.138,83.148 195.111,81.95C194.085,80.752 193.276,79.287 192.687,77.556C192.096,75.826 191.803,73.858 191.803,71.652C191.803,69.446 192.096,67.478 192.687,65.747C193.276,64.016 194.065,62.552 195.055,61.354C196.043,60.156 197.165,59.243 198.42,58.615C199.675,57.988 200.988,57.674 202.357,57.674C203.27,57.674 204.077,57.826 204.782,58.131C205.485,58.436 206.084,58.758 206.579,59.101C207.15,59.52 207.643,59.994 208.062,60.527C208.213,59.956 208.527,59.424 209.004,58.929C209.479,58.436 209.925,58.112 210.344,57.959L211.2,57.959C211.123,58.454 211.066,58.968 211.028,59.5C210.99,59.956 210.962,60.451 210.943,60.983C210.923,61.516 210.914,62.03 210.914,62.523C210.914,63.094 210.923,63.674 210.943,64.264C210.962,64.854 210.99,65.376 211.028,65.832C211.066,66.366 211.123,66.879 211.2,67.373L210.344,67.373C209.621,64.634 208.566,62.523 207.178,61.04C205.789,59.557 204.373,58.815 202.927,58.815" style="fill:rgb(60,59,58);fill-rule:nonzero;"/>
            <path d="M202.927,58.815C202.205,58.815 201.491,59.034 200.788,59.471C200.084,59.909 199.447,60.622 198.877,61.611C198.306,62.6 197.84,63.912 197.479,65.547C197.117,67.183 196.937,69.218 196.937,71.652C196.937,74.086 197.117,76.121 197.479,77.756C197.84,79.392 198.325,80.714 198.934,81.721C199.542,82.729 200.237,83.443 201.016,83.861C201.795,84.279 202.623,84.488 203.498,84.488C204.487,84.488 205.418,84.299 206.294,83.918C207.168,83.538 207.948,83.025 208.632,82.377C209.318,81.731 209.878,80.951 210.316,80.038C210.753,79.126 211.047,78.137 211.2,77.072L212.056,77.072C211.903,78.289 211.57,79.421 211.058,80.466C210.544,81.513 209.888,82.416 209.089,83.176C208.29,83.937 207.367,84.537 206.322,84.973C205.275,85.41 204.144,85.629 202.927,85.629C201.444,85.629 200.027,85.316 198.677,84.688C197.327,84.06 196.138,83.148 195.111,81.95C194.085,80.752 193.276,79.287 192.687,77.556C192.096,75.826 191.803,73.858 191.803,71.652C191.803,69.446 192.096,67.478 192.687,65.747C193.276,64.016 194.065,62.552 195.055,61.354C196.043,60.156 197.165,59.243 198.42,58.615C199.675,57.988 200.988,57.674 202.357,57.674C203.27,57.674 204.077,57.826 204.782,58.131C205.485,58.436 206.084,58.758 206.579,59.101C207.15,59.52 207.643,59.994 208.062,60.527C208.213,59.956 208.527,59.424 209.004,58.929C209.479,58.436 209.925,58.112 210.344,57.959L211.2,57.959C211.123,58.454 211.066,58.968 211.028,59.5C210.99,59.956 210.962,60.451 210.943,60.983C210.923,61.516 210.914,62.03 210.914,62.523C210.914,63.094 210.923,63.674 210.943,64.264C210.962,64.854 210.99,65.376 211.028,65.832C211.066,66.366 211.123,66.879 211.2,67.373L210.344,67.373C209.621,64.634 208.566,62.523 207.178,61.04C205.789,59.557 204.373,58.815 202.927,58.815Z" style="fill:none;stroke:rgb(60,59,58);stroke-width:0.71px;"/>
            <path d="M219.244,83.347L219.244,46.263L215.821,45.407L215.821,44.837L223.809,44.837L223.809,61.952C224.188,61.192 224.702,60.489 225.349,59.842C225.881,59.31 226.566,58.815 227.403,58.358C228.238,57.902 229.229,57.674 230.369,57.674C231.511,57.674 232.566,57.884 233.535,58.301C234.505,58.72 235.351,59.3 236.075,60.042C236.797,60.783 237.358,61.677 237.757,62.723C238.157,63.769 238.357,64.939 238.357,66.232L238.357,83.347L241.78,84.203L241.78,84.773L230.655,84.773L230.655,84.203L233.793,83.347L233.793,66.232C233.793,63.531 233.365,61.62 232.509,60.498C231.653,59.376 230.655,58.815 229.513,58.815C228.562,58.815 227.745,59.082 227.061,59.614C226.376,60.147 225.786,60.736 225.292,61.382C224.721,62.143 224.226,62.999 223.809,63.95L223.809,83.347L226.947,84.203L226.947,84.773L215.821,84.773L215.821,84.203L219.244,83.347Z" style="fill:rgb(60,59,58);fill-rule:nonzero;stroke:rgb(60,59,58);stroke-width:0.71px;"/>
            <path d="M265.513,51.627C265.513,52.349 265.218,53.006 264.628,53.595C264.038,54.185 263.382,54.479 262.66,54.479C261.938,54.479 261.281,54.185 260.692,53.595C260.102,53.006 259.808,52.349 259.808,51.627C259.808,50.905 260.102,50.249 260.692,49.659C261.281,49.069 261.938,48.774 262.66,48.774C263.382,48.774 264.038,49.069 264.628,49.659C265.218,50.249 265.513,50.905 265.513,51.627M256.099,51.627C256.099,52.349 255.804,53.006 255.215,53.595C254.625,54.185 253.969,54.479 253.246,54.479C252.524,54.479 251.868,54.185 251.278,53.595C250.689,53.006 250.394,52.349 250.394,51.627C250.394,50.905 250.689,50.249 251.278,49.659C251.868,49.069 252.524,48.774 253.246,48.774C253.969,48.774 254.625,49.069 255.215,49.659C255.804,50.249 256.099,50.905 256.099,51.627M267.509,59.957L267.509,83.348L270.933,84.203L270.933,84.774L262.945,84.774L262.945,81.35C262.526,82.15 261.994,82.872 261.348,83.518C260.815,84.051 260.14,84.537 259.322,84.973C258.504,85.41 257.526,85.63 256.384,85.63C255.244,85.63 254.188,85.42 253.218,85.002C252.248,84.584 251.401,84.004 250.68,83.262C249.956,82.52 249.396,81.627 248.996,80.58C248.597,79.535 248.398,78.365 248.398,77.072L248.398,59.957L244.974,59.101L244.974,58.53L256.099,58.53L256.099,59.101L252.962,59.957L252.962,77.072C252.962,79.773 253.39,81.684 254.245,82.806C255.1,83.928 256.099,84.488 257.24,84.488C258.153,84.488 258.961,84.223 259.665,83.69C260.368,83.157 260.968,82.569 261.462,81.921C262.033,81.199 262.526,80.343 262.945,79.354L262.945,59.957L259.808,59.101L259.808,58.53L270.933,58.53L270.933,59.101L267.509,59.957Z" style="fill:rgb(60,59,58);fill-rule:nonzero;"/>
            <path d="M265.513,51.627C265.513,52.349 265.218,53.006 264.628,53.595C264.038,54.185 263.382,54.479 262.66,54.479C261.938,54.479 261.281,54.185 260.692,53.595C260.102,53.006 259.808,52.349 259.808,51.627C259.808,50.905 260.102,50.249 260.692,49.659C261.281,49.069 261.938,48.774 262.66,48.774C263.382,48.774 264.038,49.069 264.628,49.659C265.218,50.249 265.513,50.905 265.513,51.627ZM256.099,51.627C256.099,52.349 255.804,53.006 255.215,53.595C254.625,54.185 253.969,54.479 253.246,54.479C252.524,54.479 251.868,54.185 251.278,53.595C250.689,53.006 250.394,52.349 250.394,51.627C250.394,50.905 250.689,50.249 251.278,49.659C251.868,49.069 252.524,48.774 253.246,48.774C253.969,48.774 254.625,49.069 255.215,49.659C255.804,50.249 256.099,50.905 256.099,51.627ZM267.509,59.957L267.509,83.348L270.933,84.203L270.933,84.774L262.945,84.774L262.945,81.35C262.526,82.15 261.994,82.872 261.348,83.518C260.815,84.051 260.14,84.537 259.322,84.973C258.504,85.41 257.526,85.63 256.384,85.63C255.244,85.63 254.188,85.42 253.218,85.002C252.248,84.584 251.401,84.004 250.68,83.262C249.956,82.52 249.396,81.627 248.996,80.58C248.597,79.535 248.398,78.365 248.398,77.072L248.398,59.957L244.974,59.101L244.974,58.53L256.099,58.53L256.099,59.101L252.962,59.957L252.962,77.072C252.962,79.773 253.39,81.684 254.245,82.806C255.1,83.928 256.099,84.488 257.24,84.488C258.153,84.488 258.961,84.223 259.665,83.69C260.368,83.157 260.968,82.569 261.462,81.921C262.033,81.199 262.526,80.343 262.945,79.354L262.945,59.957L259.808,59.101L259.808,58.53L270.933,58.53L270.933,59.101L267.509,59.957Z" style="fill:none;stroke:rgb(60,59,58);stroke-width:0.71px;"/>
            <path d="M290.386,58.53L290.386,59.671L283.825,59.671L283.825,77.87C283.825,80.191 284.243,81.873 285.08,82.919C285.916,83.966 286.829,84.488 287.818,84.488C289.111,84.488 290.205,84.003 291.099,83.033C291.993,82.063 292.515,80.647 292.668,78.783L293.524,78.783C293.371,80.951 292.715,82.634 291.556,83.832C290.395,85.03 288.96,85.629 287.248,85.629C284.813,85.629 282.873,84.916 281.429,83.49C279.983,82.063 279.261,80.209 279.261,77.927L279.261,59.671L274.411,59.671L274.411,58.53L279.261,58.53L279.261,51.969L283.825,48.831L283.825,58.53L290.386,58.53Z" style="fill:rgb(60,59,58);fill-rule:nonzero;stroke:rgb(60,59,58);stroke-width:0.71px;"/>
            <path d="M312.694,83.632C312.694,82.035 313.017,80.619 313.664,79.382C314.31,78.147 315.127,77.091 316.117,76.216L316.688,76.216C316.611,76.711 316.553,77.205 316.516,77.699C316.478,78.118 316.449,78.583 316.43,79.097C316.411,79.61 316.402,80.077 316.402,80.494C316.402,81.142 316.411,81.721 316.43,82.235C316.449,82.748 316.478,83.195 316.516,83.575C316.553,83.994 316.611,84.394 316.688,84.773L296.434,84.773L310.697,59.671L301.569,59.671C301.569,61.268 301.245,62.686 300.599,63.921C299.952,65.158 299.134,66.213 298.145,67.088L297.575,67.088C297.612,66.594 297.651,66.099 297.689,65.604C297.726,65.186 297.765,64.72 297.803,64.206C297.84,63.693 297.861,63.228 297.861,62.809C297.861,62.162 297.84,61.582 297.803,61.069C297.765,60.555 297.726,60.108 297.689,59.728C297.651,59.31 297.612,58.91 297.575,58.53L316.688,58.53L302.425,83.632L312.694,83.632Z" style="fill:rgb(60,59,58);fill-rule:nonzero;stroke:rgb(60,59,58);stroke-width:0.71px;"/>
            <path d="M332.719,58.53C332.148,58.53 331.578,58.71 331.007,59.072C330.437,59.434 329.904,60.07 329.41,60.983C328.915,61.896 328.506,63.122 328.183,64.663C327.86,66.203 327.66,68.152 327.584,70.51L337.853,70.51C337.777,68.152 337.577,66.203 337.255,64.663C336.931,63.122 336.522,61.896 336.028,60.983C335.533,60.07 335.001,59.434 334.43,59.072C333.86,58.71 333.289,58.53 332.719,58.53M327.584,71.652C327.584,74.086 327.764,76.121 328.126,77.756C328.487,79.391 328.962,80.714 329.552,81.721C330.142,82.729 330.808,83.443 331.549,83.861C332.291,84.279 333.061,84.488 333.86,84.488C334.848,84.488 335.78,84.298 336.654,83.917C337.53,83.538 338.31,83.024 338.994,82.377C339.678,81.731 340.24,80.951 340.678,80.038C341.115,79.125 341.409,78.137 341.561,77.071L342.417,77.071C342.265,78.289 341.932,79.421 341.419,80.466C340.906,81.512 340.249,82.415 339.45,83.176C338.653,83.937 337.729,84.536 336.684,84.973C335.637,85.41 334.506,85.629 333.289,85.629C331.843,85.629 330.474,85.315 329.182,84.688C327.888,84.06 326.737,83.147 325.73,81.949C324.722,80.751 323.923,79.287 323.334,77.556C322.743,75.826 322.45,73.858 322.45,71.652C322.45,69.37 322.734,67.354 323.306,65.604C323.876,63.855 324.626,62.4 325.558,61.24C326.49,60.08 327.574,59.196 328.81,58.587C330.046,57.979 331.349,57.674 332.719,57.674C334.088,57.674 335.39,57.979 336.627,58.587C337.863,59.196 338.947,60.08 339.879,61.24C340.811,62.4 341.561,63.855 342.133,65.604C342.702,67.354 342.988,69.37 342.988,71.652L327.584,71.652Z" style="fill:rgb(60,59,58);fill-rule:nonzero;"/>
            <path d="M332.719,58.53C332.148,58.53 331.578,58.71 331.007,59.072C330.437,59.434 329.904,60.07 329.41,60.983C328.915,61.896 328.506,63.122 328.183,64.663C327.86,66.203 327.66,68.152 327.584,70.51L337.853,70.51C337.777,68.152 337.577,66.203 337.255,64.663C336.931,63.122 336.522,61.896 336.028,60.983C335.533,60.07 335.001,59.434 334.43,59.072C333.86,58.71 333.289,58.53 332.719,58.53ZM327.584,71.652C327.584,74.086 327.764,76.121 328.126,77.756C328.487,79.391 328.962,80.714 329.552,81.721C330.142,82.729 330.808,83.443 331.549,83.861C332.291,84.279 333.061,84.488 333.86,84.488C334.848,84.488 335.78,84.298 336.654,83.917C337.53,83.538 338.31,83.024 338.994,82.377C339.678,81.731 340.24,80.951 340.678,80.038C341.115,79.125 341.409,78.137 341.561,77.071L342.417,77.071C342.265,78.289 341.932,79.421 341.419,80.466C340.906,81.512 340.249,82.415 339.45,83.176C338.653,83.937 337.729,84.536 336.684,84.973C335.637,85.41 334.506,85.629 333.289,85.629C331.843,85.629 330.474,85.315 329.182,84.688C327.888,84.06 326.737,83.147 325.73,81.949C324.722,80.751 323.923,79.287 323.334,77.556C322.743,75.826 322.45,73.858 322.45,71.652C322.45,69.37 322.734,67.354 323.306,65.604C323.876,63.855 324.626,62.4 325.558,61.24C326.49,60.08 327.574,59.196 328.81,58.587C330.046,57.979 331.349,57.674 332.719,57.674C334.088,57.674 335.39,57.979 336.627,58.587C337.863,59.196 338.947,60.08 339.879,61.24C340.811,62.4 341.561,63.855 342.133,65.604C342.702,67.354 342.988,69.37 342.988,71.652L327.584,71.652Z" style="fill:none;stroke:rgb(60,59,58);stroke-width:0.71px;"/>
            <path d="M351.601,83.347L351.601,59.956L348.178,59.1L348.178,58.53L356.165,58.53L356.165,61.952C356.545,61.192 357.058,60.489 357.705,59.842C358.237,59.31 358.922,58.815 359.76,58.358C360.596,57.902 361.585,57.674 362.725,57.674C363.868,57.674 364.922,57.884 365.893,58.301C366.862,58.72 367.708,59.3 368.432,60.042C369.153,60.783 369.715,61.677 370.114,62.723C370.514,63.769 370.713,64.939 370.713,66.232L370.713,83.347L374.136,84.203L374.136,84.773L363.012,84.773L363.012,84.203L366.149,83.347L366.149,66.232C366.149,63.531 365.722,61.62 364.866,60.498C364.01,59.376 363.012,58.815 361.87,58.815C360.92,58.815 360.101,59.082 359.417,59.614C358.733,60.147 358.142,60.736 357.649,61.382C357.077,62.143 356.584,62.999 356.165,63.95L356.165,83.347L359.304,84.203L359.304,84.773L348.178,84.773L348.178,84.203L351.601,83.347Z" style="fill:rgb(60,59,58);fill-rule:nonzero;stroke:rgb(60,59,58);stroke-width:0.71px;"/>
            <path d="M377.617,59.956L374.194,59.1L374.194,58.53L385.604,58.53L385.604,59.1L382.467,59.956L389.655,78.497L395.588,60.526L391.88,59.1L391.88,58.53L400.439,58.53L400.439,59.1L396.729,60.526L388.457,85.629L387.601,85.629L377.617,59.956Z" style="fill:rgb(60,59,58);fill-rule:nonzero;stroke:rgb(60,59,58);stroke-width:0.71px;"/>
            <path d="M412.76,58.53C412.191,58.53 411.619,58.71 411.048,59.072C410.479,59.434 409.945,60.07 409.451,60.983C408.956,61.896 408.547,63.122 408.225,64.663C407.902,66.203 407.701,68.152 407.627,70.51L417.895,70.51C417.819,68.152 417.618,66.203 417.296,64.663C416.973,63.122 416.564,61.896 416.07,60.983C415.575,60.07 415.043,59.434 414.472,59.072C413.902,58.71 413.331,58.53 412.76,58.53M407.627,71.652C407.627,74.086 407.806,76.121 408.169,77.756C408.529,79.391 409.003,80.714 409.594,81.721C410.183,82.729 410.849,83.443 411.59,83.861C412.333,84.279 413.103,84.488 413.902,84.488C414.891,84.488 415.821,84.298 416.696,83.917C417.571,83.538 418.351,83.024 419.036,82.377C419.72,81.731 420.281,80.951 420.72,80.038C421.157,79.125 421.451,78.137 421.603,77.071L422.459,77.071C422.307,78.289 421.974,79.421 421.461,80.466C420.948,81.512 420.291,82.415 419.492,83.176C418.694,83.937 417.77,84.536 416.725,84.973C415.679,85.41 414.548,85.629 413.331,85.629C411.885,85.629 410.516,85.315 409.223,84.688C407.929,84.06 406.779,83.147 405.772,81.949C404.763,80.751 403.965,79.287 403.375,77.556C402.786,75.826 402.491,73.858 402.491,71.652C402.491,69.37 402.776,67.354 403.347,65.604C403.917,63.855 404.667,62.4 405.601,61.24C406.533,60.08 407.617,59.196 408.853,58.587C410.087,57.979 411.391,57.674 412.76,57.674C414.13,57.674 415.433,57.979 416.669,58.587C417.905,59.196 418.989,60.08 419.921,61.24C420.853,62.4 421.603,63.855 422.174,65.604C422.744,67.354 423.03,69.37 423.03,71.652L407.627,71.652Z" style="fill:rgb(60,59,58);fill-rule:nonzero;"/>
            <path d="M412.76,58.53C412.191,58.53 411.619,58.71 411.048,59.072C410.479,59.434 409.945,60.07 409.451,60.983C408.956,61.896 408.547,63.122 408.225,64.663C407.902,66.203 407.701,68.152 407.627,70.51L417.895,70.51C417.819,68.152 417.618,66.203 417.296,64.663C416.973,63.122 416.564,61.896 416.07,60.983C415.575,60.07 415.043,59.434 414.472,59.072C413.902,58.71 413.331,58.53 412.76,58.53ZM407.627,71.652C407.627,74.086 407.806,76.121 408.169,77.756C408.529,79.391 409.003,80.714 409.594,81.721C410.183,82.729 410.849,83.443 411.59,83.861C412.333,84.279 413.103,84.488 413.902,84.488C414.891,84.488 415.821,84.298 416.696,83.917C417.571,83.538 418.351,83.024 419.036,82.377C419.72,81.731 420.281,80.951 420.72,80.038C421.157,79.125 421.451,78.137 421.603,77.071L422.459,77.071C422.307,78.289 421.974,79.421 421.461,80.466C420.948,81.512 420.291,82.415 419.492,83.176C418.694,83.937 417.77,84.536 416.725,84.973C415.679,85.41 414.548,85.629 413.331,85.629C411.885,85.629 410.516,85.315 409.223,84.688C407.929,84.06 406.779,83.147 405.772,81.949C404.763,80.751 403.965,79.287 403.375,77.556C402.786,75.826 402.491,73.858 402.491,71.652C402.491,69.37 402.776,67.354 403.347,65.604C403.917,63.855 404.667,62.4 405.601,61.24C406.533,60.08 407.617,59.196 408.853,58.587C410.087,57.979 411.391,57.674 412.76,57.674C414.13,57.674 415.433,57.979 416.669,58.587C417.905,59.196 418.989,60.08 419.921,61.24C420.853,62.4 421.603,63.855 422.174,65.604C422.744,67.354 423.03,69.37 423.03,71.652L407.627,71.652Z" style="fill:none;stroke:rgb(60,59,58);stroke-width:0.71px;"/>
            <path d="M436.209,83.347L439.632,84.203L439.632,84.773L428.222,84.773L428.222,84.203L431.645,83.347L431.645,59.956L428.222,59.1L428.222,58.53L436.209,58.53L436.209,65.376C436.702,63.969 437.293,62.694 437.977,61.553C438.586,60.564 439.327,59.67 440.203,58.872C441.077,58.073 442.122,57.674 443.341,57.674C443.758,57.674 444.158,57.702 444.539,57.759C444.918,57.816 445.261,57.884 445.565,57.959C445.908,58.073 446.212,58.168 446.479,58.244L444.767,62.523C444.539,62.409 444.29,62.276 444.025,62.124C443.797,62.01 443.52,61.906 443.198,61.81C442.875,61.715 442.541,61.668 442.2,61.668C441.21,61.668 440.336,61.934 439.576,62.466C438.814,62.999 438.186,63.588 437.693,64.234C437.084,64.996 436.589,65.851 436.209,66.802L436.209,83.347Z" style="fill:rgb(60,59,58);fill-rule:nonzero;stroke:rgb(60,59,58);stroke-width:0.71px;"/>
            <path d="M459.941,58.53C459.372,58.53 458.8,58.71 458.229,59.072C457.66,59.434 457.126,60.07 456.632,60.983C456.137,61.896 455.728,63.122 455.406,64.663C455.083,66.203 454.882,68.152 454.808,70.51L465.076,70.51C465,68.152 464.799,66.203 464.477,64.663C464.154,63.122 463.745,61.896 463.251,60.983C462.756,60.07 462.224,59.434 461.653,59.072C461.083,58.71 460.512,58.53 459.941,58.53M454.808,71.652C454.808,74.086 454.987,76.121 455.35,77.756C455.71,79.391 456.184,80.714 456.775,81.721C457.364,82.729 458.03,83.443 458.771,83.861C459.514,84.279 460.284,84.488 461.083,84.488C462.072,84.488 463.002,84.298 463.877,83.917C464.753,83.538 465.532,83.024 466.217,82.377C466.901,81.731 467.462,80.951 467.901,80.038C468.338,79.125 468.632,78.137 468.784,77.071L469.64,77.071C469.488,78.289 469.155,79.421 468.642,80.466C468.129,81.512 467.472,82.415 466.673,83.176C465.875,83.937 464.952,84.536 463.906,84.973C462.86,85.41 461.729,85.629 460.512,85.629C459.066,85.629 457.697,85.315 456.404,84.688C455.11,84.06 453.96,83.147 452.953,81.949C451.944,80.751 451.146,79.287 450.556,77.556C449.967,75.826 449.672,73.858 449.672,71.652C449.672,69.37 449.957,67.354 450.528,65.604C451.098,63.855 451.848,62.4 452.782,61.24C453.714,60.08 454.798,59.196 456.034,58.587C457.268,57.979 458.572,57.674 459.941,57.674C461.311,57.674 462.614,57.979 463.85,58.587C465.086,59.196 466.17,60.08 467.102,61.24C468.034,62.4 468.784,63.855 469.355,65.604C469.925,67.354 470.211,69.37 470.211,71.652L454.808,71.652Z" style="fill:rgb(60,59,58);fill-rule:nonzero;"/>
            <path d="M459.941,58.53C459.372,58.53 458.8,58.71 458.229,59.072C457.66,59.434 457.126,60.07 456.632,60.983C456.137,61.896 455.728,63.122 455.406,64.663C455.083,66.203 454.882,68.152 454.808,70.51L465.076,70.51C465,68.152 464.799,66.203 464.477,64.663C464.154,63.122 463.745,61.896 463.251,60.983C462.756,60.07 462.224,59.434 461.653,59.072C461.083,58.71 460.512,58.53 459.941,58.53ZM454.808,71.652C454.808,74.086 454.987,76.121 455.35,77.756C455.71,79.391 456.184,80.714 456.775,81.721C457.364,82.729 458.03,83.443 458.771,83.861C459.514,84.279 460.284,84.488 461.083,84.488C462.072,84.488 463.002,84.298 463.877,83.917C464.753,83.538 465.532,83.024 466.217,82.377C466.901,81.731 467.462,80.951 467.901,80.038C468.338,79.125 468.632,78.137 468.784,77.071L469.64,77.071C469.488,78.289 469.155,79.421 468.642,80.466C468.129,81.512 467.472,82.415 466.673,83.176C465.875,83.937 464.952,84.536 463.906,84.973C462.86,85.41 461.729,85.629 460.512,85.629C459.066,85.629 457.697,85.315 456.404,84.688C455.11,84.06 453.96,83.147 452.953,81.949C451.944,80.751 451.146,79.287 450.556,77.556C449.967,75.826 449.672,73.858 449.672,71.652C449.672,69.37 449.957,67.354 450.528,65.604C451.098,63.855 451.848,62.4 452.782,61.24C453.714,60.08 454.798,59.196 456.034,58.587C457.268,57.979 458.572,57.674 459.941,57.674C461.311,57.674 462.614,57.979 463.85,58.587C465.086,59.196 466.17,60.08 467.102,61.24C468.034,62.4 468.784,63.855 469.355,65.604C469.925,67.354 470.211,69.37 470.211,71.652L454.808,71.652Z" style="fill:none;stroke:rgb(60,59,58);stroke-width:0.71px;"/>
            <path d="M483.674,51.969C483.674,52.692 483.38,53.348 482.791,53.937C482.2,54.528 481.545,54.821 480.822,54.821C480.099,54.821 479.443,54.528 478.854,53.937C478.264,53.348 477.969,52.692 477.969,51.969C477.969,51.247 478.264,50.591 478.854,50.001C479.443,49.411 480.099,49.117 480.822,49.117C481.545,49.117 482.2,49.411 482.791,50.001C483.38,50.591 483.674,51.247 483.674,51.969M478.825,83.347L478.825,59.956L475.402,59.101L475.402,58.53L483.389,58.53L483.389,83.347L486.813,84.203L486.813,84.774L475.402,84.774L475.402,84.203L478.825,83.347Z" style="fill:rgb(60,59,58);fill-rule:nonzero;"/>
            <path d="M483.674,51.969C483.674,52.692 483.38,53.348 482.791,53.937C482.2,54.528 481.545,54.821 480.822,54.821C480.099,54.821 479.443,54.528 478.854,53.937C478.264,53.348 477.969,52.692 477.969,51.969C477.969,51.247 478.264,50.591 478.854,50.001C479.443,49.411 480.099,49.117 480.822,49.117C481.545,49.117 482.2,49.411 482.791,50.001C483.38,50.591 483.674,51.247 483.674,51.969ZM478.825,83.347L478.825,59.956L475.402,59.101L475.402,58.53L483.389,58.53L483.389,83.347L486.813,84.203L486.813,84.774L475.402,84.774L475.402,84.203L478.825,83.347Z" style="fill:none;stroke:rgb(60,59,58);stroke-width:0.71px;"/>
            <path d="M494.57,83.347L494.57,59.956L491.147,59.1L491.147,58.53L499.134,58.53L499.134,61.952C499.514,61.192 500.027,60.489 500.674,59.842C501.206,59.31 501.891,58.815 502.729,58.358C503.565,57.902 504.554,57.674 505.694,57.674C506.837,57.674 507.891,57.884 508.862,58.301C509.831,58.72 510.677,59.3 511.401,60.042C512.122,60.783 512.684,61.677 513.083,62.723C513.483,63.769 513.682,64.939 513.682,66.232L513.682,83.347L517.105,84.203L517.105,84.773L505.981,84.773L505.981,84.203L509.118,83.347L509.118,66.232C509.118,63.531 508.691,61.62 507.835,60.498C506.979,59.376 505.981,58.815 504.839,58.815C503.889,58.815 503.07,59.082 502.386,59.614C501.702,60.147 501.111,60.736 500.618,61.382C500.046,62.143 499.553,62.999 499.134,63.95L499.134,83.347L502.273,84.203L502.273,84.773L491.147,84.773L491.147,84.203L494.57,83.347Z" style="fill:rgb(60,59,58);fill-rule:nonzero;stroke:rgb(60,59,58);stroke-width:0.71px;"/>
            <path d="M168.207,111.131L168.207,125.166L169.405,125.166C170.181,125.166 170.9,125.018 171.562,124.721C172.223,124.424 172.799,123.979 173.29,123.385C173.781,122.793 174.169,122.062 174.454,121.195C174.739,120.328 174.882,119.313 174.882,118.148C174.882,116.984 174.739,115.969 174.454,115.102C174.169,114.235 173.781,113.504 173.29,112.911C172.799,112.318 172.223,111.873 171.562,111.576C170.9,111.28 170.181,111.131 169.405,111.131L168.207,111.131ZM168.207,110.447L169.405,110.447C170.432,110.424 171.259,110.087 171.887,109.436C172.515,108.786 172.828,107.81 172.828,106.51C172.828,105.209 172.515,104.228 171.887,103.566C171.259,102.904 170.432,102.573 169.405,102.573L168.207,102.573L168.207,110.447ZM163.243,125.85L163.243,125.508L165.297,124.994L165.297,102.745L163.243,102.231L163.243,101.889L169.405,101.889C170.478,101.889 171.408,102.009 172.195,102.248C172.982,102.488 173.638,102.818 174.163,103.241C174.688,103.663 175.081,104.154 175.344,104.713C175.606,105.272 175.738,105.871 175.738,106.51C175.738,107.012 175.664,107.457 175.516,107.845C175.367,108.233 175.173,108.57 174.933,108.855C174.694,109.14 174.42,109.391 174.112,109.608C173.804,109.825 173.49,110.002 173.171,110.138C172.417,110.481 171.562,110.697 170.603,110.789C172.018,110.926 173.273,111.28 174.369,111.85C174.848,112.101 175.31,112.403 175.755,112.757C176.2,113.111 176.599,113.544 176.953,114.058C177.307,114.571 177.591,115.165 177.809,115.837C178.026,116.511 178.134,117.281 178.134,118.148C178.134,119.221 177.929,120.225 177.518,121.161C177.107,122.097 176.52,122.912 175.755,123.608C174.99,124.304 174.072,124.852 172.999,125.251C171.926,125.65 170.728,125.85 169.405,125.85L163.243,125.85Z" style="fill:rgb(60,59,58);fill-rule:nonzero;stroke:rgb(60,59,58);stroke-width:0.71px;"/>
            <path d="M193.572,110.959L193.572,124.994L195.626,125.508L195.626,125.85L190.833,125.85L190.833,123.796C190.582,124.275 190.263,124.709 189.875,125.097C189.555,125.416 189.15,125.707 188.659,125.969C188.168,126.232 187.581,126.363 186.897,126.363C186.212,126.363 185.579,126.237 184.997,125.986C184.415,125.736 183.907,125.388 183.473,124.943C183.04,124.498 182.703,123.962 182.464,123.334C182.224,122.706 182.105,122.005 182.105,121.228L182.105,110.959L180.051,110.446L180.051,110.104L186.725,110.104L186.725,110.446L184.843,110.959L184.843,121.228C184.843,122.849 185.099,123.996 185.613,124.669C186.127,125.343 186.725,125.678 187.41,125.678C187.958,125.678 188.443,125.519 188.865,125.199C189.287,124.88 189.646,124.526 189.943,124.138C190.285,123.705 190.582,123.192 190.833,122.598L190.833,110.959L188.951,110.446L188.951,110.104L195.626,110.104L195.626,110.446L193.572,110.959Z" style="fill:rgb(60,59,58);fill-rule:nonzero;stroke:rgb(60,59,58);stroke-width:0.71px;"/>
            <path d="M207.299,110.104L207.299,110.788L203.362,110.788L203.362,121.708C203.362,123.1 203.613,124.11 204.115,124.738C204.617,125.365 205.165,125.678 205.758,125.678C206.534,125.678 207.19,125.388 207.727,124.805C208.262,124.224 208.576,123.374 208.668,122.256L209.181,122.256C209.09,123.556 208.696,124.566 208,125.285C207.304,126.004 206.443,126.363 205.416,126.363C203.956,126.363 202.792,125.936 201.924,125.08C201.057,124.224 200.624,123.112 200.624,121.742L200.624,110.788L197.714,110.788L197.714,110.104L200.624,110.104L200.624,106.167L203.362,104.285L203.362,110.104L207.299,110.104Z" style="fill:rgb(60,59,58);fill-rule:nonzero;stroke:rgb(60,59,58);stroke-width:0.71px;"/>
            <path d="M217.431,110.104C217.089,110.104 216.747,110.212 216.404,110.429C216.062,110.646 215.742,111.028 215.446,111.575C215.149,112.123 214.903,112.859 214.71,113.784C214.516,114.708 214.396,115.877 214.351,117.292L220.512,117.292C220.466,115.877 220.346,114.708 220.152,113.784C219.958,112.859 219.713,112.123 219.416,111.575C219.12,111.028 218.801,110.646 218.458,110.429C218.115,110.212 217.773,110.104 217.431,110.104M214.351,117.977C214.351,119.437 214.458,120.658 214.676,121.639C214.892,122.621 215.177,123.414 215.532,124.018C215.885,124.623 216.285,125.051 216.73,125.302C217.175,125.554 217.636,125.678 218.115,125.678C218.709,125.678 219.268,125.565 219.793,125.336C220.318,125.109 220.786,124.801 221.197,124.412C221.607,124.024 221.944,123.556 222.206,123.009C222.468,122.461 222.645,121.867 222.737,121.228L223.25,121.228C223.159,121.959 222.959,122.638 222.651,123.265C222.344,123.893 221.95,124.435 221.47,124.891C220.991,125.348 220.438,125.707 219.81,125.97C219.182,126.232 218.504,126.363 217.773,126.363C216.906,126.363 216.084,126.175 215.309,125.799C214.533,125.422 213.843,124.874 213.238,124.155C212.633,123.437 212.154,122.558 211.8,121.52C211.446,120.482 211.269,119.301 211.269,117.977C211.269,116.608 211.441,115.398 211.783,114.348C212.125,113.298 212.576,112.426 213.135,111.73C213.694,111.033 214.344,110.503 215.086,110.138C215.828,109.773 216.61,109.59 217.431,109.59C218.253,109.59 219.034,109.773 219.776,110.138C220.517,110.503 221.167,111.033 221.727,111.73C222.286,112.426 222.737,113.298 223.079,114.348C223.421,115.398 223.593,116.608 223.593,117.977L214.351,117.977Z" style="fill:rgb(60,59,58);fill-rule:nonzero;"/>
            <path d="M217.431,110.104C217.089,110.104 216.747,110.212 216.404,110.429C216.062,110.646 215.742,111.028 215.446,111.575C215.149,112.123 214.903,112.859 214.71,113.784C214.516,114.708 214.396,115.877 214.351,117.292L220.512,117.292C220.466,115.877 220.346,114.708 220.152,113.784C219.958,112.859 219.713,112.123 219.416,111.575C219.12,111.028 218.801,110.646 218.458,110.429C218.115,110.212 217.773,110.104 217.431,110.104ZM214.351,117.977C214.351,119.437 214.458,120.658 214.676,121.639C214.892,122.621 215.177,123.414 215.532,124.018C215.885,124.623 216.285,125.051 216.73,125.302C217.175,125.554 217.636,125.678 218.115,125.678C218.709,125.678 219.268,125.565 219.793,125.336C220.318,125.109 220.786,124.801 221.197,124.412C221.607,124.024 221.944,123.556 222.206,123.009C222.468,122.461 222.645,121.867 222.737,121.228L223.25,121.228C223.159,121.959 222.959,122.638 222.651,123.265C222.344,123.893 221.95,124.435 221.47,124.891C220.991,125.348 220.438,125.707 219.81,125.97C219.182,126.232 218.504,126.363 217.773,126.363C216.906,126.363 216.084,126.175 215.309,125.799C214.533,125.422 213.843,124.874 213.238,124.155C212.633,123.437 212.154,122.558 211.8,121.52C211.446,120.482 211.269,119.301 211.269,117.977C211.269,116.608 211.441,115.398 211.783,114.348C212.125,113.298 212.576,112.426 213.135,111.73C213.694,111.033 214.344,110.503 215.086,110.138C215.828,109.773 216.61,109.59 217.431,109.59C218.253,109.59 219.034,109.773 219.776,110.138C220.517,110.503 221.167,111.033 221.727,111.73C222.286,112.426 222.737,113.298 223.079,114.348C223.421,115.398 223.593,116.608 223.593,117.977L214.351,117.977Z" style="fill:none;stroke:rgb(60,59,58);stroke-width:0.71px;"/>
            <path d="M231.499,124.994L233.553,125.508L233.553,125.85L226.707,125.85L226.707,125.508L228.761,124.994L228.761,110.959L226.707,110.446L226.707,110.104L231.499,110.104L231.499,114.211C231.796,113.367 232.149,112.603 232.56,111.918C232.925,111.325 233.37,110.788 233.895,110.309C234.42,109.83 235.048,109.59 235.778,109.59C236.029,109.59 236.268,109.607 236.497,109.641C236.725,109.676 236.93,109.716 237.113,109.761C237.318,109.83 237.501,109.887 237.661,109.933L236.634,112.5C236.497,112.431 236.349,112.352 236.189,112.26C236.052,112.192 235.886,112.129 235.692,112.072C235.498,112.016 235.299,111.986 235.094,111.986C234.5,111.986 233.975,112.147 233.519,112.465C233.062,112.786 232.686,113.139 232.39,113.527C232.024,113.984 231.727,114.497 231.499,115.067L231.499,124.994Z" style="fill:rgb(60,59,58);fill-rule:nonzero;stroke:rgb(60,59,58);stroke-width:0.71px;"/>
            <path d="M241.118,124.994L241.118,102.744L239.064,102.231L239.064,101.889L243.857,101.889L243.857,124.994L245.911,125.508L245.911,125.85L239.064,125.85L239.064,125.508L241.118,124.994Z" style="fill:rgb(60,59,58);fill-rule:nonzero;stroke:rgb(60,59,58);stroke-width:0.71px;"/>
            <path d="M257.583,117.464C255.598,117.464 254.131,117.903 253.184,118.782C252.237,119.66 251.764,120.875 251.764,122.427C251.764,123.454 252.014,124.253 252.517,124.824C253.018,125.394 253.566,125.679 254.16,125.679C254.707,125.679 255.192,125.519 255.615,125.2C256.036,124.88 256.396,124.527 256.693,124.138C257.035,123.706 257.331,123.192 257.583,122.598L257.583,117.464ZM255.015,110.104C254.331,110.104 253.76,110.338 253.304,110.806C252.848,111.274 252.619,111.896 252.619,112.671C252.619,112.854 252.625,113.013 252.636,113.151C252.648,113.287 252.665,113.413 252.688,113.527C252.71,113.642 252.745,113.755 252.791,113.869L250.052,114.554C250.006,114.486 249.972,114.395 249.949,114.28C249.926,114.166 249.909,114.041 249.898,113.904C249.886,113.766 249.881,113.584 249.881,113.356C249.881,112.877 249.995,112.415 250.223,111.97C250.451,111.525 250.788,111.125 251.233,110.772C251.678,110.418 252.214,110.133 252.842,109.916C253.47,109.699 254.194,109.591 255.015,109.591C256.658,109.591 257.953,110.058 258.901,110.994C259.847,111.93 260.321,113.173 260.321,114.725L260.321,124.994L262.375,125.508L262.375,125.85L257.583,125.85L257.583,123.796C257.331,124.275 257.012,124.71 256.624,125.097C256.305,125.417 255.9,125.708 255.409,125.97C254.918,126.232 254.331,126.364 253.647,126.364C252.003,126.364 250.765,125.976 249.932,125.2C249.099,124.424 248.683,123.385 248.683,122.085C248.683,121.446 248.859,120.807 249.214,120.168C249.567,119.529 250.104,118.959 250.822,118.457C251.541,117.954 252.459,117.549 253.578,117.241C254.696,116.933 256.031,116.779 257.583,116.779L257.583,114.725C257.583,113.013 257.327,111.815 256.813,111.131C256.299,110.447 255.7,110.104 255.015,110.104" style="fill:rgb(60,59,58);fill-rule:nonzero;"/>
            <path d="M257.583,117.464C255.598,117.464 254.131,117.903 253.184,118.782C252.237,119.66 251.764,120.875 251.764,122.427C251.764,123.454 252.014,124.253 252.517,124.824C253.018,125.394 253.566,125.679 254.16,125.679C254.707,125.679 255.192,125.519 255.615,125.2C256.036,124.88 256.396,124.527 256.693,124.138C257.035,123.706 257.331,123.192 257.583,122.598L257.583,117.464ZM255.015,110.104C254.331,110.104 253.76,110.338 253.304,110.806C252.848,111.274 252.619,111.896 252.619,112.671C252.619,112.854 252.625,113.013 252.636,113.151C252.648,113.287 252.665,113.413 252.688,113.527C252.71,113.642 252.745,113.755 252.791,113.869L250.052,114.554C250.006,114.486 249.972,114.395 249.949,114.28C249.926,114.166 249.909,114.041 249.898,113.904C249.886,113.766 249.881,113.584 249.881,113.356C249.881,112.877 249.995,112.415 250.223,111.97C250.451,111.525 250.788,111.125 251.233,110.772C251.678,110.418 252.214,110.133 252.842,109.916C253.47,109.699 254.194,109.591 255.015,109.591C256.658,109.591 257.953,110.058 258.901,110.994C259.847,111.93 260.321,113.173 260.321,114.725L260.321,124.994L262.375,125.508L262.375,125.85L257.583,125.85L257.583,123.796C257.331,124.275 257.012,124.71 256.624,125.097C256.305,125.417 255.9,125.708 255.409,125.97C254.918,126.232 254.331,126.364 253.647,126.364C252.003,126.364 250.765,125.976 249.932,125.2C249.099,124.424 248.683,123.385 248.683,122.085C248.683,121.446 248.859,120.807 249.214,120.168C249.567,119.529 250.104,118.959 250.822,118.457C251.541,117.954 252.459,117.549 253.578,117.241C254.696,116.933 256.031,116.779 257.583,116.779L257.583,114.725C257.583,113.013 257.327,111.815 256.813,111.131C256.299,110.447 255.7,110.104 255.015,110.104Z" style="fill:none;stroke:rgb(60,59,58);stroke-width:0.71px;"/>
            <path d="M267.03,124.994L267.03,110.959L264.976,110.446L264.976,110.104L269.768,110.104L269.768,112.158C269.996,111.702 270.305,111.279 270.693,110.891C271.012,110.572 271.422,110.275 271.925,110.001C272.426,109.727 273.02,109.59 273.705,109.59C274.39,109.59 275.023,109.716 275.605,109.967C276.187,110.218 276.694,110.566 277.128,111.011C277.561,111.456 277.898,111.992 278.138,112.62C278.378,113.248 278.497,113.949 278.497,114.725L278.497,124.994L280.551,125.508L280.551,125.85L273.876,125.85L273.876,125.508L275.759,124.994L275.759,114.725C275.759,113.104 275.502,111.958 274.989,111.284C274.475,110.612 273.876,110.275 273.192,110.275C272.621,110.275 272.13,110.435 271.719,110.754C271.309,111.074 270.955,111.427 270.659,111.815C270.316,112.272 270.019,112.786 269.768,113.356L269.768,124.994L271.651,125.508L271.651,125.85L264.976,125.85L264.976,125.508L267.03,124.994Z" style="fill:rgb(60,59,58);fill-rule:nonzero;stroke:rgb(60,59,58);stroke-width:0.71px;"/>
            <path d="M290.17,110.275C289.69,110.275 289.228,110.407 288.783,110.669C288.339,110.931 287.939,111.359 287.585,111.953C287.231,112.546 286.946,113.334 286.73,114.314C286.513,115.296 286.404,116.517 286.404,117.977C286.404,119.438 286.513,120.658 286.73,121.64C286.946,122.621 287.22,123.414 287.552,124.019C287.882,124.624 288.247,125.052 288.647,125.302C289.046,125.554 289.44,125.679 289.828,125.679C290.375,125.679 290.86,125.519 291.282,125.2C291.705,124.88 292.064,124.527 292.361,124.138C292.703,123.706 293,123.192 293.25,122.598L293.25,112.329C293.022,111.941 292.759,111.599 292.463,111.302C292.212,111.051 291.899,110.818 291.522,110.6C291.146,110.383 290.695,110.275 290.17,110.275M295.989,124.994L298.043,125.508L298.043,125.85L293.25,125.85L293.25,123.796C293,124.275 292.68,124.71 292.293,125.097C291.972,125.417 291.568,125.708 291.077,125.97C290.586,126.232 289.999,126.364 289.314,126.364C288.584,126.364 287.86,126.175 287.141,125.799C286.421,125.422 285.782,124.875 285.223,124.155C284.664,123.437 284.208,122.559 283.855,121.52C283.5,120.482 283.324,119.301 283.324,117.977C283.324,116.653 283.5,115.473 283.855,114.435C284.208,113.396 284.681,112.517 285.275,111.798C285.868,111.08 286.541,110.531 287.294,110.155C288.047,109.779 288.835,109.591 289.656,109.591C290.295,109.591 290.843,109.682 291.299,109.864C291.756,110.047 292.132,110.241 292.429,110.446C292.772,110.697 293.045,110.983 293.25,111.302L293.25,102.745L291.197,102.231L291.197,101.889L295.989,101.889L295.989,124.994Z" style="fill:rgb(60,59,58);fill-rule:nonzero;"/>
            <path d="M290.17,110.275C289.69,110.275 289.228,110.407 288.783,110.669C288.339,110.931 287.939,111.359 287.585,111.953C287.231,112.546 286.946,113.334 286.73,114.314C286.513,115.296 286.404,116.517 286.404,117.977C286.404,119.438 286.513,120.658 286.73,121.64C286.946,122.621 287.22,123.414 287.552,124.019C287.882,124.624 288.247,125.052 288.647,125.302C289.046,125.554 289.44,125.679 289.828,125.679C290.375,125.679 290.86,125.519 291.282,125.2C291.705,124.88 292.064,124.527 292.361,124.138C292.703,123.706 293,123.192 293.25,122.598L293.25,112.329C293.022,111.941 292.759,111.599 292.463,111.302C292.212,111.051 291.899,110.818 291.522,110.6C291.146,110.383 290.695,110.275 290.17,110.275ZM295.989,124.994L298.043,125.508L298.043,125.85L293.25,125.85L293.25,123.796C293,124.275 292.68,124.71 292.293,125.097C291.972,125.417 291.568,125.708 291.077,125.97C290.586,126.232 289.999,126.364 289.314,126.364C288.584,126.364 287.86,126.175 287.141,125.799C286.421,125.422 285.782,124.875 285.223,124.155C284.664,123.437 284.208,122.559 283.855,121.52C283.5,120.482 283.324,119.301 283.324,117.977C283.324,116.653 283.5,115.473 283.855,114.435C284.208,113.396 284.681,112.517 285.275,111.798C285.868,111.08 286.541,110.531 287.294,110.155C288.047,109.779 288.835,109.591 289.656,109.591C290.295,109.591 290.843,109.682 291.299,109.864C291.756,110.047 292.132,110.241 292.429,110.446C292.772,110.697 293.045,110.983 293.25,111.302L293.25,102.745L291.197,102.231L291.197,101.889L295.989,101.889L295.989,124.994Z" style="fill:none;stroke:rgb(60,59,58);stroke-width:0.71px;"/>
            <path d="M318.08,111.131L318.08,125.166L319.278,125.166C320.054,125.166 320.773,125.018 321.435,124.721C322.096,124.424 322.672,123.979 323.163,123.385C323.654,122.793 324.042,122.062 324.327,121.195C324.612,120.328 324.755,119.313 324.755,118.148C324.755,116.984 324.612,115.969 324.327,115.102C324.042,114.235 323.654,113.504 323.163,112.911C322.672,112.318 322.096,111.873 321.435,111.576C320.773,111.28 320.054,111.131 319.278,111.131L318.08,111.131ZM318.08,110.447L319.278,110.447C320.305,110.424 321.132,110.087 321.76,109.436C322.388,108.786 322.701,107.81 322.701,106.51C322.701,105.209 322.388,104.228 321.76,103.566C321.132,102.904 320.305,102.573 319.278,102.573L318.08,102.573L318.08,110.447ZM313.116,125.85L313.116,125.508L315.17,124.994L315.17,102.745L313.116,102.231L313.116,101.889L319.278,101.889C320.351,101.889 321.281,102.009 322.068,102.248C322.855,102.488 323.511,102.818 324.036,103.241C324.561,103.663 324.954,104.154 325.217,104.713C325.479,105.272 325.611,105.871 325.611,106.51C325.611,107.012 325.537,107.457 325.389,107.845C325.24,108.233 325.046,108.57 324.806,108.855C324.567,109.14 324.293,109.391 323.985,109.608C323.677,109.825 323.363,110.002 323.044,110.138C322.29,110.481 321.435,110.697 320.476,110.789C321.891,110.926 323.146,111.28 324.242,111.85C324.721,112.101 325.183,112.403 325.628,112.757C326.073,113.111 326.472,113.544 326.826,114.058C327.18,114.571 327.464,115.165 327.682,115.837C327.899,116.511 328.007,117.281 328.007,118.148C328.007,119.221 327.802,120.225 327.391,121.161C326.98,122.097 326.393,122.912 325.628,123.608C324.863,124.304 323.945,124.852 322.872,125.251C321.799,125.65 320.601,125.85 319.278,125.85L313.116,125.85Z" style="fill:rgb(60,59,58);fill-rule:nonzero;stroke:rgb(60,59,58);stroke-width:0.71px;"/>
            <path d="M337.112,110.104C336.77,110.104 336.428,110.212 336.085,110.429C335.743,110.646 335.423,111.028 335.127,111.575C334.83,112.123 334.584,112.859 334.391,113.784C334.197,114.708 334.077,115.877 334.032,117.292L340.194,117.292C340.147,115.877 340.027,114.708 339.833,113.784C339.639,112.859 339.395,112.123 339.097,111.575C338.801,111.028 338.482,110.646 338.139,110.429C337.796,110.212 337.454,110.104 337.112,110.104M334.032,117.977C334.032,119.437 334.139,120.658 334.357,121.639C334.573,122.621 334.858,123.414 335.213,124.018C335.566,124.623 335.966,125.051 336.411,125.302C336.856,125.554 337.317,125.678 337.796,125.678C338.39,125.678 338.949,125.565 339.474,125.336C340,125.109 340.466,124.801 340.877,124.412C341.288,124.024 341.624,123.556 341.886,123.009C342.148,122.461 342.326,121.867 342.417,121.228L342.931,121.228C342.841,121.959 342.64,122.638 342.333,123.265C342.025,123.893 341.631,124.435 341.152,124.891C340.673,125.348 340.12,125.707 339.492,125.97C338.863,126.232 338.185,126.363 337.454,126.363C336.587,126.363 335.765,126.175 334.99,125.799C334.214,125.422 333.524,124.874 332.919,124.155C332.314,123.437 331.835,122.558 331.481,121.52C331.127,120.482 330.95,119.301 330.95,117.977C330.95,116.608 331.122,115.398 331.464,114.348C331.806,113.298 332.257,112.426 332.816,111.73C333.375,111.033 334.025,110.503 334.767,110.138C335.509,109.773 336.291,109.59 337.112,109.59C337.934,109.59 338.715,109.773 339.456,110.138C340.197,110.503 340.848,111.033 341.407,111.73C341.967,112.426 342.417,113.298 342.76,114.348C343.103,115.398 343.274,116.608 343.274,117.977L334.032,117.977Z" style="fill:rgb(60,59,58);fill-rule:nonzero;"/>
            <path d="M337.112,110.104C336.77,110.104 336.428,110.212 336.085,110.429C335.743,110.646 335.423,111.028 335.127,111.575C334.83,112.123 334.584,112.859 334.391,113.784C334.197,114.708 334.077,115.877 334.032,117.292L340.194,117.292C340.147,115.877 340.027,114.708 339.833,113.784C339.639,112.859 339.395,112.123 339.097,111.575C338.801,111.028 338.482,110.646 338.139,110.429C337.796,110.212 337.454,110.104 337.112,110.104ZM334.032,117.977C334.032,119.437 334.139,120.658 334.357,121.639C334.573,122.621 334.858,123.414 335.213,124.018C335.566,124.623 335.966,125.051 336.411,125.302C336.856,125.554 337.317,125.678 337.796,125.678C338.39,125.678 338.949,125.565 339.474,125.336C340,125.109 340.466,124.801 340.877,124.412C341.288,124.024 341.624,123.556 341.886,123.009C342.148,122.461 342.326,121.867 342.417,121.228L342.931,121.228C342.841,121.959 342.64,122.638 342.333,123.265C342.025,123.893 341.631,124.435 341.152,124.891C340.673,125.348 340.12,125.707 339.492,125.97C338.863,126.232 338.185,126.363 337.454,126.363C336.587,126.363 335.765,126.175 334.99,125.799C334.214,125.422 333.524,124.874 332.919,124.155C332.314,123.437 331.835,122.558 331.481,121.52C331.127,120.482 330.95,119.301 330.95,117.977C330.95,116.608 331.122,115.398 331.464,114.348C331.806,113.298 332.257,112.426 332.816,111.73C333.375,111.033 334.025,110.503 334.767,110.138C335.509,109.773 336.291,109.59 337.112,109.59C337.934,109.59 338.715,109.773 339.456,110.138C340.197,110.503 340.848,111.033 341.407,111.73C341.967,112.426 342.417,113.298 342.76,114.348C343.103,115.398 343.274,116.608 343.274,117.977L334.032,117.977Z" style="fill:none;stroke:rgb(60,59,58);stroke-width:0.71px;"/>
            <path d="M353.406,110.275C352.972,110.275 352.544,110.407 352.123,110.669C351.699,110.931 351.317,111.359 350.976,111.953C350.633,112.546 350.353,113.334 350.136,114.314C349.92,115.296 349.811,116.517 349.811,117.977C349.811,119.438 349.92,120.658 350.136,121.64C350.353,122.621 350.644,123.414 351.01,124.019C351.374,124.624 351.791,125.052 352.259,125.302C352.726,125.554 353.223,125.679 353.749,125.679C354.341,125.679 354.901,125.565 355.425,125.336C355.951,125.109 356.418,124.801 356.829,124.413C357.24,124.024 357.577,123.557 357.839,123.009C358.101,122.462 358.277,121.868 358.37,121.229L358.882,121.229C358.792,121.959 358.591,122.639 358.284,123.266C357.976,123.893 357.582,124.435 357.103,124.892C356.624,125.349 356.071,125.708 355.443,125.97C354.815,126.232 354.136,126.364 353.406,126.364C352.516,126.364 351.665,126.175 350.856,125.799C350.046,125.422 349.332,124.875 348.716,124.155C348.099,123.437 347.616,122.559 347.261,121.52C346.907,120.482 346.731,119.301 346.731,117.977C346.731,116.653 346.907,115.473 347.261,114.435C347.616,113.396 348.088,112.517 348.682,111.798C349.276,111.08 349.949,110.531 350.701,110.155C351.455,109.779 352.243,109.591 353.063,109.591C353.611,109.591 354.095,109.682 354.519,109.864C354.94,110.047 355.301,110.241 355.597,110.446C355.94,110.697 356.236,110.983 356.486,111.302C356.577,110.959 356.766,110.641 357.051,110.344C357.336,110.047 357.604,109.853 357.857,109.761L358.37,109.761C358.323,110.058 358.289,110.366 358.266,110.686C358.243,110.959 358.227,111.256 358.216,111.576C358.203,111.896 358.198,112.203 358.198,112.5C358.198,112.843 358.203,113.19 358.216,113.544C358.227,113.898 358.243,114.211 358.266,114.485C358.289,114.805 358.323,115.113 358.37,115.41L357.857,115.41C357.422,113.766 356.789,112.5 355.956,111.61C355.123,110.72 354.273,110.275 353.406,110.275" style="fill:rgb(60,59,58);fill-rule:nonzero;"/>
            <path d="M353.406,110.275C352.972,110.275 352.544,110.407 352.123,110.669C351.699,110.931 351.317,111.359 350.976,111.953C350.633,112.546 350.353,113.334 350.136,114.314C349.92,115.296 349.811,116.517 349.811,117.977C349.811,119.438 349.92,120.658 350.136,121.64C350.353,122.621 350.644,123.414 351.01,124.019C351.374,124.624 351.791,125.052 352.259,125.302C352.726,125.554 353.223,125.679 353.749,125.679C354.341,125.679 354.901,125.565 355.425,125.336C355.951,125.109 356.418,124.801 356.829,124.413C357.24,124.024 357.577,123.557 357.839,123.009C358.101,122.462 358.277,121.868 358.37,121.229L358.882,121.229C358.792,121.959 358.591,122.639 358.284,123.266C357.976,123.893 357.582,124.435 357.103,124.892C356.624,125.349 356.071,125.708 355.443,125.97C354.815,126.232 354.136,126.364 353.406,126.364C352.516,126.364 351.665,126.175 350.856,125.799C350.046,125.422 349.332,124.875 348.716,124.155C348.099,123.437 347.616,122.559 347.261,121.52C346.907,120.482 346.731,119.301 346.731,117.977C346.731,116.653 346.907,115.473 347.261,114.435C347.616,113.396 348.088,112.517 348.682,111.798C349.276,111.08 349.949,110.531 350.701,110.155C351.455,109.779 352.243,109.591 353.063,109.591C353.611,109.591 354.095,109.682 354.519,109.864C354.94,110.047 355.301,110.241 355.597,110.446C355.94,110.697 356.236,110.983 356.486,111.302C356.577,110.959 356.766,110.641 357.051,110.344C357.336,110.047 357.604,109.853 357.857,109.761L358.37,109.761C358.323,110.058 358.289,110.366 358.266,110.686C358.243,110.959 358.227,111.256 358.216,111.576C358.203,111.896 358.198,112.203 358.198,112.5C358.198,112.843 358.203,113.19 358.216,113.544C358.227,113.898 358.243,114.211 358.266,114.485C358.289,114.805 358.323,115.113 358.37,115.41L357.857,115.41C357.422,113.766 356.789,112.5 355.956,111.61C355.123,110.72 354.273,110.275 353.406,110.275Z" style="fill:none;stroke:rgb(60,59,58);stroke-width:0.71px;"/>
            <path d="M365.935,120.27L365.935,124.994L367.818,125.508L367.818,125.85L361.143,125.85L361.143,125.508L363.196,124.994L363.196,102.745L361.143,102.231L361.143,101.889L365.935,101.889L365.935,119.346L371.583,111.302L369.358,110.446L369.358,110.104L374.492,110.104L374.492,110.446L372.267,111.302L368.947,116.026L374.322,124.994L376.375,125.508L376.375,125.85L369.358,125.85L369.358,125.508L371.24,124.994L367.27,118.388L365.935,120.27Z" style="fill:rgb(60,59,58);fill-rule:nonzero;stroke:rgb(60,59,58);stroke-width:0.71px;"/>
            <path d="M383.427,110.104C383.084,110.104 382.741,110.212 382.4,110.429C382.057,110.646 381.738,111.028 381.44,111.575C381.144,112.123 380.898,112.859 380.706,113.784C380.512,114.708 380.39,115.877 380.345,117.292L386.507,117.292C386.46,115.877 386.341,114.708 386.148,113.784C385.954,112.859 385.708,112.123 385.412,111.575C385.114,111.028 384.796,110.646 384.453,110.429C384.111,110.212 383.768,110.104 383.427,110.104M380.345,117.977C380.345,119.437 380.453,120.658 380.67,121.639C380.887,122.621 381.172,123.414 381.526,124.018C381.88,124.623 382.28,125.051 382.725,125.302C383.17,125.554 383.632,125.678 384.111,125.678C384.703,125.678 385.263,125.565 385.787,125.336C386.313,125.109 386.781,124.801 387.192,124.412C387.603,124.024 387.939,123.556 388.201,123.009C388.463,122.461 388.641,121.867 388.732,121.228L389.245,121.228C389.154,121.959 388.955,122.638 388.646,123.265C388.339,123.893 387.944,124.435 387.465,124.891C386.986,125.348 386.433,125.707 385.805,125.97C385.178,126.232 384.498,126.363 383.768,126.363C382.901,126.363 382.079,126.175 381.304,125.799C380.528,125.422 379.837,124.874 379.234,124.155C378.628,123.437 378.15,122.558 377.795,121.52C377.441,120.482 377.265,119.301 377.265,117.977C377.265,116.608 377.436,115.398 377.777,114.348C378.12,113.298 378.57,112.426 379.13,111.73C379.69,111.033 380.34,110.503 381.081,110.138C381.822,109.773 382.605,109.59 383.427,109.59C384.247,109.59 385.029,109.773 385.771,110.138C386.512,110.503 387.163,111.033 387.722,111.73C388.281,112.426 388.732,113.298 389.075,114.348C389.416,115.398 389.588,116.608 389.588,117.977L380.345,117.977Z" style="fill:rgb(60,59,58);fill-rule:nonzero;"/>
            <path d="M383.427,110.104C383.084,110.104 382.741,110.212 382.4,110.429C382.057,110.646 381.738,111.028 381.44,111.575C381.144,112.123 380.898,112.859 380.706,113.784C380.512,114.708 380.39,115.877 380.345,117.292L386.507,117.292C386.46,115.877 386.341,114.708 386.148,113.784C385.954,112.859 385.708,112.123 385.412,111.575C385.114,111.028 384.796,110.646 384.453,110.429C384.111,110.212 383.768,110.104 383.427,110.104ZM380.345,117.977C380.345,119.437 380.453,120.658 380.67,121.639C380.887,122.621 381.172,123.414 381.526,124.018C381.88,124.623 382.28,125.051 382.725,125.302C383.17,125.554 383.632,125.678 384.111,125.678C384.703,125.678 385.263,125.565 385.787,125.336C386.313,125.109 386.781,124.801 387.192,124.412C387.603,124.024 387.939,123.556 388.201,123.009C388.463,122.461 388.641,121.867 388.732,121.228L389.245,121.228C389.154,121.959 388.955,122.638 388.646,123.265C388.339,123.893 387.944,124.435 387.465,124.891C386.986,125.348 386.433,125.707 385.805,125.97C385.178,126.232 384.498,126.363 383.768,126.363C382.901,126.363 382.079,126.175 381.304,125.799C380.528,125.422 379.837,124.874 379.234,124.155C378.628,123.437 378.15,122.558 377.795,121.52C377.441,120.482 377.265,119.301 377.265,117.977C377.265,116.608 377.436,115.398 377.777,114.348C378.12,113.298 378.57,112.426 379.13,111.73C379.69,111.033 380.34,110.503 381.081,110.138C381.822,109.773 382.605,109.59 383.427,109.59C384.247,109.59 385.029,109.773 385.771,110.138C386.512,110.503 387.163,111.033 387.722,111.73C388.281,112.426 388.732,113.298 389.075,114.348C389.416,115.398 389.588,116.608 389.588,117.977L380.345,117.977Z" style="fill:none;stroke:rgb(60,59,58);stroke-width:0.71px;"/>
            <path d="M397.496,124.994L399.549,125.508L399.549,125.85L392.704,125.85L392.704,125.508L394.757,124.994L394.757,110.959L392.704,110.446L392.704,110.104L397.496,110.104L397.496,114.211C397.792,113.367 398.146,112.603 398.557,111.918C398.921,111.325 399.366,110.788 399.892,110.309C400.416,109.83 401.044,109.59 401.774,109.59C402.024,109.59 402.265,109.607 402.494,109.641C402.722,109.676 402.927,109.716 403.11,109.761C403.315,109.83 403.497,109.887 403.657,109.933L402.629,112.5C402.494,112.431 402.345,112.352 402.185,112.26C402.049,112.192 401.882,112.129 401.689,112.072C401.495,112.016 401.295,111.986 401.089,111.986C400.496,111.986 399.971,112.147 399.515,112.465C399.059,112.786 398.682,113.139 398.386,113.527C398.02,113.984 397.724,114.497 397.496,115.067L397.496,124.994Z" style="fill:rgb(60,59,58);fill-rule:nonzero;stroke:rgb(60,59,58);stroke-width:0.71px;"/>
            <path d="M407.114,124.994L407.114,102.744L405.061,102.231L405.061,101.889L409.853,101.889L409.853,112.158C410.081,111.702 410.389,111.279 410.777,110.891C411.097,110.572 411.506,110.275 412.01,110.001C412.511,109.727 413.105,109.59 413.789,109.59C414.474,109.59 415.108,109.716 415.689,109.967C416.271,110.218 416.779,110.566 417.213,111.011C417.646,111.456 417.983,111.992 418.222,112.62C418.462,113.248 418.581,113.949 418.581,114.725L418.581,124.994L420.636,125.508L420.636,125.85L413.961,125.85L413.961,125.508L415.844,124.994L415.844,114.725C415.844,113.104 415.587,111.958 415.072,111.284C414.559,110.612 413.961,110.275 413.276,110.275C412.705,110.275 412.215,110.435 411.804,110.754C411.393,111.074 411.039,111.427 410.743,111.815C410.4,112.272 410.104,112.786 409.853,113.356L409.853,124.994L411.736,125.508L411.736,125.85L405.061,125.85L405.061,125.508L407.114,124.994Z" style="fill:rgb(60,59,58);fill-rule:nonzero;stroke:rgb(60,59,58);stroke-width:0.71px;"/>
            <path d="M430.083,110.104C429.695,110.104 429.302,110.235 428.902,110.497C428.502,110.76 428.137,111.194 427.807,111.798C427.477,112.403 427.202,113.207 426.985,114.211C426.768,115.216 426.66,116.47 426.66,117.977C426.66,119.483 426.768,120.738 426.985,121.742C427.202,122.747 427.477,123.551 427.807,124.155C428.137,124.76 428.502,125.194 428.902,125.456C429.302,125.719 429.695,125.85 430.083,125.85C430.471,125.85 430.864,125.719 431.264,125.456C431.664,125.194 432.029,124.76 432.359,124.155C432.689,123.551 432.964,122.747 433.181,121.742C433.398,120.738 433.506,119.483 433.506,117.977C433.506,116.47 433.398,115.216 433.181,114.211C432.964,113.207 432.689,112.403 432.359,111.798C432.029,111.194 431.664,110.76 431.264,110.497C430.864,110.235 430.471,110.104 430.083,110.104M430.083,109.59C430.928,109.59 431.743,109.779 432.531,110.155C433.319,110.531 434.014,111.08 434.619,111.798C435.223,112.517 435.702,113.396 436.056,114.434C436.41,115.473 436.587,116.653 436.587,117.977C436.587,119.301 436.41,120.482 436.056,121.52C435.702,122.558 435.223,123.437 434.619,124.155C434.014,124.874 433.319,125.422 432.531,125.799C431.743,126.175 430.928,126.363 430.083,126.363C429.216,126.363 428.394,126.175 427.619,125.799C426.842,125.422 426.152,124.874 425.548,124.155C424.943,123.437 424.464,122.558 424.11,121.52C423.756,120.482 423.579,119.301 423.579,117.977C423.579,116.653 423.756,115.473 424.11,114.434C424.464,113.396 424.943,112.517 425.548,111.798C426.152,111.08 426.842,110.531 427.619,110.155C428.394,109.779 429.216,109.59 430.083,109.59" style="fill:rgb(60,59,58);fill-rule:nonzero;"/>
            <path d="M430.083,110.104C429.695,110.104 429.302,110.235 428.902,110.497C428.502,110.76 428.137,111.194 427.807,111.798C427.477,112.403 427.202,113.207 426.985,114.211C426.768,115.216 426.66,116.47 426.66,117.977C426.66,119.483 426.768,120.738 426.985,121.742C427.202,122.747 427.477,123.551 427.807,124.155C428.137,124.76 428.502,125.194 428.902,125.456C429.302,125.719 429.695,125.85 430.083,125.85C430.471,125.85 430.864,125.719 431.264,125.456C431.664,125.194 432.029,124.76 432.359,124.155C432.689,123.551 432.964,122.747 433.181,121.742C433.398,120.738 433.506,119.483 433.506,117.977C433.506,116.47 433.398,115.216 433.181,114.211C432.964,113.207 432.689,112.403 432.359,111.798C432.029,111.194 431.664,110.76 431.264,110.497C430.864,110.235 430.471,110.104 430.083,110.104ZM430.083,109.59C430.928,109.59 431.743,109.779 432.531,110.155C433.319,110.531 434.014,111.08 434.619,111.798C435.223,112.517 435.702,113.396 436.056,114.434C436.41,115.473 436.587,116.653 436.587,117.977C436.587,119.301 436.41,120.482 436.056,121.52C435.702,122.558 435.223,123.437 434.619,124.155C434.014,124.874 433.319,125.422 432.531,125.799C431.743,126.175 430.928,126.363 430.083,126.363C429.216,126.363 428.394,126.175 427.619,125.799C426.842,125.422 426.152,124.874 425.548,124.155C424.943,123.437 424.464,122.558 424.11,121.52C423.756,120.482 423.579,119.301 423.579,117.977C423.579,116.653 423.756,115.473 424.11,114.434C424.464,113.396 424.943,112.517 425.548,111.798C426.152,111.08 426.842,110.531 427.619,110.155C428.394,109.779 429.216,109.59 430.083,109.59Z" style="fill:none;stroke:rgb(60,59,58);stroke-width:0.71px;"/>
            <path d="M446.717,110.104C446.329,110.104 445.936,110.235 445.536,110.497C445.136,110.76 444.771,111.194 444.441,111.798C444.111,112.403 443.836,113.207 443.619,114.211C443.402,115.216 443.294,116.47 443.294,117.977C443.294,119.483 443.402,120.738 443.619,121.742C443.836,122.747 444.111,123.551 444.441,124.155C444.771,124.76 445.136,125.194 445.536,125.456C445.936,125.719 446.329,125.85 446.717,125.85C447.105,125.85 447.498,125.719 447.898,125.456C448.298,125.194 448.663,124.76 448.993,124.155C449.323,123.551 449.598,122.747 449.815,121.742C450.032,120.738 450.14,119.483 450.14,117.977C450.14,116.47 450.032,115.216 449.815,114.211C449.598,113.207 449.323,112.403 448.993,111.798C448.663,111.194 448.298,110.76 447.898,110.497C447.498,110.235 447.105,110.104 446.717,110.104M446.717,109.59C447.562,109.59 448.377,109.779 449.165,110.155C449.953,110.531 450.648,111.08 451.253,111.798C451.857,112.517 452.336,113.396 452.69,114.434C453.044,115.473 453.221,116.653 453.221,117.977C453.221,119.301 453.044,120.482 452.69,121.52C452.336,122.558 451.857,123.437 451.253,124.155C450.648,124.874 449.953,125.422 449.165,125.799C448.377,126.175 447.562,126.363 446.717,126.363C445.85,126.363 445.028,126.175 444.253,125.799C443.476,125.422 442.786,124.874 442.182,124.155C441.577,123.437 441.098,122.558 440.744,121.52C440.39,120.482 440.213,119.301 440.213,117.977C440.213,116.653 440.39,115.473 440.744,114.434C441.098,113.396 441.577,112.517 442.182,111.798C442.786,111.08 443.476,110.531 444.253,110.155C445.028,109.779 445.85,109.59 446.717,109.59" style="fill:rgb(60,59,58);fill-rule:nonzero;"/>
            <path d="M446.717,110.104C446.329,110.104 445.936,110.235 445.536,110.497C445.136,110.76 444.771,111.194 444.441,111.798C444.111,112.403 443.836,113.207 443.619,114.211C443.402,115.216 443.294,116.47 443.294,117.977C443.294,119.483 443.402,120.738 443.619,121.742C443.836,122.747 444.111,123.551 444.441,124.155C444.771,124.76 445.136,125.194 445.536,125.456C445.936,125.719 446.329,125.85 446.717,125.85C447.105,125.85 447.498,125.719 447.898,125.456C448.298,125.194 448.663,124.76 448.993,124.155C449.323,123.551 449.598,122.747 449.815,121.742C450.032,120.738 450.14,119.483 450.14,117.977C450.14,116.47 450.032,115.216 449.815,114.211C449.598,113.207 449.323,112.403 448.993,111.798C448.663,111.194 448.298,110.76 447.898,110.497C447.498,110.235 447.105,110.104 446.717,110.104ZM446.717,109.59C447.562,109.59 448.377,109.779 449.165,110.155C449.953,110.531 450.648,111.08 451.253,111.798C451.857,112.517 452.336,113.396 452.69,114.434C453.044,115.473 453.221,116.653 453.221,117.977C453.221,119.301 453.044,120.482 452.69,121.52C452.336,122.558 451.857,123.437 451.253,124.155C450.648,124.874 449.953,125.422 449.165,125.799C448.377,126.175 447.562,126.363 446.717,126.363C445.85,126.363 445.028,126.175 444.253,125.799C443.476,125.422 442.786,124.874 442.182,124.155C441.577,123.437 441.098,122.558 440.744,121.52C440.39,120.482 440.213,119.301 440.213,117.977C440.213,116.653 440.39,115.473 440.744,114.434C441.098,113.396 441.577,112.517 442.182,111.798C442.786,111.08 443.476,110.531 444.253,110.155C445.028,109.779 445.85,109.59 446.717,109.59Z" style="fill:none;stroke:rgb(60,59,58);stroke-width:0.71px;"/>
            <path d="M460.786,120.27L460.786,124.994L462.669,125.508L462.669,125.85L455.994,125.85L455.994,125.508L458.047,124.994L458.047,102.745L455.994,102.231L455.994,101.889L460.786,101.889L460.786,119.346L466.434,111.302L464.209,110.446L464.209,110.104L469.343,110.104L469.343,110.446L467.118,111.302L463.798,116.026L469.173,124.994L471.226,125.508L471.226,125.85L464.209,125.85L464.209,125.508L466.091,124.994L462.121,118.388L460.786,120.27Z" style="fill:rgb(60,59,58);fill-rule:nonzero;stroke:rgb(60,59,58);stroke-width:0.71px;"/>
            <path d="M486.928,110.104C486.585,110.104 486.242,110.212 485.901,110.429C485.558,110.646 485.239,111.028 484.941,111.575C484.645,112.123 484.399,112.859 484.207,113.784C484.013,114.708 483.891,115.877 483.846,117.292L490.008,117.292C489.961,115.877 489.842,114.708 489.649,113.784C489.455,112.859 489.209,112.123 488.913,111.575C488.615,111.028 488.297,110.646 487.954,110.429C487.612,110.212 487.269,110.104 486.928,110.104M483.846,117.977C483.846,119.437 483.954,120.658 484.171,121.639C484.388,122.621 484.673,123.414 485.027,124.018C485.381,124.623 485.781,125.051 486.226,125.302C486.671,125.554 487.133,125.678 487.612,125.678C488.204,125.678 488.764,125.565 489.288,125.336C489.814,125.109 490.282,124.801 490.693,124.412C491.104,124.024 491.44,123.556 491.702,123.009C491.964,122.461 492.142,121.867 492.233,121.228L492.746,121.228C492.655,121.959 492.456,122.638 492.147,123.265C491.84,123.893 491.445,124.435 490.966,124.891C490.487,125.348 489.934,125.707 489.306,125.97C488.679,126.232 487.999,126.363 487.269,126.363C486.402,126.363 485.58,126.175 484.805,125.799C484.029,125.422 483.338,124.874 482.735,124.155C482.129,123.437 481.651,122.558 481.296,121.52C480.942,120.482 480.766,119.301 480.766,117.977C480.766,116.608 480.937,115.398 481.278,114.348C481.621,113.298 482.071,112.426 482.631,111.73C483.191,111.033 483.841,110.503 484.582,110.138C485.323,109.773 486.106,109.59 486.928,109.59C487.748,109.59 488.53,109.773 489.272,110.138C490.013,110.503 490.664,111.033 491.223,111.73C491.782,112.426 492.233,113.298 492.576,114.348C492.917,115.398 493.089,116.608 493.089,117.977L483.846,117.977Z" style="fill:rgb(60,59,58);fill-rule:nonzero;"/>
            <path d="M486.928,110.104C486.585,110.104 486.242,110.212 485.901,110.429C485.558,110.646 485.239,111.028 484.941,111.575C484.645,112.123 484.399,112.859 484.207,113.784C484.013,114.708 483.891,115.877 483.846,117.292L490.008,117.292C489.961,115.877 489.842,114.708 489.649,113.784C489.455,112.859 489.209,112.123 488.913,111.575C488.615,111.028 488.297,110.646 487.954,110.429C487.612,110.212 487.269,110.104 486.928,110.104ZM483.846,117.977C483.846,119.437 483.954,120.658 484.171,121.639C484.388,122.621 484.673,123.414 485.027,124.018C485.381,124.623 485.781,125.051 486.226,125.302C486.671,125.554 487.133,125.678 487.612,125.678C488.204,125.678 488.764,125.565 489.288,125.336C489.814,125.109 490.282,124.801 490.693,124.412C491.104,124.024 491.44,123.556 491.702,123.009C491.964,122.461 492.142,121.867 492.233,121.228L492.746,121.228C492.655,121.959 492.456,122.638 492.147,123.265C491.84,123.893 491.445,124.435 490.966,124.891C490.487,125.348 489.934,125.707 489.306,125.97C488.679,126.232 487.999,126.363 487.269,126.363C486.402,126.363 485.58,126.175 484.805,125.799C484.029,125.422 483.338,124.874 482.735,124.155C482.129,123.437 481.651,122.558 481.296,121.52C480.942,120.482 480.766,119.301 480.766,117.977C480.766,116.608 480.937,115.398 481.278,114.348C481.621,113.298 482.071,112.426 482.631,111.73C483.191,111.033 483.841,110.503 484.582,110.138C485.323,109.773 486.106,109.59 486.928,109.59C487.748,109.59 488.53,109.773 489.272,110.138C490.013,110.503 490.664,111.033 491.223,111.73C491.782,112.426 492.233,113.298 492.576,114.348C492.917,115.398 493.089,116.608 493.089,117.977L483.846,117.977Z" style="fill:none;stroke:rgb(60,59,58);stroke-width:0.71px;"/>
            <path d="M496.373,124.31C496.373,123.785 496.556,123.34 496.921,122.974C497.285,122.61 497.73,122.427 498.256,122.427C498.78,122.427 499.225,122.61 499.591,122.974C499.957,123.34 500.139,123.785 500.139,124.31C500.139,124.835 499.957,125.28 499.591,125.645C499.225,126.01 498.78,126.192 498.256,126.192C497.73,126.192 497.285,126.01 496.921,125.645C496.556,125.28 496.373,124.835 496.373,124.31" style="fill:rgb(60,59,58);fill-rule:nonzero;"/>
            <path d="M496.373,124.31C496.373,123.785 496.556,123.34 496.921,122.974C497.285,122.61 497.73,122.427 498.256,122.427C498.78,122.427 499.225,122.61 499.591,122.974C499.957,123.34 500.139,123.785 500.139,124.31C500.139,124.835 499.957,125.28 499.591,125.645C499.225,126.01 498.78,126.192 498.256,126.192C497.73,126.192 497.285,126.01 496.921,125.645C496.556,125.28 496.373,124.835 496.373,124.31Z" style="fill:none;stroke:rgb(60,59,58);stroke-width:0.71px;"/>
            <path d="M498.392,102.231L498.392,101.889L505.582,101.889L505.582,102.231L503.527,102.745L509.004,120.716L513.797,103.087L511.571,102.231L511.571,101.889L516.706,101.889L516.706,102.231L514.482,103.087L508.148,126.364L507.635,126.364L500.447,102.745L498.392,102.231Z" style="fill:rgb(60,59,58);fill-rule:nonzero;stroke:rgb(60,59,58);stroke-width:0.71px;"/>
            <path d="M513.488,124.31C513.488,123.785 513.671,123.34 514.036,122.974C514.4,122.61 514.845,122.427 515.371,122.427C515.895,122.427 516.34,122.61 516.706,122.974C517.072,123.34 517.254,123.785 517.254,124.31C517.254,124.835 517.072,125.28 516.706,125.645C516.34,126.01 515.895,126.192 515.371,126.192C514.845,126.192 514.4,126.01 514.036,125.645C513.671,125.28 513.488,124.835 513.488,124.31" style="fill:rgb(60,59,58);fill-rule:nonzero;"/>
            <path d="M513.488,124.31C513.488,123.785 513.671,123.34 514.036,122.974C514.4,122.61 514.845,122.427 515.371,122.427C515.895,122.427 516.34,122.61 516.706,122.974C517.072,123.34 517.254,123.785 517.254,124.31C517.254,124.835 517.072,125.28 516.706,125.645C516.34,126.01 515.895,126.192 515.371,126.192C514.845,126.192 514.4,126.01 514.036,125.645C513.671,125.28 513.488,124.835 513.488,124.31Z" style="fill:none;stroke:rgb(60,59,58);stroke-width:0.71px;"/>
            <path d="M92.52,135.321C92.52,135.321 126.769,126.793 138.944,91.965C149.536,61.666 144.055,37.17 144.055,37.17L92.88,23.388L91.334,23.388L40.159,37.17C40.159,37.17 34.678,61.666 45.27,91.965C57.445,126.793 91.694,135.321 91.694,135.321L92.52,135.321Z" style="fill:rgb(11,141,54);fill-rule:nonzero;stroke:rgb(11,141,54);stroke-width:3.35px;"/>
            <path d="M98.52,76.319L98.52,92.766L99.924,92.766C100.833,92.766 101.675,92.593 102.451,92.245C103.226,91.898 103.902,91.376 104.477,90.68C105.052,89.985 105.506,89.129 105.841,88.113C106.175,87.097 106.343,85.907 106.343,84.543C106.343,83.178 106.175,81.989 105.841,80.973C105.506,79.957 105.052,79.101 104.477,78.405C103.902,77.71 103.226,77.188 102.451,76.84C101.675,76.493 100.833,76.319 99.924,76.319L98.52,76.319ZM98.52,75.516L99.924,75.516C101.127,75.49 102.097,75.096 102.832,74.333C103.568,73.571 103.936,72.428 103.936,70.903C103.936,69.379 103.568,68.229 102.832,67.453C102.097,66.678 101.127,66.29 99.924,66.29L98.52,66.29L98.52,75.516ZM92.703,93.569L92.703,93.167L93.412,92.566L93.412,66.49L92.703,65.888L92.703,65.487L101.622,65.487C102.878,65.487 103.968,65.628 104.891,65.908C105.814,66.189 106.582,66.578 107.198,67.072C107.813,67.567 108.274,68.142 108.582,68.797C108.889,69.453 109.043,70.155 109.043,70.903C109.043,71.492 108.956,72.013 108.783,72.467C108.608,72.922 108.381,73.317 108.1,73.651C107.819,73.985 107.499,74.279 107.138,74.534C106.777,74.788 106.409,74.995 106.034,75.155C105.152,75.557 102.451,75.811 101.328,75.918C102.986,76.078 106.155,76.493 107.439,77.161C108,77.456 108.542,77.81 109.063,78.224C109.585,78.639 110.052,79.147 110.467,79.748C110.882,80.35 111.216,81.047 111.47,81.835C111.724,82.624 111.851,83.527 111.851,84.543C111.851,85.8 111.611,86.976 111.129,88.073C110.648,89.17 109.959,90.126 109.063,90.941C108.167,91.758 107.091,92.399 105.834,92.867C104.577,93.335 101.475,93.569 99.924,93.569L92.703,93.569Z" style="fill:white;fill-rule:nonzero;"/>
            <path d="M84.061,76.319C83.152,76.319 82.31,76.493 81.534,76.84C80.759,77.188 80.083,77.71 79.508,78.405C78.933,79.101 78.479,79.957 78.144,80.973C77.81,81.989 77.642,83.178 77.642,84.543C77.642,85.907 77.81,87.097 78.144,88.113C78.479,89.129 78.933,89.985 79.508,90.68C80.083,91.376 80.759,91.898 81.534,92.245C82.31,92.593 83.152,92.766 84.061,92.766L85.465,92.766L85.465,76.319L84.061,76.319ZM85.465,66.29L84.061,66.29C82.858,66.29 81.888,66.678 81.153,67.453C80.417,68.229 80.049,69.379 80.049,70.903C80.049,72.428 80.417,73.571 81.153,74.333C81.888,75.096 82.858,75.49 84.061,75.516L85.465,75.516L85.465,66.29ZM82.788,93.569C81.237,93.569 79.833,93.335 78.575,92.867C77.319,92.399 76.242,91.758 75.346,90.941C74.45,90.126 73.761,89.17 73.28,88.073C72.799,86.976 72.558,85.8 72.558,84.543C72.558,83.527 72.685,82.624 72.939,81.835C73.194,81.047 73.528,80.35 73.942,79.748C74.357,79.147 74.824,78.639 75.346,78.224C75.868,77.81 76.409,77.456 76.971,77.161C78.255,76.493 80.999,76.078 82.657,75.918C81.534,75.811 79.258,75.557 78.375,75.155C78.001,74.995 77.633,74.788 77.272,74.534C76.911,74.279 76.59,73.985 76.309,73.651C76.028,73.317 75.801,72.922 75.627,72.467C75.453,72.013 75.366,71.492 75.366,70.903C75.366,70.155 75.521,69.453 75.827,68.797C76.135,68.142 76.597,67.567 77.212,67.072C77.827,66.578 78.596,66.189 79.518,65.908C80.441,65.628 81.531,65.487 82.788,65.487L91.282,65.487L91.282,65.888L90.573,66.49L90.573,92.566L91.282,93.167L91.282,93.569L82.788,93.569Z" style="fill:white;fill-rule:nonzero;"/>
            <path d="M106.405,41.532L78.572,41.532L73.558,30.922L85.483,35.106L92.274,29.634L100.1,35.106L110.99,30.922L106.405,41.532Z" style="fill:white;fill-rule:nonzero;"/>
            <path d="M60.795,113.635C60.839,112.086 61.694,111.112 63.112,110.684C64.24,110.344 65.415,110.286 66.571,110.113C67.067,110.039 67.553,109.906 68.044,109.799C68.047,109.752 68.05,109.704 68.054,109.657C67.999,109.655 67.945,109.65 67.89,109.652C66.769,109.706 65.655,109.615 64.548,109.444C62.689,109.156 60.911,108.627 59.328,107.57C57.731,106.504 56.614,105.076 56.105,103.204C55.866,102.326 55.862,101.469 56.351,100.661C56.705,100.075 57.238,99.682 57.83,99.381C58.647,98.966 59.537,98.779 60.442,98.664C60.735,98.627 61.029,98.601 61.38,98.563C61.113,98.306 60.896,98.1 60.68,97.891C59.316,96.571 58.031,95.182 56.952,93.611C56.311,92.677 55.729,91.72 55.463,90.601C55.222,89.589 55.281,88.645 56.095,87.891C56.865,87.179 57.747,86.946 58.697,87.393C59.268,87.663 59.731,88.076 60.147,88.543C60.824,89.303 61.397,90.138 61.848,91.046C62.412,92.181 62.957,93.328 63.462,94.49C63.814,95.302 64.084,96.149 64.422,97.062C64.482,96.799 64.521,96.612 64.568,96.426C64.862,95.251 65.252,94.118 66.059,93.18C66.701,92.434 67.501,92.021 68.507,92.149C70.021,92.342 71.119,93.2 71.871,94.466C72.067,94.797 72.231,95.147 72.38,95.495L72.381,95.496C73.41,97.524 73.657,99.905 73.724,101.482L73.724,101.492C73.785,102.362 73.806,103.234 73.789,104.108C73.786,104.295 73.79,104.482 73.791,104.668C74.408,103.393 75.016,102.131 75.866,101.077C75.866,101.077 75.866,101.076 75.867,101.075C75.867,101.075 76.216,100.433 77.054,99.949C77.055,99.934 77.056,99.918 77.057,99.903C77.127,99.885 77.196,99.862 77.264,99.837C77.452,99.744 77.659,99.659 77.89,99.591C78.113,99.518 78.351,99.476 78.622,99.52C78.62,99.527 78.618,99.534 78.616,99.542C78.724,99.556 78.833,99.579 78.941,99.61C78.961,99.603 78.981,99.597 79.001,99.59C79.01,99.605 79.021,99.621 79.033,99.637C80.252,100.033 81.461,101.454 81.423,103.368C81.423,103.377 81.422,103.385 81.421,103.393C81.451,103.806 81.425,104.225 81.334,104.649C81.163,105.448 80.949,106.239 80.733,107.029C80.261,108.751 80.266,110.441 81.047,112.082C81.209,112.421 81.394,112.748 81.574,113.092C81.534,113.094 81.496,113.106 81.463,113.096C79.241,112.438 77.185,111.419 75.286,110.106C73.964,109.192 72.681,108.213 71.438,107.194C70.428,106.365 69.478,105.458 68.547,104.54C67.621,103.627 66.74,102.668 65.862,101.708C65.27,101.062 64.712,100.384 64.15,99.711C63.708,99.181 63.282,98.638 62.848,98.101C62.844,98.218 62.876,98.315 62.926,98.401C63.306,99.044 63.655,99.709 64.078,100.322C65.034,101.705 65.992,103.088 67.016,104.42C68.108,105.841 69.339,107.147 70.641,108.381C72.202,109.861 73.866,111.213 75.709,112.331C77.72,113.55 80.923,114.764 83.302,114.742C87.346,114.705 89.584,113.608 89.584,113.608L89.584,115.811C89.584,115.811 87.469,116.434 85.105,116.66C83.493,116.814 81.135,116.722 79.548,116.393C78.306,116.136 76.921,116.006 75.667,115.826C74.398,115.644 73.136,115.727 71.915,116.22C70.501,116.791 69.056,117.266 67.531,117.462C66.248,117.627 64.976,117.638 63.724,117.274C61.974,116.765 60.742,115.524 60.795,113.635" style="fill:white;fill-rule:nonzero;"/>
            <path d="M123.143,113.635C123.099,112.086 122.244,111.112 120.826,110.684C119.698,110.344 118.523,110.286 117.367,110.113C116.871,110.039 116.385,109.906 115.894,109.799C115.891,109.752 115.888,109.704 115.884,109.657C115.939,109.655 115.993,109.65 116.048,109.652C117.169,109.706 118.283,109.615 119.39,109.444C121.249,109.156 123.027,108.627 124.61,107.57C126.207,106.504 127.324,105.076 127.833,103.204C128.072,102.326 128.076,101.469 127.587,100.661C127.233,100.075 126.7,99.682 126.108,99.381C125.291,98.966 124.401,98.779 123.496,98.664C123.203,98.627 122.909,98.601 122.558,98.563C122.825,98.306 123.042,98.1 123.258,97.891C124.622,96.571 125.907,95.182 126.986,93.611C127.627,92.677 128.209,91.72 128.475,90.601C128.716,89.589 128.657,88.645 127.843,87.891C127.073,87.179 126.191,86.946 125.241,87.393C124.67,87.663 124.207,88.076 123.791,88.543C123.114,89.303 122.541,90.138 122.09,91.046C121.526,92.181 120.981,93.328 120.476,94.49C120.124,95.302 119.854,96.149 119.516,97.062C119.456,96.799 119.417,96.612 119.37,96.426C119.076,95.251 118.686,94.118 117.879,93.18C117.237,92.434 116.437,92.021 115.431,92.149C113.917,92.342 112.819,93.2 112.067,94.466C111.871,94.797 111.707,95.147 111.558,95.495L111.557,95.496C110.528,97.524 110.281,99.905 110.214,101.482L110.214,101.492C110.153,102.362 110.132,103.234 110.149,104.108C110.152,104.295 110.148,104.482 110.147,104.668C109.53,103.393 108.922,102.131 108.072,101.077L108.072,101.075C108.072,101.075 107.722,100.433 106.884,99.949C106.883,99.934 106.882,99.918 106.881,99.903C106.811,99.885 106.742,99.862 106.674,99.837C106.486,99.744 106.279,99.659 106.048,99.591C105.825,99.518 105.587,99.476 105.316,99.52C105.318,99.527 105.32,99.534 105.322,99.542C105.214,99.556 105.105,99.579 104.997,99.61C104.977,99.603 104.957,99.597 104.937,99.59C104.928,99.605 104.917,99.621 104.905,99.637C103.686,100.033 102.477,101.454 102.515,103.368C102.515,103.377 102.516,103.385 102.517,103.393C102.487,103.806 102.513,104.225 102.604,104.649C102.775,105.448 102.989,106.239 103.205,107.029C103.677,108.751 103.672,110.441 102.891,112.082C102.729,112.421 102.544,112.748 102.364,113.092C102.404,113.094 102.442,113.106 102.475,113.096C104.697,112.438 106.753,111.419 108.652,110.106C109.974,109.192 111.257,108.213 112.5,107.194C113.51,106.365 114.46,105.458 115.391,104.54C116.317,103.627 117.198,102.668 118.076,101.708C118.668,101.062 119.226,100.384 119.788,99.711C120.23,99.181 120.656,98.638 121.09,98.101C121.094,98.218 121.062,98.315 121.012,98.401C120.632,99.044 120.283,99.709 119.86,100.322C118.904,101.705 117.946,103.088 116.922,104.42C115.83,105.841 114.599,107.147 113.297,108.381C111.736,109.861 110.072,111.213 108.229,112.331C106.218,113.55 103.015,114.764 100.636,114.742C96.592,114.705 94.354,113.608 94.354,113.608L94.354,115.811C94.354,115.811 96.469,116.434 98.833,116.66C100.445,116.814 102.803,116.722 104.39,116.393C105.632,116.136 107.017,116.006 108.271,115.826C109.54,115.644 110.803,115.727 112.023,116.22C113.437,116.791 114.882,117.266 116.407,117.462C117.69,117.627 118.962,117.638 120.214,117.274C121.964,116.765 123.196,115.524 123.143,113.635" style="fill:white;fill-rule:nonzero;"/>
            <path d="M67.096,66.839C66.777,66.773 66.553,66.577 66.393,66.336C66.449,66.063 66.632,65.434 67.168,64.901C67.28,65.036 67.415,65.168 67.577,65.287C68.453,65.929 68.677,65.899 68.791,65.784C68.905,65.669 68.152,65.285 68.076,64.699C68.055,64.536 68.074,64.401 68.116,64.289C68.205,64.254 68.297,64.22 68.396,64.192C68.597,64.133 69.104,63.948 69.826,63.672C69.756,63.923 69.742,64.204 69.729,64.495C69.714,64.823 69.699,65.162 69.605,65.494C69.396,66.228 68.341,67.095 67.096,66.839M70.843,63.28C76.107,61.234 116.257,45.274 116.257,45.274L115.13,42.44L68.108,59.901C68.108,59.901 64.34,60.948 63.18,62.419C62.02,63.891 60.8,66.273 60.8,66.273L60.774,64.74L45.263,69.827C45.263,69.827 46.115,76.608 49.24,79.404L59.838,70.446L62.162,70.471C62.162,70.471 63.248,66.648 64.312,66.632C64.887,66.624 65.44,66.579 65.829,66.539C66.041,66.912 66.361,67.243 66.852,67.383C66.893,67.395 66.935,67.405 66.978,67.414C68.476,67.722 69.863,66.734 70.169,65.655C70.283,65.257 70.3,64.866 70.315,64.521C70.337,64.025 70.361,63.713 70.552,63.555C70.618,63.5 70.734,63.404 70.843,63.28" style="fill:white;fill-rule:nonzero;"/>
            <path d="M114.61,65.494C114.516,65.162 114.501,64.823 114.486,64.495C114.473,64.204 114.459,63.923 114.389,63.672C115.111,63.948 115.618,64.133 115.819,64.191C115.918,64.22 116.01,64.254 116.099,64.289C116.141,64.401 116.16,64.536 116.139,64.699C116.063,65.285 115.31,65.669 115.424,65.784C115.538,65.899 115.762,65.929 116.638,65.287C116.8,65.168 116.935,65.036 117.047,64.901C117.583,65.434 117.766,66.063 117.822,66.336C117.662,66.577 117.438,66.773 117.119,66.839C115.874,67.095 114.819,66.228 114.61,65.494M113.663,63.555C113.854,63.713 113.878,64.025 113.9,64.521C113.915,64.866 113.932,65.257 114.046,65.654C114.352,66.734 115.739,67.722 117.237,67.414C117.28,67.405 117.322,67.395 117.363,67.383C117.854,67.243 118.174,66.912 118.386,66.539C118.775,66.579 119.328,66.624 119.903,66.632C120.966,66.648 122.053,70.47 122.053,70.47L124.377,70.445L134.975,79.404C138.1,76.608 138.952,69.827 138.952,69.827L123.441,64.74L123.415,66.273C123.415,66.273 122.195,63.891 121.035,62.419C119.875,60.948 116.107,59.901 116.107,59.901L69.085,42.44L67.958,45.274C67.958,45.274 108.108,61.234 113.372,63.28C113.481,63.404 113.597,63.5 113.663,63.555" style="fill:white;fill-rule:nonzero;"/>
            <path d="M53.549,57.466L54.384,57.675L54.384,57.814L51.532,57.814L51.532,57.675L52.367,57.466L52.367,48.635L50.976,48.635L50.976,48.426L53.549,47.87L53.549,57.466Z" style="fill:white;fill-rule:nonzero;stroke:white;stroke-width:0.3px;"/>
            <path d="M58,51.138C58,51.63 58.049,52.049 58.146,52.397C58.243,52.745 58.368,53.032 58.521,53.259C58.674,53.487 58.85,53.653 59.05,53.76C59.249,53.866 59.455,53.919 59.669,53.919C59.863,53.919 60.056,53.866 60.246,53.76C60.436,53.653 60.608,53.493 60.761,53.28C60.914,53.067 61.036,52.793 61.129,52.46C61.222,52.126 61.268,51.736 61.268,51.291C61.268,50.698 61.22,50.197 61.122,49.789C61.025,49.381 60.897,49.05 60.74,48.795C60.582,48.54 60.397,48.357 60.184,48.245C59.97,48.134 59.752,48.079 59.53,48.079C59.353,48.079 59.175,48.134 58.994,48.245C58.813,48.357 58.649,48.533 58.5,48.774C58.352,49.015 58.232,49.33 58.139,49.72C58.046,50.109 58,50.582 58,51.138M62.589,52.946C62.589,53.836 62.501,54.601 62.325,55.241C62.149,55.881 61.915,56.407 61.623,56.82C61.331,57.232 60.997,57.536 60.621,57.73C60.246,57.925 59.859,58.023 59.46,58.023C59.08,58.023 58.739,57.969 58.438,57.863C58.137,57.756 57.882,57.615 57.673,57.438C57.464,57.262 57.305,57.056 57.193,56.82C57.082,56.583 57.026,56.335 57.026,56.076C57.026,55.881 57.049,55.723 57.096,55.602C57.114,55.547 57.138,55.496 57.165,55.45L58.348,55.727C58.32,55.792 58.297,55.862 58.278,55.936C58.232,56.076 58.209,56.215 58.209,56.353C58.209,56.845 58.32,57.211 58.542,57.452C58.765,57.693 59.071,57.814 59.46,57.814C59.664,57.814 59.877,57.742 60.1,57.598C60.322,57.454 60.526,57.216 60.712,56.882C60.897,56.548 61.048,56.105 61.164,55.554C61.28,55.003 61.338,54.318 61.338,53.502L61.338,52.807C61.217,53.094 61.083,53.326 60.934,53.502C60.786,53.679 60.598,53.838 60.371,53.982C60.144,54.126 59.863,54.198 59.53,54.198C59.131,54.198 58.758,54.124 58.41,53.975C58.063,53.827 57.761,53.618 57.506,53.35C57.251,53.081 57.049,52.758 56.901,52.383C56.753,52.007 56.679,51.593 56.679,51.138C56.679,50.637 56.753,50.185 56.901,49.782C57.049,49.379 57.251,49.036 57.506,48.753C57.761,48.47 58.063,48.252 58.41,48.1C58.758,47.946 59.131,47.87 59.53,47.87C59.984,47.87 60.399,47.954 60.775,48.12C61.15,48.287 61.472,48.56 61.741,48.941C62.01,49.321 62.218,49.815 62.367,50.422C62.515,51.029 62.589,51.778 62.589,52.668L62.589,52.946Z" style="fill:white;fill-rule:nonzero;"/>
            <path d="M58,51.138C58,51.63 58.049,52.049 58.146,52.397C58.243,52.745 58.368,53.032 58.521,53.259C58.674,53.487 58.85,53.653 59.05,53.76C59.249,53.866 59.455,53.919 59.669,53.919C59.863,53.919 60.056,53.866 60.246,53.76C60.436,53.653 60.608,53.493 60.761,53.28C60.914,53.067 61.036,52.793 61.129,52.46C61.222,52.126 61.268,51.736 61.268,51.291C61.268,50.698 61.22,50.197 61.122,49.789C61.025,49.381 60.897,49.05 60.74,48.795C60.582,48.54 60.397,48.357 60.184,48.245C59.97,48.134 59.752,48.079 59.53,48.079C59.353,48.079 59.175,48.134 58.994,48.245C58.813,48.357 58.649,48.533 58.5,48.774C58.352,49.015 58.232,49.33 58.139,49.72C58.046,50.109 58,50.582 58,51.138ZM62.589,52.946C62.589,53.836 62.501,54.601 62.325,55.241C62.149,55.881 61.915,56.407 61.623,56.82C61.331,57.232 60.997,57.536 60.621,57.73C60.246,57.925 59.859,58.023 59.46,58.023C59.08,58.023 58.739,57.969 58.438,57.863C58.137,57.756 57.882,57.615 57.673,57.438C57.464,57.262 57.305,57.056 57.193,56.82C57.082,56.583 57.026,56.335 57.026,56.076C57.026,55.881 57.049,55.723 57.096,55.602C57.114,55.547 57.138,55.496 57.165,55.45L58.348,55.727C58.32,55.792 58.297,55.862 58.278,55.936C58.232,56.076 58.209,56.215 58.209,56.353C58.209,56.845 58.32,57.211 58.542,57.452C58.765,57.693 59.071,57.814 59.46,57.814C59.664,57.814 59.877,57.742 60.1,57.598C60.322,57.454 60.526,57.216 60.712,56.882C60.897,56.548 61.048,56.105 61.164,55.554C61.28,55.003 61.338,54.318 61.338,53.502L61.338,52.807C61.217,53.094 61.083,53.326 60.934,53.502C60.786,53.679 60.598,53.838 60.371,53.982C60.144,54.126 59.863,54.198 59.53,54.198C59.131,54.198 58.758,54.124 58.41,53.975C58.063,53.827 57.761,53.618 57.506,53.35C57.251,53.081 57.049,52.758 56.901,52.383C56.753,52.007 56.679,51.593 56.679,51.138C56.679,50.637 56.753,50.185 56.901,49.782C57.049,49.379 57.251,49.036 57.506,48.753C57.761,48.47 58.063,48.252 58.41,48.1C58.758,47.946 59.131,47.87 59.53,47.87C59.984,47.87 60.399,47.954 60.775,48.12C61.15,48.287 61.472,48.56 61.741,48.941C62.01,49.321 62.218,49.815 62.367,50.422C62.515,51.029 62.589,51.778 62.589,52.668L62.589,52.946Z" style="fill:none;stroke:white;stroke-width:0.3px;"/>
            <path d="M125.485,52.946C125.485,51.973 125.43,51.171 125.318,50.54C125.207,49.91 125.068,49.413 124.901,49.052C124.734,48.69 124.549,48.438 124.345,48.294C124.141,48.15 123.942,48.079 123.747,48.079C123.552,48.079 123.353,48.15 123.149,48.294C122.944,48.438 122.76,48.69 122.593,49.052C122.426,49.413 122.286,49.91 122.175,50.54C122.064,51.171 122.008,51.973 122.008,52.946C122.008,53.919 122.064,54.722 122.175,55.352C122.286,55.983 122.426,56.479 122.593,56.84C122.76,57.202 122.944,57.454 123.149,57.598C123.353,57.742 123.552,57.814 123.747,57.814C123.942,57.814 124.141,57.742 124.345,57.598C124.549,57.454 124.734,57.202 124.901,56.84C125.068,56.479 125.207,55.983 125.318,55.352C125.43,54.722 125.485,53.919 125.485,52.946M126.807,52.946C126.807,53.836 126.718,54.601 126.542,55.241C126.366,55.881 126.134,56.407 125.847,56.82C125.56,57.232 125.232,57.535 124.866,57.73C124.5,57.925 124.127,58.023 123.747,58.023C123.366,58.023 122.993,57.925 122.627,57.73C122.261,57.535 121.934,57.232 121.647,56.82C121.359,56.407 121.127,55.881 120.952,55.241C120.775,54.601 120.687,53.836 120.687,52.946C120.687,52.056 120.775,51.291 120.952,50.652C121.127,50.011 121.359,49.486 121.647,49.073C121.934,48.661 122.261,48.357 122.627,48.162C122.993,47.967 123.366,47.87 123.747,47.87C124.127,47.87 124.5,47.967 124.866,48.162C125.232,48.357 125.56,48.661 125.847,49.073C126.134,49.486 126.366,50.011 126.542,50.652C126.718,51.291 126.807,52.056 126.807,52.946" style="fill:white;fill-rule:nonzero;"/>
            <path d="M125.485,52.946C125.485,51.973 125.43,51.171 125.318,50.54C125.207,49.91 125.068,49.413 124.901,49.052C124.734,48.69 124.549,48.438 124.345,48.294C124.141,48.15 123.942,48.079 123.747,48.079C123.552,48.079 123.353,48.15 123.149,48.294C122.944,48.438 122.76,48.69 122.593,49.052C122.426,49.413 122.286,49.91 122.175,50.54C122.064,51.171 122.008,51.973 122.008,52.946C122.008,53.919 122.064,54.722 122.175,55.352C122.286,55.983 122.426,56.479 122.593,56.84C122.76,57.202 122.944,57.454 123.149,57.598C123.353,57.742 123.552,57.814 123.747,57.814C123.942,57.814 124.141,57.742 124.345,57.598C124.549,57.454 124.734,57.202 124.901,56.84C125.068,56.479 125.207,55.983 125.318,55.352C125.43,54.722 125.485,53.919 125.485,52.946ZM126.807,52.946C126.807,53.836 126.718,54.601 126.542,55.241C126.366,55.881 126.134,56.407 125.847,56.82C125.56,57.232 125.232,57.535 124.866,57.73C124.5,57.925 124.127,58.023 123.747,58.023C123.366,58.023 122.993,57.925 122.627,57.73C122.261,57.535 121.934,57.232 121.647,56.82C121.359,56.407 121.127,55.881 120.952,55.241C120.775,54.601 120.687,53.836 120.687,52.946C120.687,52.056 120.775,51.291 120.952,50.652C121.127,50.011 121.359,49.486 121.647,49.073C121.934,48.661 122.261,48.357 122.627,48.162C122.993,47.967 123.366,47.87 123.747,47.87C124.127,47.87 124.5,47.967 124.866,48.162C125.232,48.357 125.56,48.661 125.847,49.073C126.134,49.486 126.366,50.011 126.542,50.652C126.718,51.291 126.807,52.056 126.807,52.946Z" style="fill:none;stroke:white;stroke-width:0.3px;"/>
            <path d="M130.492,51.138C130.492,51.63 130.541,52.049 130.638,52.397C130.736,52.745 130.861,53.032 131.014,53.259C131.167,53.487 131.343,53.653 131.542,53.76C131.741,53.866 131.948,53.919 132.161,53.919C132.356,53.919 132.548,53.866 132.738,53.76C132.928,53.653 133.1,53.493 133.253,53.28C133.406,53.067 133.529,52.793 133.622,52.46C133.714,52.126 133.76,51.736 133.76,51.291C133.76,50.698 133.712,50.197 133.614,49.789C133.517,49.381 133.39,49.05 133.232,48.795C133.074,48.54 132.889,48.357 132.676,48.245C132.462,48.134 132.245,48.079 132.022,48.079C131.846,48.079 131.668,48.134 131.486,48.245C131.306,48.357 131.141,48.533 130.993,48.774C130.844,49.015 130.724,49.33 130.631,49.72C130.538,50.109 130.492,50.582 130.492,51.138M135.081,52.946C135.081,53.836 134.993,54.601 134.817,55.241C134.642,55.881 134.407,56.407 134.115,56.82C133.823,57.232 133.489,57.536 133.114,57.73C132.738,57.925 132.351,58.023 131.952,58.023C131.572,58.023 131.232,57.969 130.93,57.863C130.629,57.756 130.374,57.615 130.165,57.438C129.957,57.262 129.797,57.056 129.685,56.82C129.575,56.583 129.519,56.335 129.519,56.076C129.519,55.881 129.542,55.723 129.588,55.602C129.607,55.547 129.63,55.496 129.657,55.45L130.84,55.727C130.812,55.792 130.789,55.862 130.77,55.936C130.724,56.076 130.701,56.215 130.701,56.353C130.701,56.845 130.812,57.211 131.034,57.452C131.257,57.693 131.563,57.814 131.952,57.814C132.156,57.814 132.37,57.742 132.592,57.598C132.815,57.454 133.019,57.216 133.204,56.882C133.39,56.548 133.54,56.105 133.656,55.554C133.772,55.003 133.83,54.318 133.83,53.502L133.83,52.807C133.709,53.094 133.575,53.326 133.427,53.502C133.278,53.679 133.09,53.838 132.863,53.982C132.636,54.126 132.356,54.198 132.022,54.198C131.623,54.198 131.25,54.124 130.903,53.975C130.555,53.827 130.254,53.618 129.998,53.35C129.743,53.081 129.542,52.758 129.393,52.383C129.245,52.007 129.171,51.593 129.171,51.138C129.171,50.637 129.245,50.185 129.393,49.782C129.542,49.379 129.743,49.036 129.998,48.753C130.254,48.47 130.555,48.252 130.903,48.1C131.25,47.946 131.623,47.87 132.022,47.87C132.476,47.87 132.891,47.954 133.267,48.12C133.642,48.287 133.964,48.56 134.233,48.941C134.502,49.321 134.711,49.815 134.859,50.422C135.008,51.029 135.081,51.778 135.081,52.668L135.081,52.946Z" style="fill:white;fill-rule:nonzero;"/>
            <path d="M130.492,51.138C130.492,51.63 130.541,52.049 130.638,52.397C130.736,52.745 130.861,53.032 131.014,53.259C131.167,53.487 131.343,53.653 131.542,53.76C131.741,53.866 131.948,53.919 132.161,53.919C132.356,53.919 132.548,53.866 132.738,53.76C132.928,53.653 133.1,53.493 133.253,53.28C133.406,53.067 133.529,52.793 133.622,52.46C133.714,52.126 133.76,51.736 133.76,51.291C133.76,50.698 133.712,50.197 133.614,49.789C133.517,49.381 133.39,49.05 133.232,48.795C133.074,48.54 132.889,48.357 132.676,48.245C132.462,48.134 132.245,48.079 132.022,48.079C131.846,48.079 131.668,48.134 131.486,48.245C131.306,48.357 131.141,48.533 130.993,48.774C130.844,49.015 130.724,49.33 130.631,49.72C130.538,50.109 130.492,50.582 130.492,51.138ZM135.081,52.946C135.081,53.836 134.993,54.601 134.817,55.241C134.642,55.881 134.407,56.407 134.115,56.82C133.823,57.232 133.489,57.536 133.114,57.73C132.738,57.925 132.351,58.023 131.952,58.023C131.572,58.023 131.232,57.969 130.93,57.863C130.629,57.756 130.374,57.615 130.165,57.438C129.957,57.262 129.797,57.056 129.685,56.82C129.575,56.583 129.519,56.335 129.519,56.076C129.519,55.881 129.542,55.723 129.588,55.602C129.607,55.547 129.63,55.496 129.657,55.45L130.84,55.727C130.812,55.792 130.789,55.862 130.77,55.936C130.724,56.076 130.701,56.215 130.701,56.353C130.701,56.845 130.812,57.211 131.034,57.452C131.257,57.693 131.563,57.814 131.952,57.814C132.156,57.814 132.37,57.742 132.592,57.598C132.815,57.454 133.019,57.216 133.204,56.882C133.39,56.548 133.54,56.105 133.656,55.554C133.772,55.003 133.83,54.318 133.83,53.502L133.83,52.807C133.709,53.094 133.575,53.326 133.427,53.502C133.278,53.679 133.09,53.838 132.863,53.982C132.636,54.126 132.356,54.198 132.022,54.198C131.623,54.198 131.25,54.124 130.903,53.975C130.555,53.827 130.254,53.618 129.998,53.35C129.743,53.081 129.542,52.758 129.393,52.383C129.245,52.007 129.171,51.593 129.171,51.138C129.171,50.637 129.245,50.185 129.393,49.782C129.542,49.379 129.743,49.036 129.998,48.753C130.254,48.47 130.555,48.252 130.903,48.1C131.25,47.946 131.623,47.87 132.022,47.87C132.476,47.87 132.891,47.954 133.267,48.12C133.642,48.287 133.964,48.56 134.233,48.941C134.502,49.321 134.711,49.815 134.859,50.422C135.008,51.029 135.081,51.778 135.081,52.668L135.081,52.946Z" style="fill:none;stroke:white;stroke-width:0.3px;"/>
            <rect x="301.067" y="114.652" width="8.732" height="2.123" style="fill:rgb(60,59,58);"/>
        </g>
    </g>
    <g transform="matrix(0.741143,-0.358261,0.358261,0.741143,158.89,126.192)">
        <g id="Beta">
            <text x="217.724px" y="132.295px" style="font-family:'MarkerFelt-Wide', 'Marker Felt';font-weight:700;font-size:99.582px;fill:rgb(210,27,36);fill-opacity:0.84;">B<tspan x="275.581px 323.38px 369.985px " y="132.295px 132.295px 132.295px ">ETA</tspan></text>
        </g>
    </g>
</svg>
