<?xml version="1.0" encoding="UTF-8" standalone="no"?><!DOCTYPE svg PUBLIC "-//W3C//DTD SVG 1.1//EN" "http://www.w3.org/Graphics/SVG/1.1/DTD/svg11.dtd"><svg width="100%" height="100%" viewBox="0 0 550 160" version="1.1" xmlns="http://www.w3.org/2000/svg" xmlns:xlink="http://www.w3.org/1999/xlink" xml:space="preserve" xmlns:serif="http://www.serif.com/" style="fill-rule:evenodd;clip-rule:evenodd;stroke-miterlimit:10;"><g id="Laag-1" serif:id="Laag 1"><g><path d="M92.566,142.252c0,0 38.096,-9.486 51.638,-48.226c11.782,-33.702 5.686,-60.95 5.686,-60.95l-56.923,-15.329l-1.72,0l-56.924,15.329c0,0 -6.096,27.248 5.686,60.95c13.542,38.74 51.638,48.226 51.638,48.226l0.919,0Z" style="fill:#fff;fill-rule:nonzero;stroke:#3c3b3a;stroke-width:2.59px;"/><path d="M168.069,52.254c0,1.56 0.456,2.9 1.37,4.022c0.912,1.122 2.053,2.159 3.422,3.109c1.37,0.951 2.862,1.883 4.479,2.795c1.616,0.914 3.109,1.95 4.478,3.11c1.37,1.161 2.51,2.52 3.424,4.079c0.912,1.56 1.368,3.462 1.368,5.705c0,1.483 -0.266,2.872 -0.798,4.165c-0.533,1.294 -1.284,2.416 -2.254,3.366c-0.97,0.951 -2.121,1.693 -3.451,2.225c-1.332,0.532 -2.777,0.799 -4.336,0.799c-1.446,0 -2.682,-0.143 -3.708,-0.428c-1.028,-0.286 -1.884,-0.618 -2.568,-0.998c-0.798,-0.419 -1.464,-0.893 -1.996,-1.426c-0.305,0.57 -0.714,1.103 -1.227,1.596c-0.513,0.495 -1.055,0.818 -1.626,0.97l-0.856,0c0.038,-0.533 0.076,-1.102 0.115,-1.711c0.037,-0.494 0.075,-1.046 0.114,-1.655c0.037,-0.607 0.056,-1.198 0.056,-1.768c0,-0.646 -0.019,-1.284 -0.056,-1.912c-0.039,-0.627 -0.077,-1.206 -0.114,-1.74c-0.039,-0.607 -0.077,-1.198 -0.115,-1.768l0.856,0c0.874,3.157 2.139,5.562 3.793,7.217c1.656,1.655 3.909,2.481 6.762,2.481c2.282,0 4.136,-0.731 5.562,-2.196c1.426,-1.463 2.139,-3.489 2.139,-6.076c0,-1.559 -0.456,-2.9 -1.369,-4.022c-0.913,-1.122 -2.054,-2.158 -3.423,-3.109c-1.369,-0.951 -2.863,-1.883 -4.479,-2.796c-1.617,-0.912 -3.109,-1.949 -4.478,-3.109c-1.37,-1.16 -2.51,-2.519 -3.423,-4.079c-0.913,-1.56 -1.369,-3.461 -1.369,-5.705c0,-1.293 0.247,-2.511 0.742,-3.652c0.493,-1.141 1.177,-2.139 2.054,-2.995c0.874,-0.855 1.901,-1.53 3.08,-2.025c1.179,-0.494 2.453,-0.742 3.822,-0.742c1.142,0 2.149,0.153 3.024,0.456c0.874,0.305 1.616,0.628 2.225,0.97c0.685,0.419 1.312,0.895 1.883,1.426c0.304,-0.57 0.713,-1.102 1.227,-1.596c0.513,-0.495 1.055,-0.818 1.626,-0.97l0.855,0c-0.076,0.57 -0.134,1.14 -0.171,1.711c-0.038,0.533 -0.067,1.094 -0.086,1.683c-0.019,0.59 -0.028,1.17 -0.028,1.74c0,0.647 0.009,1.284 0.028,1.911c0.019,0.628 0.048,1.208 0.086,1.74c0.037,0.61 0.095,1.198 0.171,1.769l-0.855,0c-0.876,-3.157 -2.093,-5.562 -3.652,-7.217c-1.56,-1.655 -3.48,-2.482 -5.762,-2.482c-1.864,0 -3.423,0.648 -4.679,1.94c-1.254,1.294 -1.882,3.024 -1.882,5.192" style="fill:#3c3b3a;fill-rule:nonzero;"/><path d="M168.069,52.254c0,1.56 0.456,2.9 1.37,4.022c0.912,1.122 2.053,2.159 3.422,3.109c1.37,0.951 2.862,1.883 4.479,2.795c1.616,0.914 3.109,1.95 4.478,3.11c1.37,1.161 2.51,2.52 3.424,4.079c0.912,1.56 1.368,3.462 1.368,5.705c0,1.483 -0.266,2.872 -0.798,4.165c-0.533,1.294 -1.284,2.416 -2.254,3.366c-0.97,0.951 -2.121,1.693 -3.451,2.225c-1.332,0.532 -2.777,0.799 -4.336,0.799c-1.446,0 -2.682,-0.143 -3.708,-0.428c-1.028,-0.286 -1.884,-0.618 -2.568,-0.998c-0.798,-0.419 -1.464,-0.893 -1.996,-1.426c-0.305,0.57 -0.714,1.103 -1.227,1.596c-0.513,0.495 -1.055,0.818 -1.626,0.97l-0.856,0c0.038,-0.533 0.076,-1.102 0.115,-1.711c0.037,-0.494 0.075,-1.046 0.114,-1.655c0.037,-0.607 0.056,-1.198 0.056,-1.768c0,-0.646 -0.019,-1.284 -0.056,-1.912c-0.039,-0.627 -0.077,-1.206 -0.114,-1.74c-0.039,-0.607 -0.077,-1.198 -0.115,-1.768l0.856,0c0.874,3.157 2.139,5.562 3.793,7.217c1.656,1.655 3.909,2.481 6.762,2.481c2.282,0 4.136,-0.731 5.562,-2.196c1.426,-1.463 2.139,-3.489 2.139,-6.076c0,-1.559 -0.456,-2.9 -1.369,-4.022c-0.913,-1.122 -2.054,-2.158 -3.423,-3.109c-1.369,-0.951 -2.863,-1.883 -4.479,-2.796c-1.617,-0.912 -3.109,-1.949 -4.478,-3.109c-1.37,-1.16 -2.51,-2.519 -3.423,-4.079c-0.913,-1.56 -1.369,-3.461 -1.369,-5.705c0,-1.293 0.247,-2.511 0.742,-3.652c0.493,-1.141 1.177,-2.139 2.054,-2.995c0.874,-0.855 1.901,-1.53 3.08,-2.025c1.179,-0.494 2.453,-0.742 3.822,-0.742c1.142,0 2.149,0.153 3.024,0.456c0.874,0.305 1.616,0.628 2.225,0.97c0.685,0.419 1.312,0.895 1.883,1.426c0.304,-0.57 0.713,-1.102 1.227,-1.596c0.513,-0.495 1.055,-0.818 1.626,-0.97l0.855,0c-0.076,0.57 -0.134,1.14 -0.171,1.711c-0.038,0.533 -0.067,1.094 -0.086,1.683c-0.019,0.59 -0.028,1.17 -0.028,1.74c0,0.647 0.009,1.284 0.028,1.911c0.019,0.628 0.048,1.208 0.086,1.74c0.037,0.61 0.095,1.198 0.171,1.769l-0.855,0c-0.876,-3.157 -2.093,-5.562 -3.652,-7.217c-1.56,-1.655 -3.48,-2.482 -5.762,-2.482c-1.864,0 -3.423,0.648 -4.679,1.94c-1.254,1.294 -1.882,3.024 -1.882,5.192Z" style="fill:none;stroke:#3c3b3a;stroke-width:0.71px;"/><path d="M202.927,58.815c-0.722,0 -1.436,0.219 -2.139,0.656c-0.704,0.438 -1.341,1.151 -1.911,2.14c-0.571,0.989 -1.037,2.301 -1.398,3.936c-0.362,1.636 -0.542,3.671 -0.542,6.105c0,2.434 0.18,4.469 0.542,6.104c0.361,1.636 0.846,2.958 1.455,3.965c0.608,1.008 1.303,1.722 2.082,2.14c0.779,0.418 1.607,0.627 2.482,0.627c0.989,0 1.92,-0.189 2.796,-0.57c0.874,-0.38 1.654,-0.893 2.338,-1.541c0.686,-0.646 1.246,-1.426 1.684,-2.339c0.437,-0.912 0.731,-1.901 0.884,-2.966l0.856,0c-0.153,1.217 -0.486,2.349 -0.998,3.394c-0.514,1.047 -1.17,1.95 -1.969,2.71c-0.799,0.761 -1.722,1.361 -2.767,1.797c-1.047,0.437 -2.178,0.656 -3.395,0.656c-1.483,0 -2.9,-0.313 -4.25,-0.941c-1.35,-0.628 -2.539,-1.54 -3.566,-2.738c-1.026,-1.198 -1.835,-2.663 -2.424,-4.394c-0.591,-1.73 -0.884,-3.698 -0.884,-5.904c0,-2.206 0.293,-4.174 0.884,-5.905c0.589,-1.731 1.378,-3.195 2.368,-4.393c0.988,-1.198 2.11,-2.111 3.365,-2.739c1.255,-0.627 2.568,-0.941 3.937,-0.941c0.913,0 1.72,0.152 2.425,0.457c0.703,0.305 1.302,0.627 1.797,0.97c0.571,0.419 1.064,0.893 1.483,1.426c0.151,-0.571 0.465,-1.103 0.942,-1.598c0.475,-0.493 0.921,-0.817 1.34,-0.97l0.856,0c-0.077,0.495 -0.134,1.009 -0.172,1.541c-0.038,0.456 -0.066,0.951 -0.085,1.483c-0.02,0.533 -0.029,1.047 -0.029,1.54c0,0.571 0.009,1.151 0.029,1.741c0.019,0.59 0.047,1.112 0.085,1.568c0.038,0.534 0.095,1.047 0.172,1.541l-0.856,0c-0.723,-2.739 -1.778,-4.85 -3.166,-6.333c-1.389,-1.483 -2.805,-2.225 -4.251,-2.225" style="fill:#3c3b3a;fill-rule:nonzero;"/><path d="M202.927,58.815c-0.722,0 -1.436,0.219 -2.139,0.656c-0.704,0.438 -1.341,1.151 -1.911,2.14c-0.571,0.989 -1.037,2.301 -1.398,3.936c-0.362,1.636 -0.542,3.671 -0.542,6.105c0,2.434 0.18,4.469 0.542,6.104c0.361,1.636 0.846,2.958 1.455,3.965c0.608,1.008 1.303,1.722 2.082,2.14c0.779,0.418 1.607,0.627 2.482,0.627c0.989,0 1.92,-0.189 2.796,-0.57c0.874,-0.38 1.654,-0.893 2.338,-1.541c0.686,-0.646 1.246,-1.426 1.684,-2.339c0.437,-0.912 0.731,-1.901 0.884,-2.966l0.856,0c-0.153,1.217 -0.486,2.349 -0.998,3.394c-0.514,1.047 -1.17,1.95 -1.969,2.71c-0.799,0.761 -1.722,1.361 -2.767,1.797c-1.047,0.437 -2.178,0.656 -3.395,0.656c-1.483,0 -2.9,-0.313 -4.25,-0.941c-1.35,-0.628 -2.539,-1.54 -3.566,-2.738c-1.026,-1.198 -1.835,-2.663 -2.424,-4.394c-0.591,-1.73 -0.884,-3.698 -0.884,-5.904c0,-2.206 0.293,-4.174 0.884,-5.905c0.589,-1.731 1.378,-3.195 2.368,-4.393c0.988,-1.198 2.11,-2.111 3.365,-2.739c1.255,-0.627 2.568,-0.941 3.937,-0.941c0.913,0 1.72,0.152 2.425,0.457c0.703,0.305 1.302,0.627 1.797,0.97c0.571,0.419 1.064,0.893 1.483,1.426c0.151,-0.571 0.465,-1.103 0.942,-1.598c0.475,-0.493 0.921,-0.817 1.34,-0.97l0.856,0c-0.077,0.495 -0.134,1.009 -0.172,1.541c-0.038,0.456 -0.066,0.951 -0.085,1.483c-0.02,0.533 -0.029,1.047 -0.029,1.54c0,0.571 0.009,1.151 0.029,1.741c0.019,0.59 0.047,1.112 0.085,1.568c0.038,0.534 0.095,1.047 0.172,1.541l-0.856,0c-0.723,-2.739 -1.778,-4.85 -3.166,-6.333c-1.389,-1.483 -2.805,-2.225 -4.251,-2.225Z" style="fill:none;stroke:#3c3b3a;stroke-width:0.71px;"/><path d="M219.244,83.347l0,-37.084l-3.423,-0.856l0,-0.57l7.988,0l0,17.115c0.379,-0.76 0.893,-1.463 1.54,-2.11c0.532,-0.532 1.217,-1.027 2.054,-1.484c0.835,-0.456 1.826,-0.684 2.966,-0.684c1.142,0 2.197,0.21 3.166,0.627c0.97,0.419 1.816,0.999 2.54,1.741c0.722,0.741 1.283,1.635 1.682,2.681c0.4,1.046 0.6,2.216 0.6,3.509l0,17.115l3.423,0.856l0,0.57l-11.125,0l0,-0.57l3.138,-0.856l0,-17.115c0,-2.701 -0.428,-4.612 -1.284,-5.734c-0.856,-1.122 -1.854,-1.683 -2.996,-1.683c-0.951,0 -1.768,0.267 -2.452,0.799c-0.685,0.533 -1.275,1.122 -1.769,1.768c-0.571,0.761 -1.066,1.617 -1.483,2.568l0,19.397l3.138,0.856l0,0.57l-11.126,0l0,-0.57l3.423,-0.856Z" style="fill:#3c3b3a;fill-rule:nonzero;stroke:#3c3b3a;stroke-width:0.71px;"/><path d="M265.513,51.627c0,0.722 -0.295,1.379 -0.885,1.968c-0.59,0.59 -1.246,0.884 -1.968,0.884c-0.722,0 -1.379,-0.294 -1.968,-0.884c-0.59,-0.589 -0.884,-1.246 -0.884,-1.968c0,-0.722 0.294,-1.378 0.884,-1.968c0.589,-0.59 1.246,-0.885 1.968,-0.885c0.722,0 1.378,0.295 1.968,0.885c0.59,0.59 0.885,1.246 0.885,1.968m-9.414,0c0,0.722 -0.295,1.379 -0.884,1.968c-0.59,0.59 -1.246,0.884 -1.969,0.884c-0.722,0 -1.378,-0.294 -1.968,-0.884c-0.589,-0.589 -0.884,-1.246 -0.884,-1.968c0,-0.722 0.295,-1.378 0.884,-1.968c0.59,-0.59 1.246,-0.885 1.968,-0.885c0.723,0 1.379,0.295 1.969,0.885c0.589,0.59 0.884,1.246 0.884,1.968m11.41,8.33l0,23.391l3.424,0.855l0,0.571l-7.988,0l0,-3.424c-0.419,0.8 -0.951,1.522 -1.597,2.168c-0.533,0.533 -1.208,1.019 -2.026,1.455c-0.818,0.437 -1.796,0.657 -2.938,0.657c-1.14,0 -2.196,-0.21 -3.166,-0.628c-0.97,-0.418 -1.817,-0.998 -2.538,-1.74c-0.724,-0.742 -1.284,-1.635 -1.684,-2.682c-0.399,-1.045 -0.598,-2.215 -0.598,-3.508l0,-17.115l-3.424,-0.856l0,-0.571l11.125,0l0,0.571l-3.137,0.856l0,17.115c0,2.701 0.428,4.612 1.283,5.734c0.855,1.122 1.854,1.682 2.995,1.682c0.913,0 1.721,-0.265 2.425,-0.798c0.703,-0.533 1.303,-1.121 1.797,-1.769c0.571,-0.722 1.064,-1.578 1.483,-2.567l0,-19.397l-3.137,-0.856l0,-0.571l11.125,0l0,0.571l-3.424,0.856Z" style="fill:#3c3b3a;fill-rule:nonzero;"/><path d="M265.513,51.627c0,0.722 -0.295,1.379 -0.885,1.968c-0.59,0.59 -1.246,0.884 -1.968,0.884c-0.722,0 -1.379,-0.294 -1.968,-0.884c-0.59,-0.589 -0.884,-1.246 -0.884,-1.968c0,-0.722 0.294,-1.378 0.884,-1.968c0.589,-0.59 1.246,-0.885 1.968,-0.885c0.722,0 1.378,0.295 1.968,0.885c0.59,0.59 0.885,1.246 0.885,1.968Zm-9.414,0c0,0.722 -0.295,1.379 -0.884,1.968c-0.59,0.59 -1.246,0.884 -1.969,0.884c-0.722,0 -1.378,-0.294 -1.968,-0.884c-0.589,-0.589 -0.884,-1.246 -0.884,-1.968c0,-0.722 0.295,-1.378 0.884,-1.968c0.59,-0.59 1.246,-0.885 1.968,-0.885c0.723,0 1.379,0.295 1.969,0.885c0.589,0.59 0.884,1.246 0.884,1.968Zm11.41,8.33l0,23.391l3.424,0.855l0,0.571l-7.988,0l0,-3.424c-0.419,0.8 -0.951,1.522 -1.597,2.168c-0.533,0.533 -1.208,1.019 -2.026,1.455c-0.818,0.437 -1.796,0.657 -2.938,0.657c-1.14,0 -2.196,-0.21 -3.166,-0.628c-0.97,-0.418 -1.817,-0.998 -2.538,-1.74c-0.724,-0.742 -1.284,-1.635 -1.684,-2.682c-0.399,-1.045 -0.598,-2.215 -0.598,-3.508l0,-17.115l-3.424,-0.856l0,-0.571l11.125,0l0,0.571l-3.137,0.856l0,17.115c0,2.701 0.428,4.612 1.283,5.734c0.855,1.122 1.854,1.682 2.995,1.682c0.913,0 1.721,-0.265 2.425,-0.798c0.703,-0.533 1.303,-1.121 1.797,-1.769c0.571,-0.722 1.064,-1.578 1.483,-2.567l0,-19.397l-3.137,-0.856l0,-0.571l11.125,0l0,0.571l-3.424,0.856Z" style="fill:none;stroke:#3c3b3a;stroke-width:0.71px;"/><path d="M290.386,58.53l0,1.141l-6.561,0l0,18.199c0,2.321 0.418,4.003 1.255,5.049c0.836,1.047 1.749,1.569 2.738,1.569c1.293,0 2.387,-0.485 3.281,-1.455c0.894,-0.97 1.416,-2.386 1.569,-4.25l0.856,0c-0.153,2.168 -0.809,3.851 -1.968,5.049c-1.161,1.198 -2.596,1.797 -4.308,1.797c-2.435,0 -4.375,-0.713 -5.819,-2.139c-1.446,-1.427 -2.168,-3.281 -2.168,-5.563l0,-18.256l-4.85,0l0,-1.141l4.85,0l0,-6.561l4.564,-3.138l0,9.699l6.561,0Z" style="fill:#3c3b3a;fill-rule:nonzero;stroke:#3c3b3a;stroke-width:0.71px;"/><path d="M312.694,83.632c0,-1.597 0.323,-3.013 0.97,-4.25c0.646,-1.235 1.463,-2.291 2.453,-3.166l0.571,0c-0.077,0.495 -0.135,0.989 -0.172,1.483c-0.038,0.419 -0.067,0.884 -0.086,1.398c-0.019,0.513 -0.028,0.98 -0.028,1.397c0,0.648 0.009,1.227 0.028,1.741c0.019,0.513 0.048,0.96 0.086,1.34c0.037,0.419 0.095,0.819 0.172,1.198l-20.254,0l14.263,-25.102l-9.128,0c0,1.597 -0.324,3.015 -0.97,4.25c-0.647,1.237 -1.465,2.292 -2.454,3.167l-0.57,0c0.037,-0.494 0.076,-0.989 0.114,-1.484c0.037,-0.418 0.076,-0.884 0.114,-1.398c0.037,-0.513 0.058,-0.978 0.058,-1.397c0,-0.647 -0.021,-1.227 -0.058,-1.74c-0.038,-0.514 -0.077,-0.961 -0.114,-1.341c-0.038,-0.418 -0.077,-0.818 -0.114,-1.198l19.113,0l-14.263,25.102l10.269,0Z" style="fill:#3c3b3a;fill-rule:nonzero;stroke:#3c3b3a;stroke-width:0.71px;"/><path d="M332.719,58.53c-0.571,0 -1.141,0.18 -1.712,0.542c-0.57,0.362 -1.103,0.998 -1.597,1.911c-0.495,0.913 -0.904,2.139 -1.227,3.68c-0.323,1.54 -0.523,3.489 -0.599,5.847l10.269,0c-0.076,-2.358 -0.276,-4.307 -0.598,-5.847c-0.324,-1.541 -0.733,-2.767 -1.227,-3.68c-0.495,-0.913 -1.027,-1.549 -1.598,-1.911c-0.57,-0.362 -1.141,-0.542 -1.711,-0.542m-5.135,13.122c0,2.434 0.18,4.469 0.542,6.104c0.361,1.635 0.836,2.958 1.426,3.965c0.59,1.008 1.256,1.722 1.997,2.14c0.742,0.418 1.512,0.627 2.311,0.627c0.988,0 1.92,-0.19 2.794,-0.571c0.876,-0.379 1.656,-0.893 2.34,-1.54c0.684,-0.646 1.246,-1.426 1.684,-2.339c0.437,-0.913 0.731,-1.901 0.883,-2.967l0.856,0c-0.152,1.218 -0.485,2.35 -0.998,3.395c-0.513,1.046 -1.17,1.949 -1.969,2.71c-0.797,0.761 -1.721,1.36 -2.766,1.797c-1.047,0.437 -2.178,0.656 -3.395,0.656c-1.446,0 -2.815,-0.314 -4.107,-0.941c-1.294,-0.628 -2.445,-1.541 -3.452,-2.739c-1.008,-1.198 -1.807,-2.662 -2.396,-4.393c-0.591,-1.73 -0.884,-3.698 -0.884,-5.904c0,-2.282 0.284,-4.298 0.856,-6.048c0.57,-1.749 1.32,-3.204 2.252,-4.364c0.932,-1.16 2.016,-2.044 3.252,-2.653c1.236,-0.608 2.539,-0.913 3.909,-0.913c1.369,0 2.671,0.305 3.908,0.913c1.236,0.609 2.32,1.493 3.252,2.653c0.932,1.16 1.682,2.615 2.254,4.364c0.569,1.75 0.855,3.766 0.855,6.048l-15.404,0Z" style="fill:#3c3b3a;fill-rule:nonzero;"/><path d="M332.719,58.53c-0.571,0 -1.141,0.18 -1.712,0.542c-0.57,0.362 -1.103,0.998 -1.597,1.911c-0.495,0.913 -0.904,2.139 -1.227,3.68c-0.323,1.54 -0.523,3.489 -0.599,5.847l10.269,0c-0.076,-2.358 -0.276,-4.307 -0.598,-5.847c-0.324,-1.541 -0.733,-2.767 -1.227,-3.68c-0.495,-0.913 -1.027,-1.549 -1.598,-1.911c-0.57,-0.362 -1.141,-0.542 -1.711,-0.542Zm-5.135,13.122c0,2.434 0.18,4.469 0.542,6.104c0.361,1.635 0.836,2.958 1.426,3.965c0.59,1.008 1.256,1.722 1.997,2.14c0.742,0.418 1.512,0.627 2.311,0.627c0.988,0 1.92,-0.19 2.794,-0.571c0.876,-0.379 1.656,-0.893 2.34,-1.54c0.684,-0.646 1.246,-1.426 1.684,-2.339c0.437,-0.913 0.731,-1.901 0.883,-2.967l0.856,0c-0.152,1.218 -0.485,2.35 -0.998,3.395c-0.513,1.046 -1.17,1.949 -1.969,2.71c-0.797,0.761 -1.721,1.36 -2.766,1.797c-1.047,0.437 -2.178,0.656 -3.395,0.656c-1.446,0 -2.815,-0.314 -4.107,-0.941c-1.294,-0.628 -2.445,-1.541 -3.452,-2.739c-1.008,-1.198 -1.807,-2.662 -2.396,-4.393c-0.591,-1.73 -0.884,-3.698 -0.884,-5.904c0,-2.282 0.284,-4.298 0.856,-6.048c0.57,-1.749 1.32,-3.204 2.252,-4.364c0.932,-1.16 2.016,-2.044 3.252,-2.653c1.236,-0.608 2.539,-0.913 3.909,-0.913c1.369,0 2.671,0.305 3.908,0.913c1.236,0.609 2.32,1.493 3.252,2.653c0.932,1.16 1.682,2.615 2.254,4.364c0.569,1.75 0.855,3.766 0.855,6.048l-15.404,0Z" style="fill:none;stroke:#3c3b3a;stroke-width:0.71px;"/><path d="M351.601,83.347l0,-23.391l-3.423,-0.856l0,-0.57l7.987,0l0,3.422c0.38,-0.76 0.893,-1.463 1.54,-2.11c0.532,-0.532 1.217,-1.027 2.055,-1.484c0.836,-0.456 1.825,-0.684 2.965,-0.684c1.143,0 2.197,0.21 3.168,0.627c0.969,0.419 1.815,0.999 2.539,1.741c0.721,0.741 1.283,1.635 1.682,2.681c0.4,1.046 0.599,2.216 0.599,3.509l0,17.115l3.423,0.856l0,0.57l-11.124,0l0,-0.57l3.137,-0.856l0,-17.115c0,-2.701 -0.427,-4.612 -1.283,-5.734c-0.856,-1.122 -1.854,-1.683 -2.996,-1.683c-0.95,0 -1.769,0.267 -2.453,0.799c-0.684,0.533 -1.275,1.122 -1.768,1.768c-0.572,0.761 -1.065,1.617 -1.484,2.568l0,19.397l3.139,0.856l0,0.57l-11.126,0l0,-0.57l3.423,-0.856Z" style="fill:#3c3b3a;fill-rule:nonzero;stroke:#3c3b3a;stroke-width:0.71px;"/><path d="M377.617,59.956l-3.423,-0.856l0,-0.57l11.41,0l0,0.57l-3.137,0.856l7.188,18.541l5.933,-17.971l-3.708,-1.426l0,-0.57l8.559,0l0,0.57l-3.71,1.426l-8.272,25.103l-0.856,0l-9.984,-25.673Z" style="fill:#3c3b3a;fill-rule:nonzero;stroke:#3c3b3a;stroke-width:0.71px;"/><path d="M412.76,58.53c-0.569,0 -1.141,0.18 -1.712,0.542c-0.569,0.362 -1.103,0.998 -1.597,1.911c-0.495,0.913 -0.904,2.139 -1.226,3.68c-0.323,1.54 -0.524,3.489 -0.598,5.847l10.268,0c-0.076,-2.358 -0.277,-4.307 -0.599,-5.847c-0.323,-1.541 -0.732,-2.767 -1.226,-3.68c-0.495,-0.913 -1.027,-1.549 -1.598,-1.911c-0.57,-0.362 -1.141,-0.542 -1.712,-0.542m-5.133,13.122c0,2.434 0.179,4.469 0.542,6.104c0.36,1.635 0.834,2.958 1.425,3.965c0.589,1.008 1.255,1.722 1.996,2.14c0.743,0.418 1.513,0.627 2.312,0.627c0.989,0 1.919,-0.19 2.794,-0.571c0.875,-0.379 1.655,-0.893 2.34,-1.54c0.684,-0.646 1.245,-1.426 1.684,-2.339c0.437,-0.913 0.731,-1.901 0.883,-2.967l0.856,0c-0.152,1.218 -0.485,2.35 -0.998,3.395c-0.513,1.046 -1.17,1.949 -1.969,2.71c-0.798,0.761 -1.722,1.36 -2.767,1.797c-1.046,0.437 -2.177,0.656 -3.394,0.656c-1.446,0 -2.815,-0.314 -4.108,-0.941c-1.294,-0.628 -2.444,-1.541 -3.451,-2.739c-1.009,-1.198 -1.807,-2.662 -2.397,-4.393c-0.589,-1.73 -0.884,-3.698 -0.884,-5.904c0,-2.282 0.285,-4.298 0.856,-6.048c0.57,-1.749 1.32,-3.204 2.254,-4.364c0.932,-1.16 2.016,-2.044 3.252,-2.653c1.234,-0.608 2.538,-0.913 3.907,-0.913c1.37,0 2.673,0.305 3.909,0.913c1.236,0.609 2.32,1.493 3.252,2.653c0.932,1.16 1.682,2.615 2.253,4.364c0.57,1.75 0.856,3.766 0.856,6.048l-15.403,0Z" style="fill:#3c3b3a;fill-rule:nonzero;"/><path d="M412.76,58.53c-0.569,0 -1.141,0.18 -1.712,0.542c-0.569,0.362 -1.103,0.998 -1.597,1.911c-0.495,0.913 -0.904,2.139 -1.226,3.68c-0.323,1.54 -0.524,3.489 -0.598,5.847l10.268,0c-0.076,-2.358 -0.277,-4.307 -0.599,-5.847c-0.323,-1.541 -0.732,-2.767 -1.226,-3.68c-0.495,-0.913 -1.027,-1.549 -1.598,-1.911c-0.57,-0.362 -1.141,-0.542 -1.712,-0.542Zm-5.133,13.122c0,2.434 0.179,4.469 0.542,6.104c0.36,1.635 0.834,2.958 1.425,3.965c0.589,1.008 1.255,1.722 1.996,2.14c0.743,0.418 1.513,0.627 2.312,0.627c0.989,0 1.919,-0.19 2.794,-0.571c0.875,-0.379 1.655,-0.893 2.34,-1.54c0.684,-0.646 1.245,-1.426 1.684,-2.339c0.437,-0.913 0.731,-1.901 0.883,-2.967l0.856,0c-0.152,1.218 -0.485,2.35 -0.998,3.395c-0.513,1.046 -1.17,1.949 -1.969,2.71c-0.798,0.761 -1.722,1.36 -2.767,1.797c-1.046,0.437 -2.177,0.656 -3.394,0.656c-1.446,0 -2.815,-0.314 -4.108,-0.941c-1.294,-0.628 -2.444,-1.541 -3.451,-2.739c-1.009,-1.198 -1.807,-2.662 -2.397,-4.393c-0.589,-1.73 -0.884,-3.698 -0.884,-5.904c0,-2.282 0.285,-4.298 0.856,-6.048c0.57,-1.749 1.32,-3.204 2.254,-4.364c0.932,-1.16 2.016,-2.044 3.252,-2.653c1.234,-0.608 2.538,-0.913 3.907,-0.913c1.37,0 2.673,0.305 3.909,0.913c1.236,0.609 2.32,1.493 3.252,2.653c0.932,1.16 1.682,2.615 2.253,4.364c0.57,1.75 0.856,3.766 0.856,6.048l-15.403,0Z" style="fill:none;stroke:#3c3b3a;stroke-width:0.71px;"/><path d="M436.209,83.347l3.423,0.856l0,0.57l-11.41,0l0,-0.57l3.423,-0.856l0,-23.391l-3.423,-0.856l0,-0.57l7.987,0l0,6.846c0.493,-1.407 1.084,-2.682 1.768,-3.823c0.609,-0.989 1.35,-1.883 2.226,-2.681c0.874,-0.799 1.919,-1.198 3.138,-1.198c0.417,0 0.817,0.028 1.198,0.085c0.379,0.057 0.722,0.125 1.026,0.2c0.343,0.114 0.647,0.209 0.914,0.285l-1.712,4.279c-0.228,-0.114 -0.477,-0.247 -0.742,-0.399c-0.228,-0.114 -0.505,-0.218 -0.827,-0.314c-0.323,-0.095 -0.657,-0.142 -0.998,-0.142c-0.99,0 -1.864,0.266 -2.624,0.798c-0.762,0.533 -1.39,1.122 -1.883,1.768c-0.609,0.762 -1.104,1.617 -1.484,2.568l0,16.545Z" style="fill:#3c3b3a;fill-rule:nonzero;stroke:#3c3b3a;stroke-width:0.71px;"/><path d="M459.941,58.53c-0.569,0 -1.141,0.18 -1.712,0.542c-0.569,0.362 -1.103,0.998 -1.597,1.911c-0.495,0.913 -0.904,2.139 -1.226,3.68c-0.323,1.54 -0.524,3.489 -0.598,5.847l10.268,0c-0.076,-2.358 -0.277,-4.307 -0.599,-5.847c-0.323,-1.541 -0.732,-2.767 -1.226,-3.68c-0.495,-0.913 -1.027,-1.549 -1.598,-1.911c-0.57,-0.362 -1.141,-0.542 -1.712,-0.542m-5.133,13.122c0,2.434 0.179,4.469 0.542,6.104c0.36,1.635 0.834,2.958 1.425,3.965c0.589,1.008 1.255,1.722 1.996,2.14c0.743,0.418 1.513,0.627 2.312,0.627c0.989,0 1.919,-0.19 2.794,-0.571c0.876,-0.379 1.655,-0.893 2.34,-1.54c0.684,-0.646 1.245,-1.426 1.684,-2.339c0.437,-0.913 0.731,-1.901 0.883,-2.967l0.856,0c-0.152,1.218 -0.485,2.35 -0.998,3.395c-0.513,1.046 -1.17,1.949 -1.969,2.71c-0.798,0.761 -1.721,1.36 -2.767,1.797c-1.046,0.437 -2.177,0.656 -3.394,0.656c-1.446,0 -2.815,-0.314 -4.108,-0.941c-1.294,-0.628 -2.444,-1.541 -3.451,-2.739c-1.009,-1.198 -1.807,-2.662 -2.397,-4.393c-0.589,-1.73 -0.884,-3.698 -0.884,-5.904c0,-2.282 0.285,-4.298 0.856,-6.048c0.57,-1.749 1.32,-3.204 2.254,-4.364c0.932,-1.16 2.016,-2.044 3.252,-2.653c1.234,-0.608 2.538,-0.913 3.907,-0.913c1.37,0 2.673,0.305 3.909,0.913c1.236,0.609 2.32,1.493 3.252,2.653c0.932,1.16 1.682,2.615 2.253,4.364c0.57,1.75 0.856,3.766 0.856,6.048l-15.403,0Z" style="fill:#3c3b3a;fill-rule:nonzero;"/><path d="M459.941,58.53c-0.569,0 -1.141,0.18 -1.712,0.542c-0.569,0.362 -1.103,0.998 -1.597,1.911c-0.495,0.913 -0.904,2.139 -1.226,3.68c-0.323,1.54 -0.524,3.489 -0.598,5.847l10.268,0c-0.076,-2.358 -0.277,-4.307 -0.599,-5.847c-0.323,-1.541 -0.732,-2.767 -1.226,-3.68c-0.495,-0.913 -1.027,-1.549 -1.598,-1.911c-0.57,-0.362 -1.141,-0.542 -1.712,-0.542Zm-5.133,13.122c0,2.434 0.179,4.469 0.542,6.104c0.36,1.635 0.834,2.958 1.425,3.965c0.589,1.008 1.255,1.722 1.996,2.14c0.743,0.418 1.513,0.627 2.312,0.627c0.989,0 1.919,-0.19 2.794,-0.571c0.876,-0.379 1.655,-0.893 2.34,-1.54c0.684,-0.646 1.245,-1.426 1.684,-2.339c0.437,-0.913 0.731,-1.901 0.883,-2.967l0.856,0c-0.152,1.218 -0.485,2.35 -0.998,3.395c-0.513,1.046 -1.17,1.949 -1.969,2.71c-0.798,0.761 -1.721,1.36 -2.767,1.797c-1.046,0.437 -2.177,0.656 -3.394,0.656c-1.446,0 -2.815,-0.314 -4.108,-0.941c-1.294,-0.628 -2.444,-1.541 -3.451,-2.739c-1.009,-1.198 -1.807,-2.662 -2.397,-4.393c-0.589,-1.73 -0.884,-3.698 -0.884,-5.904c0,-2.282 0.285,-4.298 0.856,-6.048c0.57,-1.749 1.32,-3.204 2.254,-4.364c0.932,-1.16 2.016,-2.044 3.252,-2.653c1.234,-0.608 2.538,-0.913 3.907,-0.913c1.37,0 2.673,0.305 3.909,0.913c1.236,0.609 2.32,1.493 3.252,2.653c0.932,1.16 1.682,2.615 2.253,4.364c0.57,1.75 0.856,3.766 0.856,6.048l-15.403,0Z" style="fill:none;stroke:#3c3b3a;stroke-width:0.71px;"/><path d="M483.674,51.969c0,0.723 -0.294,1.379 -0.883,1.968c-0.591,0.591 -1.246,0.884 -1.969,0.884c-0.723,0 -1.379,-0.293 -1.968,-0.884c-0.59,-0.589 -0.885,-1.245 -0.885,-1.968c0,-0.722 0.295,-1.378 0.885,-1.968c0.589,-0.59 1.245,-0.884 1.968,-0.884c0.723,0 1.378,0.294 1.969,0.884c0.589,0.59 0.883,1.246 0.883,1.968m-4.849,31.378l0,-23.391l-3.423,-0.855l0,-0.571l7.987,0l0,24.817l3.424,0.856l0,0.571l-11.411,0l0,-0.571l3.423,-0.856Z" style="fill:#3c3b3a;fill-rule:nonzero;"/><path d="M483.674,51.969c0,0.723 -0.294,1.379 -0.883,1.968c-0.591,0.591 -1.246,0.884 -1.969,0.884c-0.723,0 -1.379,-0.293 -1.968,-0.884c-0.59,-0.589 -0.885,-1.245 -0.885,-1.968c0,-0.722 0.295,-1.378 0.885,-1.968c0.589,-0.59 1.245,-0.884 1.968,-0.884c0.723,0 1.378,0.294 1.969,0.884c0.589,0.59 0.883,1.246 0.883,1.968Zm-4.849,31.378l0,-23.391l-3.423,-0.855l0,-0.571l7.987,0l0,24.817l3.424,0.856l0,0.571l-11.411,0l0,-0.571l3.423,-0.856Z" style="fill:none;stroke:#3c3b3a;stroke-width:0.71px;"/><path d="M494.57,83.347l0,-23.391l-3.423,-0.856l0,-0.57l7.987,0l0,3.422c0.38,-0.76 0.893,-1.463 1.54,-2.11c0.532,-0.532 1.217,-1.027 2.055,-1.484c0.836,-0.456 1.825,-0.684 2.965,-0.684c1.143,0 2.197,0.21 3.168,0.627c0.969,0.419 1.815,0.999 2.539,1.741c0.721,0.741 1.283,1.635 1.682,2.681c0.4,1.046 0.599,2.216 0.599,3.509l0,17.115l3.423,0.856l0,0.57l-11.124,0l0,-0.57l3.137,-0.856l0,-17.115c0,-2.701 -0.427,-4.612 -1.283,-5.734c-0.856,-1.122 -1.854,-1.683 -2.996,-1.683c-0.95,0 -1.769,0.267 -2.453,0.799c-0.684,0.533 -1.275,1.122 -1.768,1.768c-0.572,0.761 -1.065,1.617 -1.484,2.568l0,19.397l3.139,0.856l0,0.57l-11.126,0l0,-0.57l3.423,-0.856Z" style="fill:#3c3b3a;fill-rule:nonzero;stroke:#3c3b3a;stroke-width:0.71px;"/><path d="M168.207,111.131l0,14.035l1.198,0c0.776,0 1.495,-0.148 2.157,-0.445c0.661,-0.297 1.237,-0.742 1.728,-1.336c0.491,-0.592 0.879,-1.323 1.164,-2.19c0.285,-0.867 0.428,-1.882 0.428,-3.047c0,-1.164 -0.143,-2.179 -0.428,-3.046c-0.285,-0.867 -0.673,-1.598 -1.164,-2.191c-0.491,-0.593 -1.067,-1.038 -1.728,-1.335c-0.662,-0.296 -1.381,-0.445 -2.157,-0.445l-1.198,0Zm0,-0.684l1.198,0c1.027,-0.023 1.854,-0.36 2.482,-1.011c0.628,-0.65 0.941,-1.626 0.941,-2.926c0,-1.301 -0.313,-2.282 -0.941,-2.944c-0.628,-0.662 -1.455,-0.993 -2.482,-0.993l-1.198,0l0,7.874Zm-4.964,15.403l0,-0.342l2.054,-0.514l0,-22.249l-2.054,-0.514l0,-0.342l6.162,0c1.073,0 2.003,0.12 2.79,0.359c0.787,0.24 1.443,0.57 1.968,0.993c0.525,0.422 0.918,0.913 1.181,1.472c0.262,0.559 0.394,1.158 0.394,1.797c0,0.502 -0.074,0.947 -0.222,1.335c-0.149,0.388 -0.343,0.725 -0.583,1.01c-0.239,0.285 -0.513,0.536 -0.821,0.753c-0.308,0.217 -0.622,0.394 -0.941,0.53c-0.754,0.343 -1.609,0.559 -2.568,0.651c1.415,0.137 2.67,0.491 3.766,1.061c0.479,0.251 0.941,0.553 1.386,0.907c0.445,0.354 0.844,0.787 1.198,1.301c0.354,0.513 0.638,1.107 0.856,1.779c0.217,0.674 0.325,1.444 0.325,2.311c0,1.073 -0.205,2.077 -0.616,3.013c-0.411,0.936 -0.998,1.751 -1.763,2.447c-0.765,0.696 -1.683,1.244 -2.756,1.643c-1.073,0.399 -2.271,0.599 -3.594,0.599l-6.162,0Z" style="fill:#3c3b3a;fill-rule:nonzero;stroke:#3c3b3a;stroke-width:0.71px;"/><path d="M193.572,110.959l0,14.035l2.054,0.514l0,0.342l-4.793,0l0,-2.054c-0.251,0.479 -0.57,0.913 -0.958,1.301c-0.32,0.319 -0.725,0.61 -1.216,0.872c-0.491,0.263 -1.078,0.394 -1.762,0.394c-0.685,0 -1.318,-0.126 -1.9,-0.377c-0.582,-0.25 -1.09,-0.598 -1.524,-1.043c-0.433,-0.445 -0.77,-0.981 -1.009,-1.609c-0.24,-0.628 -0.359,-1.329 -0.359,-2.106l0,-10.269l-2.054,-0.513l0,-0.342l6.674,0l0,0.342l-1.882,0.513l0,10.269c0,1.621 0.256,2.768 0.77,3.441c0.514,0.674 1.112,1.009 1.797,1.009c0.548,0 1.033,-0.159 1.455,-0.479c0.422,-0.319 0.781,-0.673 1.078,-1.061c0.342,-0.433 0.639,-0.946 0.89,-1.54l0,-11.639l-1.882,-0.513l0,-0.342l6.675,0l0,0.342l-2.054,0.513Z" style="fill:#3c3b3a;fill-rule:nonzero;stroke:#3c3b3a;stroke-width:0.71px;"/><path d="M207.299,110.104l0,0.684l-3.937,0l0,10.92c0,1.392 0.251,2.402 0.753,3.03c0.502,0.627 1.05,0.94 1.643,0.94c0.776,0 1.432,-0.29 1.969,-0.873c0.535,-0.581 0.849,-1.431 0.941,-2.549l0.513,0c-0.091,1.3 -0.485,2.31 -1.181,3.029c-0.696,0.719 -1.557,1.078 -2.584,1.078c-1.46,0 -2.624,-0.427 -3.492,-1.283c-0.867,-0.856 -1.3,-1.968 -1.3,-3.338l0,-10.954l-2.91,0l0,-0.684l2.91,0l0,-3.937l2.738,-1.882l0,5.819l3.937,0Z" style="fill:#3c3b3a;fill-rule:nonzero;stroke:#3c3b3a;stroke-width:0.71px;"/><path d="M217.431,110.104c-0.342,0 -0.684,0.108 -1.027,0.325c-0.342,0.217 -0.662,0.599 -0.958,1.146c-0.297,0.548 -0.543,1.284 -0.736,2.209c-0.194,0.924 -0.314,2.093 -0.359,3.508l6.161,0c-0.046,-1.415 -0.166,-2.584 -0.36,-3.508c-0.194,-0.925 -0.439,-1.661 -0.736,-2.209c-0.296,-0.547 -0.615,-0.929 -0.958,-1.146c-0.343,-0.217 -0.685,-0.325 -1.027,-0.325m-3.08,7.873c0,1.46 0.107,2.681 0.325,3.662c0.216,0.982 0.501,1.775 0.856,2.379c0.353,0.605 0.753,1.033 1.198,1.284c0.445,0.252 0.906,0.376 1.385,0.376c0.594,0 1.153,-0.113 1.678,-0.342c0.525,-0.227 0.993,-0.535 1.404,-0.924c0.41,-0.388 0.747,-0.856 1.009,-1.403c0.262,-0.548 0.439,-1.142 0.531,-1.781l0.513,0c-0.091,0.731 -0.291,1.41 -0.599,2.037c-0.307,0.628 -0.701,1.17 -1.181,1.626c-0.479,0.457 -1.032,0.816 -1.66,1.079c-0.628,0.262 -1.306,0.393 -2.037,0.393c-0.867,0 -1.689,-0.188 -2.464,-0.564c-0.776,-0.377 -1.466,-0.925 -2.071,-1.644c-0.605,-0.718 -1.084,-1.597 -1.438,-2.635c-0.354,-1.038 -0.531,-2.219 -0.531,-3.543c0,-1.369 0.172,-2.579 0.514,-3.629c0.342,-1.05 0.793,-1.922 1.352,-2.618c0.559,-0.697 1.209,-1.227 1.951,-1.592c0.742,-0.365 1.524,-0.548 2.345,-0.548c0.822,0 1.603,0.183 2.345,0.548c0.741,0.365 1.391,0.895 1.951,1.592c0.559,0.696 1.01,1.568 1.352,2.618c0.342,1.05 0.514,2.26 0.514,3.629l-9.242,0Z" style="fill:#3c3b3a;fill-rule:nonzero;"/><path d="M217.431,110.104c-0.342,0 -0.684,0.108 -1.027,0.325c-0.342,0.217 -0.662,0.599 -0.958,1.146c-0.297,0.548 -0.543,1.284 -0.736,2.209c-0.194,0.924 -0.314,2.093 -0.359,3.508l6.161,0c-0.046,-1.415 -0.166,-2.584 -0.36,-3.508c-0.194,-0.925 -0.439,-1.661 -0.736,-2.209c-0.296,-0.547 -0.615,-0.929 -0.958,-1.146c-0.343,-0.217 -0.685,-0.325 -1.027,-0.325Zm-3.08,7.873c0,1.46 0.107,2.681 0.325,3.662c0.216,0.982 0.501,1.775 0.856,2.379c0.353,0.605 0.753,1.033 1.198,1.284c0.445,0.252 0.906,0.376 1.385,0.376c0.594,0 1.153,-0.113 1.678,-0.342c0.525,-0.227 0.993,-0.535 1.404,-0.924c0.41,-0.388 0.747,-0.856 1.009,-1.403c0.262,-0.548 0.439,-1.142 0.531,-1.781l0.513,0c-0.091,0.731 -0.291,1.41 -0.599,2.037c-0.307,0.628 -0.701,1.17 -1.181,1.626c-0.479,0.457 -1.032,0.816 -1.66,1.079c-0.628,0.262 -1.306,0.393 -2.037,0.393c-0.867,0 -1.689,-0.188 -2.464,-0.564c-0.776,-0.377 -1.466,-0.925 -2.071,-1.644c-0.605,-0.718 -1.084,-1.597 -1.438,-2.635c-0.354,-1.038 -0.531,-2.219 -0.531,-3.543c0,-1.369 0.172,-2.579 0.514,-3.629c0.342,-1.05 0.793,-1.922 1.352,-2.618c0.559,-0.697 1.209,-1.227 1.951,-1.592c0.742,-0.365 1.524,-0.548 2.345,-0.548c0.822,0 1.603,0.183 2.345,0.548c0.741,0.365 1.391,0.895 1.951,1.592c0.559,0.696 1.01,1.568 1.352,2.618c0.342,1.05 0.514,2.26 0.514,3.629l-9.242,0Z" style="fill:none;stroke:#3c3b3a;stroke-width:0.71px;"/><path d="M231.499,124.994l2.054,0.514l0,0.342l-6.846,0l0,-0.342l2.054,-0.514l0,-14.035l-2.054,-0.513l0,-0.342l4.792,0l0,4.107c0.297,-0.844 0.65,-1.608 1.061,-2.293c0.365,-0.593 0.81,-1.13 1.335,-1.609c0.525,-0.479 1.153,-0.719 1.883,-0.719c0.251,0 0.49,0.017 0.719,0.051c0.228,0.035 0.433,0.075 0.616,0.12c0.205,0.069 0.388,0.126 0.548,0.172l-1.027,2.567c-0.137,-0.069 -0.285,-0.148 -0.445,-0.24c-0.137,-0.068 -0.303,-0.131 -0.497,-0.188c-0.194,-0.056 -0.393,-0.086 -0.598,-0.086c-0.594,0 -1.119,0.161 -1.575,0.479c-0.457,0.321 -0.833,0.674 -1.129,1.062c-0.366,0.457 -0.663,0.97 -0.891,1.54l0,9.927Z" style="fill:#3c3b3a;fill-rule:nonzero;stroke:#3c3b3a;stroke-width:0.71px;"/><path d="M241.118,124.994l0,-22.25l-2.054,-0.513l0,-0.342l4.793,0l0,23.105l2.054,0.514l0,0.342l-6.847,0l0,-0.342l2.054,-0.514Z" style="fill:#3c3b3a;fill-rule:nonzero;stroke:#3c3b3a;stroke-width:0.71px;"/><path d="M257.583,117.464c-1.985,0 -3.452,0.439 -4.399,1.318c-0.947,0.878 -1.42,2.093 -1.42,3.645c0,1.027 0.25,1.826 0.753,2.397c0.501,0.57 1.049,0.855 1.643,0.855c0.547,0 1.032,-0.16 1.455,-0.479c0.421,-0.32 0.781,-0.673 1.078,-1.062c0.342,-0.432 0.638,-0.946 0.89,-1.54l0,-5.134Zm-2.568,-7.36c-0.684,0 -1.255,0.234 -1.711,0.702c-0.456,0.468 -0.685,1.09 -0.685,1.865c0,0.183 0.006,0.342 0.017,0.48c0.012,0.136 0.029,0.262 0.052,0.376c0.022,0.115 0.057,0.228 0.103,0.342l-2.739,0.685c-0.046,-0.068 -0.08,-0.159 -0.103,-0.274c-0.023,-0.114 -0.04,-0.239 -0.051,-0.376c-0.012,-0.138 -0.017,-0.32 -0.017,-0.548c0,-0.479 0.114,-0.941 0.342,-1.386c0.228,-0.445 0.565,-0.845 1.01,-1.198c0.445,-0.354 0.981,-0.639 1.609,-0.856c0.628,-0.217 1.352,-0.325 2.173,-0.325c1.643,0 2.938,0.467 3.886,1.403c0.946,0.936 1.42,2.179 1.42,3.731l0,10.269l2.054,0.514l0,0.342l-4.792,0l0,-2.054c-0.252,0.479 -0.571,0.914 -0.959,1.301c-0.319,0.32 -0.724,0.611 -1.215,0.873c-0.491,0.262 -1.078,0.394 -1.762,0.394c-1.644,0 -2.882,-0.388 -3.715,-1.164c-0.833,-0.776 -1.249,-1.815 -1.249,-3.115c0,-0.639 0.176,-1.278 0.531,-1.917c0.353,-0.639 0.89,-1.209 1.608,-1.711c0.719,-0.503 1.637,-0.908 2.756,-1.216c1.118,-0.308 2.453,-0.462 4.005,-0.462l0,-2.054c0,-1.712 -0.256,-2.91 -0.77,-3.594c-0.514,-0.684 -1.113,-1.027 -1.798,-1.027" style="fill:#3c3b3a;fill-rule:nonzero;"/><path d="M257.583,117.464c-1.985,0 -3.452,0.439 -4.399,1.318c-0.947,0.878 -1.42,2.093 -1.42,3.645c0,1.027 0.25,1.826 0.753,2.397c0.501,0.57 1.049,0.855 1.643,0.855c0.547,0 1.032,-0.16 1.455,-0.479c0.421,-0.32 0.781,-0.673 1.078,-1.062c0.342,-0.432 0.638,-0.946 0.89,-1.54l0,-5.134Zm-2.568,-7.36c-0.684,0 -1.255,0.234 -1.711,0.702c-0.456,0.468 -0.685,1.09 -0.685,1.865c0,0.183 0.006,0.342 0.017,0.48c0.012,0.136 0.029,0.262 0.052,0.376c0.022,0.115 0.057,0.228 0.103,0.342l-2.739,0.685c-0.046,-0.068 -0.08,-0.159 -0.103,-0.274c-0.023,-0.114 -0.04,-0.239 -0.051,-0.376c-0.012,-0.138 -0.017,-0.32 -0.017,-0.548c0,-0.479 0.114,-0.941 0.342,-1.386c0.228,-0.445 0.565,-0.845 1.01,-1.198c0.445,-0.354 0.981,-0.639 1.609,-0.856c0.628,-0.217 1.352,-0.325 2.173,-0.325c1.643,0 2.938,0.467 3.886,1.403c0.946,0.936 1.42,2.179 1.42,3.731l0,10.269l2.054,0.514l0,0.342l-4.792,0l0,-2.054c-0.252,0.479 -0.571,0.914 -0.959,1.301c-0.319,0.32 -0.724,0.611 -1.215,0.873c-0.491,0.262 -1.078,0.394 -1.762,0.394c-1.644,0 -2.882,-0.388 -3.715,-1.164c-0.833,-0.776 -1.249,-1.815 -1.249,-3.115c0,-0.639 0.176,-1.278 0.531,-1.917c0.353,-0.639 0.89,-1.209 1.608,-1.711c0.719,-0.503 1.637,-0.908 2.756,-1.216c1.118,-0.308 2.453,-0.462 4.005,-0.462l0,-2.054c0,-1.712 -0.256,-2.91 -0.77,-3.594c-0.514,-0.684 -1.113,-1.027 -1.798,-1.027Z" style="fill:none;stroke:#3c3b3a;stroke-width:0.71px;"/><path d="M267.03,124.994l0,-14.035l-2.054,-0.513l0,-0.342l4.792,0l0,2.054c0.228,-0.456 0.537,-0.879 0.925,-1.267c0.319,-0.319 0.729,-0.616 1.232,-0.89c0.501,-0.274 1.095,-0.411 1.78,-0.411c0.685,0 1.318,0.126 1.9,0.377c0.582,0.251 1.089,0.599 1.523,1.044c0.433,0.445 0.77,0.981 1.01,1.609c0.24,0.628 0.359,1.329 0.359,2.105l0,10.269l2.054,0.514l0,0.342l-6.675,0l0,-0.342l1.883,-0.514l0,-10.269c0,-1.621 -0.257,-2.767 -0.77,-3.441c-0.514,-0.672 -1.113,-1.009 -1.797,-1.009c-0.571,0 -1.062,0.16 -1.473,0.479c-0.41,0.32 -0.764,0.673 -1.06,1.061c-0.343,0.457 -0.64,0.971 -0.891,1.541l0,11.638l1.883,0.514l0,0.342l-6.675,0l0,-0.342l2.054,-0.514Z" style="fill:#3c3b3a;fill-rule:nonzero;stroke:#3c3b3a;stroke-width:0.71px;"/><path d="M290.17,110.275c-0.48,0 -0.942,0.132 -1.387,0.394c-0.444,0.262 -0.844,0.69 -1.198,1.284c-0.354,0.593 -0.639,1.381 -0.855,2.361c-0.217,0.982 -0.326,2.203 -0.326,3.663c0,1.461 0.109,2.681 0.326,3.663c0.216,0.981 0.49,1.774 0.822,2.379c0.33,0.605 0.695,1.033 1.095,1.283c0.399,0.252 0.793,0.377 1.181,0.377c0.547,0 1.032,-0.16 1.454,-0.479c0.423,-0.32 0.782,-0.673 1.079,-1.062c0.342,-0.432 0.639,-0.946 0.889,-1.54l0,-10.269c-0.228,-0.388 -0.491,-0.73 -0.787,-1.027c-0.251,-0.251 -0.564,-0.484 -0.941,-0.702c-0.376,-0.217 -0.827,-0.325 -1.352,-0.325m5.819,14.719l2.054,0.514l0,0.342l-4.793,0l0,-2.054c-0.25,0.479 -0.57,0.914 -0.957,1.301c-0.321,0.32 -0.725,0.611 -1.216,0.873c-0.491,0.262 -1.078,0.394 -1.763,0.394c-0.73,0 -1.454,-0.189 -2.173,-0.565c-0.72,-0.377 -1.359,-0.924 -1.918,-1.644c-0.559,-0.718 -1.015,-1.596 -1.368,-2.635c-0.355,-1.038 -0.531,-2.219 -0.531,-3.543c0,-1.324 0.176,-2.504 0.531,-3.542c0.353,-1.039 0.826,-1.918 1.42,-2.637c0.593,-0.718 1.266,-1.267 2.019,-1.643c0.753,-0.376 1.541,-0.564 2.362,-0.564c0.639,0 1.187,0.091 1.643,0.273c0.457,0.183 0.833,0.377 1.13,0.582c0.343,0.251 0.616,0.537 0.821,0.856l0,-8.557l-2.053,-0.514l0,-0.342l4.792,0l0,23.105Z" style="fill:#3c3b3a;fill-rule:nonzero;"/><path d="M290.17,110.275c-0.48,0 -0.942,0.132 -1.387,0.394c-0.444,0.262 -0.844,0.69 -1.198,1.284c-0.354,0.593 -0.639,1.381 -0.855,2.361c-0.217,0.982 -0.326,2.203 -0.326,3.663c0,1.461 0.109,2.681 0.326,3.663c0.216,0.981 0.49,1.774 0.822,2.379c0.33,0.605 0.695,1.033 1.095,1.283c0.399,0.252 0.793,0.377 1.181,0.377c0.547,0 1.032,-0.16 1.454,-0.479c0.423,-0.32 0.782,-0.673 1.079,-1.062c0.342,-0.432 0.639,-0.946 0.889,-1.54l0,-10.269c-0.228,-0.388 -0.491,-0.73 -0.787,-1.027c-0.251,-0.251 -0.564,-0.484 -0.941,-0.702c-0.376,-0.217 -0.827,-0.325 -1.352,-0.325Zm5.819,14.719l2.054,0.514l0,0.342l-4.793,0l0,-2.054c-0.25,0.479 -0.57,0.914 -0.957,1.301c-0.321,0.32 -0.725,0.611 -1.216,0.873c-0.491,0.262 -1.078,0.394 -1.763,0.394c-0.73,0 -1.454,-0.189 -2.173,-0.565c-0.72,-0.377 -1.359,-0.924 -1.918,-1.644c-0.559,-0.718 -1.015,-1.596 -1.368,-2.635c-0.355,-1.038 -0.531,-2.219 -0.531,-3.543c0,-1.324 0.176,-2.504 0.531,-3.542c0.353,-1.039 0.826,-1.918 1.42,-2.637c0.593,-0.718 1.266,-1.267 2.019,-1.643c0.753,-0.376 1.541,-0.564 2.362,-0.564c0.639,0 1.187,0.091 1.643,0.273c0.457,0.183 0.833,0.377 1.13,0.582c0.343,0.251 0.616,0.537 0.821,0.856l0,-8.557l-2.053,-0.514l0,-0.342l4.792,0l0,23.105Z" style="fill:none;stroke:#3c3b3a;stroke-width:0.71px;"/><path d="M318.08,111.131l0,14.035l1.198,0c0.776,0 1.495,-0.148 2.157,-0.445c0.661,-0.297 1.237,-0.742 1.728,-1.336c0.491,-0.592 0.879,-1.323 1.164,-2.19c0.285,-0.867 0.428,-1.882 0.428,-3.047c0,-1.164 -0.143,-2.179 -0.428,-3.046c-0.285,-0.867 -0.673,-1.598 -1.164,-2.191c-0.491,-0.593 -1.067,-1.038 -1.728,-1.335c-0.662,-0.296 -1.381,-0.445 -2.157,-0.445l-1.198,0Zm0,-0.684l1.198,0c1.027,-0.023 1.854,-0.36 2.482,-1.011c0.628,-0.65 0.941,-1.626 0.941,-2.926c0,-1.301 -0.313,-2.282 -0.941,-2.944c-0.628,-0.662 -1.455,-0.993 -2.482,-0.993l-1.198,0l0,7.874Zm-4.964,15.403l0,-0.342l2.054,-0.514l0,-22.249l-2.054,-0.514l0,-0.342l6.162,0c1.073,0 2.003,0.12 2.79,0.359c0.787,0.24 1.443,0.57 1.968,0.993c0.525,0.422 0.918,0.913 1.181,1.472c0.262,0.559 0.394,1.158 0.394,1.797c0,0.502 -0.074,0.947 -0.222,1.335c-0.149,0.388 -0.343,0.725 -0.583,1.01c-0.239,0.285 -0.513,0.536 -0.821,0.753c-0.308,0.217 -0.622,0.394 -0.941,0.53c-0.754,0.343 -1.609,0.559 -2.568,0.651c1.415,0.137 2.67,0.491 3.766,1.061c0.479,0.251 0.941,0.553 1.386,0.907c0.445,0.354 0.844,0.787 1.198,1.301c0.354,0.513 0.638,1.107 0.856,1.779c0.217,0.674 0.325,1.444 0.325,2.311c0,1.073 -0.205,2.077 -0.616,3.013c-0.411,0.936 -0.998,1.751 -1.763,2.447c-0.765,0.696 -1.683,1.244 -2.756,1.643c-1.073,0.399 -2.271,0.599 -3.594,0.599l-6.162,0Z" style="fill:#3c3b3a;fill-rule:nonzero;stroke:#3c3b3a;stroke-width:0.71px;"/><path d="M337.112,110.104c-0.342,0 -0.684,0.108 -1.027,0.325c-0.342,0.217 -0.662,0.599 -0.958,1.146c-0.297,0.548 -0.543,1.284 -0.736,2.209c-0.194,0.924 -0.314,2.093 -0.359,3.508l6.162,0c-0.047,-1.415 -0.167,-2.584 -0.361,-3.508c-0.194,-0.925 -0.438,-1.661 -0.736,-2.209c-0.296,-0.547 -0.615,-0.929 -0.958,-1.146c-0.343,-0.217 -0.685,-0.325 -1.027,-0.325m-3.08,7.873c0,1.46 0.107,2.681 0.325,3.662c0.216,0.982 0.501,1.775 0.856,2.379c0.353,0.605 0.753,1.033 1.198,1.284c0.445,0.252 0.906,0.376 1.385,0.376c0.594,0 1.153,-0.113 1.678,-0.342c0.526,-0.227 0.992,-0.535 1.403,-0.924c0.411,-0.388 0.747,-0.856 1.009,-1.403c0.262,-0.548 0.44,-1.142 0.531,-1.781l0.514,0c-0.09,0.731 -0.291,1.41 -0.598,2.037c-0.308,0.628 -0.702,1.17 -1.181,1.626c-0.479,0.457 -1.032,0.816 -1.66,1.079c-0.629,0.262 -1.307,0.393 -2.038,0.393c-0.867,0 -1.689,-0.188 -2.464,-0.564c-0.776,-0.377 -1.466,-0.925 -2.071,-1.644c-0.605,-0.718 -1.084,-1.597 -1.438,-2.635c-0.354,-1.038 -0.531,-2.219 -0.531,-3.543c0,-1.369 0.172,-2.579 0.514,-3.629c0.342,-1.05 0.793,-1.922 1.352,-2.618c0.559,-0.697 1.209,-1.227 1.951,-1.592c0.742,-0.365 1.524,-0.548 2.345,-0.548c0.822,0 1.603,0.183 2.344,0.548c0.741,0.365 1.392,0.895 1.951,1.592c0.56,0.696 1.01,1.568 1.353,2.618c0.343,1.05 0.514,2.26 0.514,3.629l-9.242,0Z" style="fill:#3c3b3a;fill-rule:nonzero;"/><path d="M337.112,110.104c-0.342,0 -0.684,0.108 -1.027,0.325c-0.342,0.217 -0.662,0.599 -0.958,1.146c-0.297,0.548 -0.543,1.284 -0.736,2.209c-0.194,0.924 -0.314,2.093 -0.359,3.508l6.162,0c-0.047,-1.415 -0.167,-2.584 -0.361,-3.508c-0.194,-0.925 -0.438,-1.661 -0.736,-2.209c-0.296,-0.547 -0.615,-0.929 -0.958,-1.146c-0.343,-0.217 -0.685,-0.325 -1.027,-0.325Zm-3.08,7.873c0,1.46 0.107,2.681 0.325,3.662c0.216,0.982 0.501,1.775 0.856,2.379c0.353,0.605 0.753,1.033 1.198,1.284c0.445,0.252 0.906,0.376 1.385,0.376c0.594,0 1.153,-0.113 1.678,-0.342c0.526,-0.227 0.992,-0.535 1.403,-0.924c0.411,-0.388 0.747,-0.856 1.009,-1.403c0.262,-0.548 0.44,-1.142 0.531,-1.781l0.514,0c-0.09,0.731 -0.291,1.41 -0.598,2.037c-0.308,0.628 -0.702,1.17 -1.181,1.626c-0.479,0.457 -1.032,0.816 -1.66,1.079c-0.629,0.262 -1.307,0.393 -2.038,0.393c-0.867,0 -1.689,-0.188 -2.464,-0.564c-0.776,-0.377 -1.466,-0.925 -2.071,-1.644c-0.605,-0.718 -1.084,-1.597 -1.438,-2.635c-0.354,-1.038 -0.531,-2.219 -0.531,-3.543c0,-1.369 0.172,-2.579 0.514,-3.629c0.342,-1.05 0.793,-1.922 1.352,-2.618c0.559,-0.697 1.209,-1.227 1.951,-1.592c0.742,-0.365 1.524,-0.548 2.345,-0.548c0.822,0 1.603,0.183 2.344,0.548c0.741,0.365 1.392,0.895 1.951,1.592c0.56,0.696 1.01,1.568 1.353,2.618c0.343,1.05 0.514,2.26 0.514,3.629l-9.242,0Z" style="fill:none;stroke:#3c3b3a;stroke-width:0.71px;"/><path d="M353.406,110.275c-0.434,0 -0.862,0.132 -1.283,0.394c-0.424,0.262 -0.806,0.69 -1.147,1.284c-0.343,0.593 -0.623,1.381 -0.84,2.361c-0.216,0.982 -0.325,2.203 -0.325,3.663c0,1.461 0.109,2.681 0.325,3.663c0.217,0.981 0.508,1.774 0.874,2.379c0.364,0.605 0.781,1.033 1.249,1.283c0.467,0.252 0.964,0.377 1.49,0.377c0.592,0 1.152,-0.114 1.676,-0.343c0.526,-0.227 0.993,-0.535 1.404,-0.923c0.411,-0.389 0.748,-0.856 1.01,-1.404c0.262,-0.547 0.438,-1.141 0.531,-1.78l0.512,0c-0.09,0.73 -0.291,1.41 -0.598,2.037c-0.308,0.627 -0.702,1.169 -1.181,1.626c-0.479,0.457 -1.032,0.816 -1.66,1.078c-0.628,0.262 -1.307,0.394 -2.037,0.394c-0.89,0 -1.741,-0.189 -2.55,-0.565c-0.81,-0.377 -1.524,-0.924 -2.14,-1.644c-0.617,-0.718 -1.1,-1.596 -1.455,-2.635c-0.354,-1.038 -0.53,-2.219 -0.53,-3.543c0,-1.324 0.176,-2.504 0.53,-3.542c0.355,-1.039 0.827,-1.918 1.421,-2.637c0.594,-0.718 1.267,-1.267 2.019,-1.643c0.754,-0.376 1.542,-0.564 2.362,-0.564c0.548,0 1.032,0.091 1.456,0.273c0.421,0.183 0.782,0.377 1.078,0.582c0.343,0.251 0.639,0.537 0.889,0.856c0.091,-0.343 0.28,-0.661 0.565,-0.958c0.285,-0.297 0.553,-0.491 0.806,-0.583l0.513,0c-0.047,0.297 -0.081,0.605 -0.104,0.925c-0.023,0.273 -0.039,0.57 -0.05,0.89c-0.013,0.32 -0.018,0.627 -0.018,0.924c0,0.343 0.005,0.69 0.018,1.044c0.011,0.354 0.027,0.667 0.05,0.941c0.023,0.32 0.057,0.628 0.104,0.925l-0.513,0c-0.435,-1.644 -1.068,-2.91 -1.901,-3.8c-0.833,-0.89 -1.683,-1.335 -2.55,-1.335" style="fill:#3c3b3a;fill-rule:nonzero;"/><path d="M353.406,110.275c-0.434,0 -0.862,0.132 -1.283,0.394c-0.424,0.262 -0.806,0.69 -1.147,1.284c-0.343,0.593 -0.623,1.381 -0.84,2.361c-0.216,0.982 -0.325,2.203 -0.325,3.663c0,1.461 0.109,2.681 0.325,3.663c0.217,0.981 0.508,1.774 0.874,2.379c0.364,0.605 0.781,1.033 1.249,1.283c0.467,0.252 0.964,0.377 1.49,0.377c0.592,0 1.152,-0.114 1.676,-0.343c0.526,-0.227 0.993,-0.535 1.404,-0.923c0.411,-0.389 0.748,-0.856 1.01,-1.404c0.262,-0.547 0.438,-1.141 0.531,-1.78l0.512,0c-0.09,0.73 -0.291,1.41 -0.598,2.037c-0.308,0.627 -0.702,1.169 -1.181,1.626c-0.479,0.457 -1.032,0.816 -1.66,1.078c-0.628,0.262 -1.307,0.394 -2.037,0.394c-0.89,0 -1.741,-0.189 -2.55,-0.565c-0.81,-0.377 -1.524,-0.924 -2.14,-1.644c-0.617,-0.718 -1.1,-1.596 -1.455,-2.635c-0.354,-1.038 -0.53,-2.219 -0.53,-3.543c0,-1.324 0.176,-2.504 0.53,-3.542c0.355,-1.039 0.827,-1.918 1.421,-2.637c0.594,-0.718 1.267,-1.267 2.019,-1.643c0.754,-0.376 1.542,-0.564 2.362,-0.564c0.548,0 1.032,0.091 1.456,0.273c0.421,0.183 0.782,0.377 1.078,0.582c0.343,0.251 0.639,0.537 0.889,0.856c0.091,-0.343 0.28,-0.661 0.565,-0.958c0.285,-0.297 0.553,-0.491 0.806,-0.583l0.513,0c-0.047,0.297 -0.081,0.605 -0.104,0.925c-0.023,0.273 -0.039,0.57 -0.05,0.89c-0.013,0.32 -0.018,0.627 -0.018,0.924c0,0.343 0.005,0.69 0.018,1.044c0.011,0.354 0.027,0.667 0.05,0.941c0.023,0.32 0.057,0.628 0.104,0.925l-0.513,0c-0.435,-1.644 -1.068,-2.91 -1.901,-3.8c-0.833,-0.89 -1.683,-1.335 -2.55,-1.335Z" style="fill:none;stroke:#3c3b3a;stroke-width:0.71px;"/><path d="M365.935,120.27l0,4.724l1.883,0.514l0,0.342l-6.675,0l0,-0.342l2.053,-0.514l0,-22.249l-2.053,-0.514l0,-0.342l4.792,0l0,17.457l5.648,-8.044l-2.225,-0.856l0,-0.342l5.134,0l0,0.342l-2.225,0.856l-3.32,4.724l5.375,8.968l2.053,0.514l0,0.342l-7.017,0l0,-0.342l1.882,-0.514l-3.97,-6.606l-1.335,1.882Z" style="fill:#3c3b3a;fill-rule:nonzero;stroke:#3c3b3a;stroke-width:0.71px;"/><path d="M383.427,110.104c-0.343,0 -0.686,0.108 -1.027,0.325c-0.343,0.217 -0.662,0.599 -0.96,1.146c-0.296,0.548 -0.542,1.284 -0.734,2.209c-0.194,0.924 -0.316,2.093 -0.361,3.508l6.162,0c-0.047,-1.415 -0.166,-2.584 -0.359,-3.508c-0.194,-0.925 -0.44,-1.661 -0.736,-2.209c-0.298,-0.547 -0.616,-0.929 -0.959,-1.146c-0.342,-0.217 -0.685,-0.325 -1.026,-0.325m-3.082,7.873c0,1.46 0.108,2.681 0.325,3.662c0.217,0.982 0.502,1.775 0.856,2.379c0.354,0.605 0.754,1.033 1.199,1.284c0.445,0.252 0.907,0.376 1.386,0.376c0.592,0 1.152,-0.113 1.676,-0.342c0.526,-0.227 0.994,-0.535 1.405,-0.924c0.411,-0.388 0.747,-0.856 1.009,-1.403c0.262,-0.548 0.44,-1.142 0.531,-1.781l0.513,0c-0.091,0.731 -0.29,1.41 -0.599,2.037c-0.307,0.628 -0.702,1.17 -1.181,1.626c-0.479,0.457 -1.032,0.816 -1.66,1.079c-0.627,0.262 -1.307,0.393 -2.037,0.393c-0.867,0 -1.689,-0.188 -2.464,-0.564c-0.776,-0.377 -1.467,-0.925 -2.07,-1.644c-0.606,-0.718 -1.084,-1.597 -1.439,-2.635c-0.354,-1.038 -0.53,-2.219 -0.53,-3.543c0,-1.369 0.171,-2.579 0.512,-3.629c0.343,-1.05 0.793,-1.922 1.353,-2.618c0.56,-0.697 1.21,-1.227 1.951,-1.592c0.741,-0.365 1.524,-0.548 2.346,-0.548c0.82,0 1.602,0.183 2.344,0.548c0.741,0.365 1.392,0.895 1.951,1.592c0.559,0.696 1.01,1.568 1.353,2.618c0.341,1.05 0.513,2.26 0.513,3.629l-9.243,0Z" style="fill:#3c3b3a;fill-rule:nonzero;"/><path d="M383.427,110.104c-0.343,0 -0.686,0.108 -1.027,0.325c-0.343,0.217 -0.662,0.599 -0.96,1.146c-0.296,0.548 -0.542,1.284 -0.734,2.209c-0.194,0.924 -0.316,2.093 -0.361,3.508l6.162,0c-0.047,-1.415 -0.166,-2.584 -0.359,-3.508c-0.194,-0.925 -0.44,-1.661 -0.736,-2.209c-0.298,-0.547 -0.616,-0.929 -0.959,-1.146c-0.342,-0.217 -0.685,-0.325 -1.026,-0.325Zm-3.082,7.873c0,1.46 0.108,2.681 0.325,3.662c0.217,0.982 0.502,1.775 0.856,2.379c0.354,0.605 0.754,1.033 1.199,1.284c0.445,0.252 0.907,0.376 1.386,0.376c0.592,0 1.152,-0.113 1.676,-0.342c0.526,-0.227 0.994,-0.535 1.405,-0.924c0.411,-0.388 0.747,-0.856 1.009,-1.403c0.262,-0.548 0.44,-1.142 0.531,-1.781l0.513,0c-0.091,0.731 -0.29,1.41 -0.599,2.037c-0.307,0.628 -0.702,1.17 -1.181,1.626c-0.479,0.457 -1.032,0.816 -1.66,1.079c-0.627,0.262 -1.307,0.393 -2.037,0.393c-0.867,0 -1.689,-0.188 -2.464,-0.564c-0.776,-0.377 -1.467,-0.925 -2.07,-1.644c-0.606,-0.718 -1.084,-1.597 -1.439,-2.635c-0.354,-1.038 -0.53,-2.219 -0.53,-3.543c0,-1.369 0.171,-2.579 0.512,-3.629c0.343,-1.05 0.793,-1.922 1.353,-2.618c0.56,-0.697 1.21,-1.227 1.951,-1.592c0.741,-0.365 1.524,-0.548 2.346,-0.548c0.82,0 1.602,0.183 2.344,0.548c0.741,0.365 1.392,0.895 1.951,1.592c0.559,0.696 1.01,1.568 1.353,2.618c0.341,1.05 0.513,2.26 0.513,3.629l-9.243,0Z" style="fill:none;stroke:#3c3b3a;stroke-width:0.71px;"/><path d="M397.496,124.994l2.053,0.514l0,0.342l-6.845,0l0,-0.342l2.053,-0.514l0,-14.035l-2.053,-0.513l0,-0.342l4.792,0l0,4.107c0.296,-0.844 0.65,-1.608 1.061,-2.293c0.364,-0.593 0.809,-1.13 1.335,-1.609c0.524,-0.479 1.152,-0.719 1.882,-0.719c0.25,0 0.491,0.017 0.72,0.051c0.228,0.035 0.433,0.075 0.616,0.12c0.205,0.069 0.387,0.126 0.547,0.172l-1.028,2.567c-0.135,-0.069 -0.284,-0.148 -0.444,-0.24c-0.136,-0.068 -0.303,-0.131 -0.496,-0.188c-0.194,-0.056 -0.394,-0.086 -0.6,-0.086c-0.593,0 -1.118,0.161 -1.574,0.479c-0.456,0.321 -0.833,0.674 -1.129,1.062c-0.366,0.457 -0.662,0.97 -0.89,1.54l0,9.927Z" style="fill:#3c3b3a;fill-rule:nonzero;stroke:#3c3b3a;stroke-width:0.71px;"/><path d="M407.114,124.994l0,-22.25l-2.053,-0.513l0,-0.342l4.792,0l0,10.269c0.228,-0.456 0.536,-0.879 0.924,-1.267c0.32,-0.319 0.729,-0.616 1.233,-0.89c0.501,-0.274 1.095,-0.411 1.779,-0.411c0.685,0 1.319,0.126 1.9,0.377c0.582,0.251 1.09,0.599 1.524,1.044c0.433,0.445 0.77,0.981 1.009,1.609c0.24,0.628 0.359,1.329 0.359,2.105l0,10.269l2.055,0.514l0,0.342l-6.675,0l0,-0.342l1.883,-0.514l0,-10.269c0,-1.621 -0.257,-2.767 -0.772,-3.441c-0.513,-0.672 -1.111,-1.009 -1.796,-1.009c-0.571,0 -1.061,0.16 -1.472,0.479c-0.411,0.32 -0.765,0.673 -1.061,1.061c-0.343,0.457 -0.639,0.971 -0.89,1.541l0,11.638l1.883,0.514l0,0.342l-6.675,0l0,-0.342l2.053,-0.514Z" style="fill:#3c3b3a;fill-rule:nonzero;stroke:#3c3b3a;stroke-width:0.71px;"/><path d="M430.083,110.104c-0.388,0 -0.781,0.131 -1.181,0.393c-0.4,0.263 -0.765,0.697 -1.095,1.301c-0.33,0.605 -0.605,1.409 -0.822,2.413c-0.217,1.005 -0.325,2.259 -0.325,3.766c0,1.506 0.108,2.761 0.325,3.765c0.217,1.005 0.492,1.809 0.822,2.413c0.33,0.605 0.695,1.039 1.095,1.301c0.4,0.263 0.793,0.394 1.181,0.394c0.388,0 0.781,-0.131 1.181,-0.394c0.4,-0.262 0.765,-0.696 1.095,-1.301c0.33,-0.604 0.605,-1.408 0.822,-2.413c0.217,-1.004 0.325,-2.259 0.325,-3.765c0,-1.507 -0.108,-2.761 -0.325,-3.766c-0.217,-1.004 -0.492,-1.808 -0.822,-2.413c-0.33,-0.604 -0.695,-1.038 -1.095,-1.301c-0.4,-0.262 -0.793,-0.393 -1.181,-0.393m0,-0.514c0.845,0 1.66,0.189 2.448,0.565c0.788,0.376 1.483,0.925 2.088,1.643c0.604,0.719 1.083,1.598 1.437,2.636c0.354,1.039 0.531,2.219 0.531,3.543c0,1.324 -0.177,2.505 -0.531,3.543c-0.354,1.038 -0.833,1.917 -1.437,2.635c-0.605,0.719 -1.3,1.267 -2.088,1.644c-0.788,0.376 -1.603,0.564 -2.448,0.564c-0.867,0 -1.689,-0.188 -2.464,-0.564c-0.777,-0.377 -1.467,-0.925 -2.071,-1.644c-0.605,-0.718 -1.084,-1.597 -1.438,-2.635c-0.354,-1.038 -0.531,-2.219 -0.531,-3.543c0,-1.324 0.177,-2.504 0.531,-3.543c0.354,-1.038 0.833,-1.917 1.438,-2.636c0.604,-0.718 1.294,-1.267 2.071,-1.643c0.775,-0.376 1.597,-0.565 2.464,-0.565" style="fill:#3c3b3a;fill-rule:nonzero;"/><path d="M430.083,110.104c-0.388,0 -0.781,0.131 -1.181,0.393c-0.4,0.263 -0.765,0.697 -1.095,1.301c-0.33,0.605 -0.605,1.409 -0.822,2.413c-0.217,1.005 -0.325,2.259 -0.325,3.766c0,1.506 0.108,2.761 0.325,3.765c0.217,1.005 0.492,1.809 0.822,2.413c0.33,0.605 0.695,1.039 1.095,1.301c0.4,0.263 0.793,0.394 1.181,0.394c0.388,0 0.781,-0.131 1.181,-0.394c0.4,-0.262 0.765,-0.696 1.095,-1.301c0.33,-0.604 0.605,-1.408 0.822,-2.413c0.217,-1.004 0.325,-2.259 0.325,-3.765c0,-1.507 -0.108,-2.761 -0.325,-3.766c-0.217,-1.004 -0.492,-1.808 -0.822,-2.413c-0.33,-0.604 -0.695,-1.038 -1.095,-1.301c-0.4,-0.262 -0.793,-0.393 -1.181,-0.393Zm0,-0.514c0.845,0 1.66,0.189 2.448,0.565c0.788,0.376 1.483,0.925 2.088,1.643c0.604,0.719 1.083,1.598 1.437,2.636c0.354,1.039 0.531,2.219 0.531,3.543c0,1.324 -0.177,2.505 -0.531,3.543c-0.354,1.038 -0.833,1.917 -1.437,2.635c-0.605,0.719 -1.3,1.267 -2.088,1.644c-0.788,0.376 -1.603,0.564 -2.448,0.564c-0.867,0 -1.689,-0.188 -2.464,-0.564c-0.777,-0.377 -1.467,-0.925 -2.071,-1.644c-0.605,-0.718 -1.084,-1.597 -1.438,-2.635c-0.354,-1.038 -0.531,-2.219 -0.531,-3.543c0,-1.324 0.177,-2.504 0.531,-3.543c0.354,-1.038 0.833,-1.917 1.438,-2.636c0.604,-0.718 1.294,-1.267 2.071,-1.643c0.775,-0.376 1.597,-0.565 2.464,-0.565Z" style="fill:none;stroke:#3c3b3a;stroke-width:0.71px;"/><path d="M446.717,110.104c-0.388,0 -0.781,0.131 -1.181,0.393c-0.4,0.263 -0.765,0.697 -1.095,1.301c-0.33,0.605 -0.605,1.409 -0.822,2.413c-0.217,1.005 -0.325,2.259 -0.325,3.766c0,1.506 0.108,2.761 0.325,3.765c0.217,1.005 0.492,1.809 0.822,2.413c0.33,0.605 0.695,1.039 1.095,1.301c0.4,0.263 0.793,0.394 1.181,0.394c0.388,0 0.781,-0.131 1.181,-0.394c0.4,-0.262 0.765,-0.696 1.095,-1.301c0.33,-0.604 0.605,-1.408 0.822,-2.413c0.217,-1.004 0.325,-2.259 0.325,-3.765c0,-1.507 -0.108,-2.761 -0.325,-3.766c-0.217,-1.004 -0.492,-1.808 -0.822,-2.413c-0.33,-0.604 -0.695,-1.038 -1.095,-1.301c-0.4,-0.262 -0.793,-0.393 -1.181,-0.393m0,-0.514c0.845,0 1.66,0.189 2.448,0.565c0.788,0.376 1.483,0.925 2.088,1.643c0.604,0.719 1.083,1.598 1.437,2.636c0.354,1.039 0.531,2.219 0.531,3.543c0,1.324 -0.177,2.505 -0.531,3.543c-0.354,1.038 -0.833,1.917 -1.437,2.635c-0.605,0.719 -1.3,1.267 -2.088,1.644c-0.788,0.376 -1.603,0.564 -2.448,0.564c-0.867,0 -1.689,-0.188 -2.464,-0.564c-0.777,-0.377 -1.467,-0.925 -2.071,-1.644c-0.605,-0.718 -1.084,-1.597 -1.438,-2.635c-0.354,-1.038 -0.531,-2.219 -0.531,-3.543c0,-1.324 0.177,-2.504 0.531,-3.543c0.354,-1.038 0.833,-1.917 1.438,-2.636c0.604,-0.718 1.294,-1.267 2.071,-1.643c0.775,-0.376 1.597,-0.565 2.464,-0.565" style="fill:#3c3b3a;fill-rule:nonzero;"/><path d="M446.717,110.104c-0.388,0 -0.781,0.131 -1.181,0.393c-0.4,0.263 -0.765,0.697 -1.095,1.301c-0.33,0.605 -0.605,1.409 -0.822,2.413c-0.217,1.005 -0.325,2.259 -0.325,3.766c0,1.506 0.108,2.761 0.325,3.765c0.217,1.005 0.492,1.809 0.822,2.413c0.33,0.605 0.695,1.039 1.095,1.301c0.4,0.263 0.793,0.394 1.181,0.394c0.388,0 0.781,-0.131 1.181,-0.394c0.4,-0.262 0.765,-0.696 1.095,-1.301c0.33,-0.604 0.605,-1.408 0.822,-2.413c0.217,-1.004 0.325,-2.259 0.325,-3.765c0,-1.507 -0.108,-2.761 -0.325,-3.766c-0.217,-1.004 -0.492,-1.808 -0.822,-2.413c-0.33,-0.604 -0.695,-1.038 -1.095,-1.301c-0.4,-0.262 -0.793,-0.393 -1.181,-0.393Zm0,-0.514c0.845,0 1.66,0.189 2.448,0.565c0.788,0.376 1.483,0.925 2.088,1.643c0.604,0.719 1.083,1.598 1.437,2.636c0.354,1.039 0.531,2.219 0.531,3.543c0,1.324 -0.177,2.505 -0.531,3.543c-0.354,1.038 -0.833,1.917 -1.437,2.635c-0.605,0.719 -1.3,1.267 -2.088,1.644c-0.788,0.376 -1.603,0.564 -2.448,0.564c-0.867,0 -1.689,-0.188 -2.464,-0.564c-0.777,-0.377 -1.467,-0.925 -2.071,-1.644c-0.605,-0.718 -1.084,-1.597 -1.438,-2.635c-0.354,-1.038 -0.531,-2.219 -0.531,-3.543c0,-1.324 0.177,-2.504 0.531,-3.543c0.354,-1.038 0.833,-1.917 1.438,-2.636c0.604,-0.718 1.294,-1.267 2.071,-1.643c0.775,-0.376 1.597,-0.565 2.464,-0.565Z" style="fill:none;stroke:#3c3b3a;stroke-width:0.71px;"/><path d="M460.786,120.27l0,4.724l1.883,0.514l0,0.342l-6.675,0l0,-0.342l2.053,-0.514l0,-22.249l-2.053,-0.514l0,-0.342l4.792,0l0,17.457l5.648,-8.044l-2.225,-0.856l0,-0.342l5.134,0l0,0.342l-2.225,0.856l-3.32,4.724l5.375,8.968l2.053,0.514l0,0.342l-7.017,0l0,-0.342l1.882,-0.514l-3.97,-6.606l-1.335,1.882Z" style="fill:#3c3b3a;fill-rule:nonzero;stroke:#3c3b3a;stroke-width:0.71px;"/><path d="M486.928,110.104c-0.343,0 -0.686,0.108 -1.027,0.325c-0.343,0.217 -0.662,0.599 -0.96,1.146c-0.296,0.548 -0.542,1.284 -0.734,2.209c-0.194,0.924 -0.316,2.093 -0.361,3.508l6.162,0c-0.047,-1.415 -0.166,-2.584 -0.359,-3.508c-0.194,-0.925 -0.44,-1.661 -0.736,-2.209c-0.298,-0.547 -0.616,-0.929 -0.959,-1.146c-0.342,-0.217 -0.685,-0.325 -1.026,-0.325m-3.082,7.873c0,1.46 0.108,2.681 0.325,3.662c0.217,0.982 0.502,1.775 0.856,2.379c0.354,0.605 0.754,1.033 1.199,1.284c0.445,0.252 0.907,0.376 1.386,0.376c0.592,0 1.152,-0.113 1.676,-0.342c0.526,-0.227 0.994,-0.535 1.405,-0.924c0.411,-0.388 0.747,-0.856 1.009,-1.403c0.262,-0.548 0.44,-1.142 0.531,-1.781l0.513,0c-0.091,0.731 -0.29,1.41 -0.599,2.037c-0.307,0.628 -0.702,1.17 -1.181,1.626c-0.479,0.457 -1.032,0.816 -1.66,1.079c-0.627,0.262 -1.307,0.393 -2.037,0.393c-0.867,0 -1.689,-0.188 -2.464,-0.564c-0.776,-0.377 -1.467,-0.925 -2.07,-1.644c-0.606,-0.718 -1.084,-1.597 -1.439,-2.635c-0.354,-1.038 -0.53,-2.219 -0.53,-3.543c0,-1.369 0.171,-2.579 0.512,-3.629c0.343,-1.05 0.793,-1.922 1.353,-2.618c0.56,-0.697 1.21,-1.227 1.951,-1.592c0.741,-0.365 1.524,-0.548 2.346,-0.548c0.82,0 1.602,0.183 2.344,0.548c0.741,0.365 1.392,0.895 1.951,1.592c0.559,0.696 1.01,1.568 1.353,2.618c0.341,1.05 0.513,2.26 0.513,3.629l-9.243,0Z" style="fill:#3c3b3a;fill-rule:nonzero;"/><path d="M486.928,110.104c-0.343,0 -0.686,0.108 -1.027,0.325c-0.343,0.217 -0.662,0.599 -0.96,1.146c-0.296,0.548 -0.542,1.284 -0.734,2.209c-0.194,0.924 -0.316,2.093 -0.361,3.508l6.162,0c-0.047,-1.415 -0.166,-2.584 -0.359,-3.508c-0.194,-0.925 -0.44,-1.661 -0.736,-2.209c-0.298,-0.547 -0.616,-0.929 -0.959,-1.146c-0.342,-0.217 -0.685,-0.325 -1.026,-0.325Zm-3.082,7.873c0,1.46 0.108,2.681 0.325,3.662c0.217,0.982 0.502,1.775 0.856,2.379c0.354,0.605 0.754,1.033 1.199,1.284c0.445,0.252 0.907,0.376 1.386,0.376c0.592,0 1.152,-0.113 1.676,-0.342c0.526,-0.227 0.994,-0.535 1.405,-0.924c0.411,-0.388 0.747,-0.856 1.009,-1.403c0.262,-0.548 0.44,-1.142 0.531,-1.781l0.513,0c-0.091,0.731 -0.29,1.41 -0.599,2.037c-0.307,0.628 -0.702,1.17 -1.181,1.626c-0.479,0.457 -1.032,0.816 -1.66,1.079c-0.627,0.262 -1.307,0.393 -2.037,0.393c-0.867,0 -1.689,-0.188 -2.464,-0.564c-0.776,-0.377 -1.467,-0.925 -2.07,-1.644c-0.606,-0.718 -1.084,-1.597 -1.439,-2.635c-0.354,-1.038 -0.53,-2.219 -0.53,-3.543c0,-1.369 0.171,-2.579 0.512,-3.629c0.343,-1.05 0.793,-1.922 1.353,-2.618c0.56,-0.697 1.21,-1.227 1.951,-1.592c0.741,-0.365 1.524,-0.548 2.346,-0.548c0.82,0 1.602,0.183 2.344,0.548c0.741,0.365 1.392,0.895 1.951,1.592c0.559,0.696 1.01,1.568 1.353,2.618c0.341,1.05 0.513,2.26 0.513,3.629l-9.243,0Z" style="fill:none;stroke:#3c3b3a;stroke-width:0.71px;"/><path d="M496.373,124.31c0,-0.525 0.183,-0.97 0.548,-1.336c0.364,-0.364 0.809,-0.547 1.335,-0.547c0.524,0 0.969,0.183 1.335,0.547c0.366,0.366 0.548,0.811 0.548,1.336c0,0.525 -0.182,0.97 -0.548,1.335c-0.366,0.365 -0.811,0.547 -1.335,0.547c-0.526,0 -0.971,-0.182 -1.335,-0.547c-0.365,-0.365 -0.548,-0.81 -0.548,-1.335" style="fill:#3c3b3a;fill-rule:nonzero;"/><path d="M496.373,124.31c0,-0.525 0.183,-0.97 0.548,-1.336c0.364,-0.364 0.809,-0.547 1.335,-0.547c0.524,0 0.969,0.183 1.335,0.547c0.366,0.366 0.548,0.811 0.548,1.336c0,0.525 -0.182,0.97 -0.548,1.335c-0.366,0.365 -0.811,0.547 -1.335,0.547c-0.526,0 -0.971,-0.182 -1.335,-0.547c-0.365,-0.365 -0.548,-0.81 -0.548,-1.335Z" style="fill:none;stroke:#3c3b3a;stroke-width:0.71px;"/><path d="M498.392,102.231l0,-0.342l7.19,0l0,0.342l-2.055,0.514l5.477,17.971l4.793,-17.629l-2.226,-0.856l0,-0.342l5.135,0l0,0.342l-2.224,0.856l-6.334,23.277l-0.513,0l-7.188,-23.619l-2.055,-0.514Z" style="fill:#3c3b3a;fill-rule:nonzero;stroke:#3c3b3a;stroke-width:0.71px;"/><path d="M513.488,124.31c0,-0.525 0.183,-0.97 0.548,-1.336c0.364,-0.364 0.809,-0.547 1.335,-0.547c0.524,0 0.969,0.183 1.335,0.547c0.366,0.366 0.548,0.811 0.548,1.336c0,0.525 -0.182,0.97 -0.548,1.335c-0.366,0.365 -0.811,0.547 -1.335,0.547c-0.526,0 -0.971,-0.182 -1.335,-0.547c-0.365,-0.365 -0.548,-0.81 -0.548,-1.335" style="fill:#3c3b3a;fill-rule:nonzero;"/><path d="M513.488,124.31c0,-0.525 0.183,-0.97 0.548,-1.336c0.364,-0.364 0.809,-0.547 1.335,-0.547c0.524,0 0.969,0.183 1.335,0.547c0.366,0.366 0.548,0.811 0.548,1.336c0,0.525 -0.182,0.97 -0.548,1.335c-0.366,0.365 -0.811,0.547 -1.335,0.547c-0.526,0 -0.971,-0.182 -1.335,-0.547c-0.365,-0.365 -0.548,-0.81 -0.548,-1.335Z" style="fill:none;stroke:#3c3b3a;stroke-width:0.71px;"/><path d="M92.52,135.321c0,0 34.249,-8.528 46.424,-43.356c10.592,-30.299 5.111,-54.795 5.111,-54.795l-51.175,-13.782l-1.546,0l-51.175,13.782c0,0 -5.481,24.496 5.111,54.795c12.175,34.828 46.424,43.356 46.424,43.356l0.826,0Z" style="fill:#0b8d36;fill-rule:nonzero;stroke:#0b8d36;stroke-width:3.35px;"/><path d="M98.52,76.319l0,16.447l1.404,0c0.909,0 1.751,-0.173 2.527,-0.521c0.775,-0.347 1.451,-0.869 2.026,-1.565c0.575,-0.695 1.029,-1.551 1.364,-2.567c0.334,-1.016 0.502,-2.206 0.502,-3.57c0,-1.365 -0.168,-2.554 -0.502,-3.57c-0.335,-1.016 -0.789,-1.872 -1.364,-2.568c-0.575,-0.695 -1.251,-1.217 -2.026,-1.565c-0.776,-0.347 -1.618,-0.521 -2.527,-0.521l-1.404,0Zm0,-0.803l1.404,0c1.203,-0.026 2.173,-0.42 2.908,-1.183c0.736,-0.762 1.104,-1.905 1.104,-3.43c0,-1.524 -0.368,-2.674 -1.104,-3.45c-0.735,-0.775 -1.705,-1.163 -2.908,-1.163l-1.404,0l0,9.226Zm-5.817,18.053l0,-0.402l0.709,-0.601l0,-26.076l-0.709,-0.602l0,-0.401l8.919,0c1.256,0 2.346,0.141 3.269,0.421c0.923,0.281 1.691,0.67 2.307,1.164c0.615,0.495 1.076,1.07 1.384,1.725c0.307,0.656 0.461,1.358 0.461,2.106c0,0.589 -0.087,1.11 -0.26,1.564c-0.175,0.455 -0.402,0.85 -0.683,1.184c-0.281,0.334 -0.601,0.628 -0.962,0.883c-0.361,0.254 -0.729,0.461 -1.104,0.621c-0.882,0.402 -3.583,0.656 -4.706,0.763c1.658,0.16 4.827,0.575 6.111,1.243c0.561,0.295 1.103,0.649 1.624,1.063c0.522,0.415 0.989,0.923 1.404,1.524c0.415,0.602 0.749,1.299 1.003,2.087c0.254,0.789 0.381,1.692 0.381,2.708c0,1.257 -0.24,2.433 -0.722,3.53c-0.481,1.097 -1.17,2.053 -2.066,2.868c-0.896,0.817 -1.972,1.458 -3.229,1.926c-1.257,0.468 -4.359,0.702 -5.91,0.702l-7.221,0Z" style="fill:#fff;fill-rule:nonzero;"/><path d="M84.061,76.319c-0.909,0 -1.751,0.174 -2.527,0.521c-0.775,0.348 -1.451,0.87 -2.026,1.565c-0.575,0.696 -1.029,1.552 -1.364,2.568c-0.334,1.016 -0.502,2.205 -0.502,3.57c0,1.364 0.168,2.554 0.502,3.57c0.335,1.016 0.789,1.872 1.364,2.567c0.575,0.696 1.251,1.218 2.026,1.565c0.776,0.348 1.618,0.521 2.527,0.521l1.404,0l0,-16.447l-1.404,0Zm1.404,-10.029l-1.404,0c-1.203,0 -2.173,0.388 -2.908,1.163c-0.736,0.776 -1.104,1.926 -1.104,3.45c0,1.525 0.368,2.668 1.104,3.43c0.735,0.763 1.705,1.157 2.908,1.183l1.404,0l0,-9.226Zm-2.677,27.279c-1.551,0 -2.955,-0.234 -4.213,-0.702c-1.256,-0.468 -2.333,-1.109 -3.229,-1.926c-0.896,-0.815 -1.585,-1.771 -2.066,-2.868c-0.481,-1.097 -0.722,-2.273 -0.722,-3.53c0,-1.016 0.127,-1.919 0.381,-2.708c0.255,-0.788 0.589,-1.485 1.003,-2.087c0.415,-0.601 0.882,-1.109 1.404,-1.524c0.522,-0.414 1.063,-0.768 1.625,-1.063c1.284,-0.668 4.028,-1.083 5.686,-1.243c-1.123,-0.107 -3.399,-0.361 -4.282,-0.763c-0.374,-0.16 -0.742,-0.367 -1.103,-0.621c-0.361,-0.255 -0.682,-0.549 -0.963,-0.883c-0.281,-0.334 -0.508,-0.729 -0.682,-1.184c-0.174,-0.454 -0.261,-0.975 -0.261,-1.564c0,-0.748 0.155,-1.45 0.461,-2.106c0.308,-0.655 0.77,-1.23 1.385,-1.725c0.615,-0.494 1.384,-0.883 2.306,-1.164c0.923,-0.28 2.013,-0.421 3.27,-0.421l8.494,0l0,0.401l-0.709,0.602l0,26.076l0.709,0.601l0,0.402l-8.494,0Z" style="fill:#fff;fill-rule:nonzero;"/><path d="M106.405,41.532l-27.833,0l-5.014,-10.61l11.925,4.184l6.791,-5.472l7.826,5.472l10.89,-4.184l-4.585,10.61Z" style="fill:#fff;fill-rule:nonzero;"/><path d="M60.795,113.635c0.044,-1.549 0.899,-2.523 2.317,-2.951c1.128,-0.34 2.303,-0.398 3.459,-0.571c0.496,-0.074 0.982,-0.207 1.473,-0.314c0.003,-0.047 0.006,-0.095 0.01,-0.142c-0.055,-0.002 -0.109,-0.007 -0.164,-0.005c-1.121,0.054 -2.235,-0.037 -3.342,-0.208c-1.859,-0.288 -3.637,-0.817 -5.22,-1.874c-1.597,-1.066 -2.714,-2.494 -3.223,-4.366c-0.239,-0.878 -0.243,-1.735 0.246,-2.543c0.354,-0.586 0.887,-0.979 1.479,-1.28c0.817,-0.415 1.707,-0.602 2.612,-0.717c0.293,-0.037 0.587,-0.063 0.938,-0.101c-0.267,-0.257 -0.484,-0.463 -0.7,-0.672c-1.364,-1.32 -2.649,-2.709 -3.728,-4.28c-0.641,-0.934 -1.223,-1.891 -1.489,-3.01c-0.241,-1.012 -0.182,-1.956 0.632,-2.71c0.77,-0.712 1.652,-0.945 2.602,-0.498c0.571,0.27 1.034,0.683 1.45,1.15c0.677,0.76 1.25,1.595 1.701,2.503c0.564,1.135 1.109,2.282 1.614,3.444c0.352,0.812 0.622,1.659 0.96,2.572c0.06,-0.263 0.099,-0.45 0.146,-0.636c0.294,-1.175 0.684,-2.308 1.491,-3.246c0.642,-0.746 1.442,-1.159 2.448,-1.031c1.514,0.193 2.612,1.051 3.364,2.317c0.196,0.331 0.36,0.681 0.509,1.029l0.001,0.001c1.029,2.028 1.276,4.409 1.343,5.986c0,0.004 0,0.007 0,0.01c0.061,0.87 0.082,1.742 0.065,2.616c-0.003,0.187 0.001,0.374 0.002,0.56c0.617,-1.275 1.225,-2.537 2.075,-3.591c0,0 0,-0.001 0.001,-0.002c0,0 0.349,-0.642 1.187,-1.126c0.001,-0.015 0.002,-0.031 0.003,-0.046c0.07,-0.018 0.139,-0.041 0.207,-0.066c0.188,-0.093 0.395,-0.178 0.626,-0.246c0.223,-0.073 0.461,-0.115 0.732,-0.071c-0.002,0.007 -0.004,0.014 -0.006,0.022c0.108,0.014 0.217,0.037 0.325,0.068c0.02,-0.007 0.04,-0.013 0.06,-0.02c0.009,0.015 0.02,0.031 0.032,0.047c1.219,0.396 2.428,1.817 2.39,3.731c0,0.009 -0.001,0.017 -0.002,0.025c0.03,0.413 0.004,0.832 -0.087,1.256c-0.171,0.799 -0.385,1.59 -0.601,2.38c-0.472,1.722 -0.467,3.412 0.314,5.053c0.162,0.339 0.347,0.666 0.527,1.01c-0.04,0.002 -0.078,0.014 -0.111,0.004c-2.222,-0.658 -4.278,-1.677 -6.177,-2.99c-1.322,-0.914 -2.605,-1.893 -3.848,-2.912c-1.01,-0.829 -1.96,-1.736 -2.891,-2.654c-0.926,-0.913 -1.807,-1.872 -2.685,-2.832c-0.592,-0.646 -1.15,-1.324 -1.712,-1.997c-0.442,-0.53 -0.868,-1.073 -1.302,-1.61c-0.004,0.117 0.028,0.214 0.078,0.3c0.38,0.643 0.729,1.308 1.152,1.921c0.956,1.383 1.914,2.766 2.938,4.098c1.092,1.421 2.323,2.727 3.625,3.961c1.561,1.48 3.225,2.832 5.068,3.95c2.011,1.219 5.214,2.433 7.593,2.411c4.044,-0.037 6.282,-1.134 6.282,-1.134l0,2.203c0,0 -2.115,0.623 -4.479,0.849c-1.612,0.154 -3.97,0.062 -5.557,-0.267c-1.242,-0.257 -2.627,-0.387 -3.881,-0.567c-1.269,-0.182 -2.531,-0.099 -3.752,0.394c-1.414,0.571 -2.859,1.046 -4.384,1.242c-1.283,0.165 -2.555,0.176 -3.807,-0.188c-1.75,-0.509 -2.982,-1.75 -2.929,-3.639" style="fill:#fff;fill-rule:nonzero;"/><path d="M123.143,113.635c-0.044,-1.549 -0.899,-2.523 -2.317,-2.951c-1.128,-0.34 -2.303,-0.398 -3.459,-0.571c-0.496,-0.074 -0.982,-0.207 -1.473,-0.314c-0.003,-0.047 -0.006,-0.095 -0.01,-0.142c0.055,-0.002 0.109,-0.007 0.164,-0.005c1.121,0.054 2.235,-0.037 3.342,-0.208c1.859,-0.288 3.637,-0.817 5.22,-1.874c1.597,-1.066 2.714,-2.494 3.223,-4.366c0.239,-0.878 0.243,-1.735 -0.246,-2.543c-0.354,-0.586 -0.887,-0.979 -1.479,-1.28c-0.817,-0.415 -1.707,-0.602 -2.612,-0.717c-0.293,-0.037 -0.587,-0.063 -0.938,-0.101c0.267,-0.257 0.484,-0.463 0.7,-0.672c1.364,-1.32 2.649,-2.709 3.728,-4.28c0.641,-0.934 1.223,-1.891 1.489,-3.01c0.241,-1.012 0.182,-1.956 -0.632,-2.71c-0.77,-0.712 -1.652,-0.945 -2.602,-0.498c-0.571,0.27 -1.034,0.683 -1.45,1.15c-0.677,0.76 -1.25,1.595 -1.701,2.503c-0.564,1.135 -1.109,2.282 -1.614,3.444c-0.352,0.812 -0.622,1.659 -0.96,2.572c-0.06,-0.263 -0.099,-0.45 -0.146,-0.636c-0.294,-1.175 -0.684,-2.308 -1.491,-3.246c-0.642,-0.746 -1.442,-1.159 -2.448,-1.031c-1.514,0.193 -2.612,1.051 -3.364,2.317c-0.196,0.331 -0.36,0.681 -0.509,1.029l-0.001,0.001c-1.029,2.028 -1.276,4.409 -1.343,5.986c0,0.004 0,0.007 0,0.01c-0.061,0.87 -0.082,1.742 -0.065,2.616c0.003,0.187 -0.001,0.374 -0.002,0.56c-0.617,-1.275 -1.225,-2.537 -2.075,-3.591c0,0 0,-0.001 0,-0.002c0,0 -0.35,-0.642 -1.188,-1.126c-0.001,-0.015 -0.002,-0.031 -0.003,-0.046c-0.07,-0.018 -0.139,-0.041 -0.207,-0.066c-0.188,-0.093 -0.395,-0.178 -0.626,-0.246c-0.223,-0.073 -0.461,-0.115 -0.732,-0.071c0.002,0.007 0.004,0.014 0.006,0.022c-0.108,0.014 -0.217,0.037 -0.325,0.068c-0.02,-0.007 -0.04,-0.013 -0.06,-0.02c-0.009,0.015 -0.02,0.031 -0.032,0.047c-1.219,0.396 -2.428,1.817 -2.39,3.731c0,0.009 0.001,0.017 0.002,0.025c-0.03,0.413 -0.004,0.832 0.087,1.256c0.171,0.799 0.385,1.59 0.601,2.38c0.472,1.722 0.467,3.412 -0.314,5.053c-0.162,0.339 -0.347,0.666 -0.527,1.01c0.04,0.002 0.078,0.014 0.111,0.004c2.222,-0.658 4.278,-1.677 6.177,-2.99c1.322,-0.914 2.605,-1.893 3.848,-2.912c1.01,-0.829 1.96,-1.736 2.891,-2.654c0.926,-0.913 1.807,-1.872 2.685,-2.832c0.592,-0.646 1.15,-1.324 1.712,-1.997c0.442,-0.53 0.868,-1.073 1.302,-1.61c0.004,0.117 -0.028,0.214 -0.078,0.3c-0.38,0.643 -0.729,1.308 -1.152,1.921c-0.956,1.383 -1.914,2.766 -2.938,4.098c-1.092,1.421 -2.323,2.727 -3.625,3.961c-1.561,1.48 -3.225,2.832 -5.068,3.95c-2.011,1.219 -5.214,2.433 -7.593,2.411c-4.044,-0.037 -6.282,-1.134 -6.282,-1.134l0,2.203c0,0 2.115,0.623 4.479,0.849c1.612,0.154 3.97,0.062 5.557,-0.267c1.242,-0.257 2.627,-0.387 3.881,-0.567c1.269,-0.182 2.532,-0.099 3.752,0.394c1.414,0.571 2.859,1.046 4.384,1.242c1.283,0.165 2.555,0.176 3.807,-0.188c1.75,-0.509 2.982,-1.75 2.929,-3.639" style="fill:#fff;fill-rule:nonzero;"/><path d="M67.096,66.839c-0.319,-0.066 -0.543,-0.262 -0.703,-0.503c0.056,-0.273 0.239,-0.902 0.775,-1.435c0.112,0.135 0.247,0.267 0.409,0.386c0.876,0.642 1.1,0.612 1.214,0.497c0.114,-0.115 -0.639,-0.499 -0.715,-1.085c-0.021,-0.163 -0.002,-0.298 0.04,-0.41c0.089,-0.035 0.181,-0.069 0.28,-0.097c0.201,-0.059 0.708,-0.244 1.43,-0.52c-0.07,0.251 -0.084,0.532 -0.097,0.823c-0.015,0.328 -0.03,0.667 -0.124,0.999c-0.209,0.734 -1.264,1.601 -2.509,1.345m3.747,-3.559c5.264,-2.046 45.414,-18.006 45.414,-18.006l-1.127,-2.834l-47.022,17.461c0,0 -3.768,1.047 -4.928,2.518c-1.16,1.472 -2.38,3.854 -2.38,3.854l-0.026,-1.533l-15.511,5.087c0,0 0.852,6.781 3.977,9.577l10.598,-8.958l2.324,0.025c0,0 1.086,-3.823 2.15,-3.839c0.575,-0.008 1.128,-0.053 1.517,-0.093c0.212,0.373 0.532,0.704 1.023,0.844c0.041,0.012 0.083,0.022 0.126,0.031c1.498,0.308 2.885,-0.68 3.191,-1.759c0.114,-0.398 0.131,-0.789 0.146,-1.134c0.022,-0.496 0.046,-0.808 0.237,-0.966c0.066,-0.055 0.182,-0.151 0.291,-0.275" style="fill:#fff;fill-rule:nonzero;"/><path d="M114.61,65.494c-0.094,-0.332 -0.109,-0.671 -0.124,-0.999c-0.013,-0.291 -0.027,-0.572 -0.097,-0.823c0.722,0.276 1.229,0.461 1.43,0.519c0.099,0.029 0.191,0.063 0.28,0.098c0.042,0.112 0.061,0.247 0.04,0.41c-0.076,0.586 -0.829,0.97 -0.715,1.085c0.114,0.115 0.338,0.145 1.214,-0.497c0.162,-0.119 0.297,-0.251 0.409,-0.386c0.536,0.533 0.719,1.162 0.775,1.435c-0.16,0.241 -0.384,0.437 -0.703,0.503c-1.245,0.256 -2.3,-0.611 -2.509,-1.345m-0.947,-1.939c0.191,0.158 0.215,0.47 0.237,0.966c0.015,0.345 0.032,0.736 0.146,1.133c0.306,1.08 1.693,2.068 3.191,1.76c0.043,-0.009 0.085,-0.019 0.126,-0.031c0.491,-0.14 0.811,-0.471 1.023,-0.844c0.389,0.04 0.942,0.085 1.517,0.093c1.063,0.016 2.15,3.838 2.15,3.838l2.324,-0.025l10.598,8.959c3.125,-2.796 3.977,-9.577 3.977,-9.577l-15.511,-5.087l-0.026,1.533c0,0 -1.22,-2.382 -2.38,-3.854c-1.16,-1.471 -4.928,-2.518 -4.928,-2.518l-47.022,-17.461l-1.127,2.834c0,0 40.15,15.96 45.414,18.006c0.109,0.124 0.225,0.22 0.291,0.275" style="fill:#fff;fill-rule:nonzero;"/><path d="M53.549,57.466l0.835,0.209l0,0.139l-2.852,0l0,-0.139l0.835,-0.209l0,-8.831l-1.391,0l0,-0.209l2.573,-0.556l0,9.596Z" style="fill:#fff;fill-rule:nonzero;stroke:#fff;stroke-width:0.3px;"/><path d="M58,51.138c0,0.492 0.049,0.911 0.146,1.259c0.097,0.348 0.222,0.635 0.375,0.862c0.153,0.228 0.329,0.394 0.529,0.501c0.199,0.106 0.405,0.159 0.619,0.159c0.194,0 0.387,-0.053 0.577,-0.159c0.19,-0.107 0.362,-0.267 0.515,-0.48c0.153,-0.213 0.275,-0.487 0.368,-0.82c0.093,-0.334 0.139,-0.724 0.139,-1.169c0,-0.593 -0.048,-1.094 -0.146,-1.502c-0.097,-0.408 -0.225,-0.739 -0.382,-0.994c-0.158,-0.255 -0.343,-0.438 -0.556,-0.55c-0.214,-0.111 -0.432,-0.166 -0.654,-0.166c-0.177,0 -0.355,0.055 -0.536,0.166c-0.181,0.112 -0.345,0.288 -0.494,0.529c-0.148,0.241 -0.268,0.556 -0.361,0.946c-0.093,0.389 -0.139,0.862 -0.139,1.418m4.589,1.808c0,0.89 -0.088,1.655 -0.264,2.295c-0.176,0.64 -0.41,1.166 -0.702,1.579c-0.292,0.412 -0.626,0.716 -1.002,0.91c-0.375,0.195 -0.762,0.293 -1.161,0.293c-0.38,0 -0.721,-0.054 -1.022,-0.16c-0.301,-0.107 -0.556,-0.248 -0.765,-0.425c-0.209,-0.176 -0.368,-0.382 -0.48,-0.618c-0.111,-0.237 -0.167,-0.485 -0.167,-0.744c0,-0.195 0.023,-0.353 0.07,-0.474c0.018,-0.055 0.042,-0.106 0.069,-0.152l1.183,0.277c-0.028,0.065 -0.051,0.135 -0.07,0.209c-0.046,0.14 -0.069,0.279 -0.069,0.417c0,0.492 0.111,0.858 0.333,1.099c0.223,0.241 0.529,0.362 0.918,0.362c0.204,0 0.417,-0.072 0.64,-0.216c0.222,-0.144 0.426,-0.382 0.612,-0.716c0.185,-0.334 0.336,-0.777 0.452,-1.328c0.116,-0.551 0.174,-1.236 0.174,-2.052l0,-0.695c-0.121,0.287 -0.255,0.519 -0.404,0.695c-0.148,0.177 -0.336,0.336 -0.563,0.48c-0.227,0.144 -0.508,0.216 -0.841,0.216c-0.399,0 -0.772,-0.074 -1.12,-0.223c-0.347,-0.148 -0.649,-0.357 -0.904,-0.625c-0.255,-0.269 -0.457,-0.592 -0.605,-0.967c-0.148,-0.376 -0.222,-0.79 -0.222,-1.245c0,-0.501 0.074,-0.953 0.222,-1.356c0.148,-0.403 0.35,-0.746 0.605,-1.029c0.255,-0.283 0.557,-0.501 0.904,-0.653c0.348,-0.154 0.721,-0.23 1.12,-0.23c0.454,0 0.869,0.084 1.245,0.25c0.375,0.167 0.697,0.44 0.966,0.821c0.269,0.38 0.477,0.874 0.626,1.481c0.148,0.607 0.222,1.356 0.222,2.246l0,0.278Z" style="fill:#fff;fill-rule:nonzero;"/><path d="M58,51.138c0,0.492 0.049,0.911 0.146,1.259c0.097,0.348 0.222,0.635 0.375,0.862c0.153,0.228 0.329,0.394 0.529,0.501c0.199,0.106 0.405,0.159 0.619,0.159c0.194,0 0.387,-0.053 0.577,-0.159c0.19,-0.107 0.362,-0.267 0.515,-0.48c0.153,-0.213 0.275,-0.487 0.368,-0.82c0.093,-0.334 0.139,-0.724 0.139,-1.169c0,-0.593 -0.048,-1.094 -0.146,-1.502c-0.097,-0.408 -0.225,-0.739 -0.382,-0.994c-0.158,-0.255 -0.343,-0.438 -0.556,-0.55c-0.214,-0.111 -0.432,-0.166 -0.654,-0.166c-0.177,0 -0.355,0.055 -0.536,0.166c-0.181,0.112 -0.345,0.288 -0.494,0.529c-0.148,0.241 -0.268,0.556 -0.361,0.946c-0.093,0.389 -0.139,0.862 -0.139,1.418Zm4.589,1.808c0,0.89 -0.088,1.655 -0.264,2.295c-0.176,0.64 -0.41,1.166 -0.702,1.579c-0.292,0.412 -0.626,0.716 -1.002,0.91c-0.375,0.195 -0.762,0.293 -1.161,0.293c-0.38,0 -0.721,-0.054 -1.022,-0.16c-0.301,-0.107 -0.556,-0.248 -0.765,-0.425c-0.209,-0.176 -0.368,-0.382 -0.48,-0.618c-0.111,-0.237 -0.167,-0.485 -0.167,-0.744c0,-0.195 0.023,-0.353 0.07,-0.474c0.018,-0.055 0.042,-0.106 0.069,-0.152l1.183,0.277c-0.028,0.065 -0.051,0.135 -0.07,0.209c-0.046,0.14 -0.069,0.279 -0.069,0.417c0,0.492 0.111,0.858 0.333,1.099c0.223,0.241 0.529,0.362 0.918,0.362c0.204,0 0.417,-0.072 0.64,-0.216c0.222,-0.144 0.426,-0.382 0.612,-0.716c0.185,-0.334 0.336,-0.777 0.452,-1.328c0.116,-0.551 0.174,-1.236 0.174,-2.052l0,-0.695c-0.121,0.287 -0.255,0.519 -0.404,0.695c-0.148,0.177 -0.336,0.336 -0.563,0.48c-0.227,0.144 -0.508,0.216 -0.841,0.216c-0.399,0 -0.772,-0.074 -1.12,-0.223c-0.347,-0.148 -0.649,-0.357 -0.904,-0.625c-0.255,-0.269 -0.457,-0.592 -0.605,-0.967c-0.148,-0.376 -0.222,-0.79 -0.222,-1.245c0,-0.501 0.074,-0.953 0.222,-1.356c0.148,-0.403 0.35,-0.746 0.605,-1.029c0.255,-0.283 0.557,-0.501 0.904,-0.653c0.348,-0.154 0.721,-0.23 1.12,-0.23c0.454,0 0.869,0.084 1.245,0.25c0.375,0.167 0.697,0.44 0.966,0.821c0.269,0.38 0.477,0.874 0.626,1.481c0.148,0.607 0.222,1.356 0.222,2.246l0,0.278Z" style="fill:none;stroke:#fff;stroke-width:0.3px;"/><path d="M125.485,52.946c0,-0.973 -0.055,-1.775 -0.167,-2.406c-0.111,-0.63 -0.25,-1.127 -0.417,-1.488c-0.167,-0.362 -0.352,-0.614 -0.556,-0.758c-0.204,-0.144 -0.403,-0.215 -0.598,-0.215c-0.195,0 -0.394,0.071 -0.598,0.215c-0.205,0.144 -0.389,0.396 -0.556,0.758c-0.167,0.361 -0.307,0.858 -0.418,1.488c-0.111,0.631 -0.167,1.433 -0.167,2.406c0,0.973 0.056,1.776 0.167,2.406c0.111,0.631 0.251,1.127 0.418,1.488c0.167,0.362 0.351,0.614 0.556,0.758c0.204,0.144 0.403,0.216 0.598,0.216c0.195,0 0.394,-0.072 0.598,-0.216c0.204,-0.144 0.389,-0.396 0.556,-0.758c0.167,-0.361 0.306,-0.857 0.417,-1.488c0.112,-0.63 0.167,-1.433 0.167,-2.406m1.322,0c0,0.89 -0.089,1.655 -0.265,2.295c-0.176,0.64 -0.408,1.166 -0.695,1.579c-0.287,0.412 -0.615,0.715 -0.981,0.91c-0.366,0.195 -0.739,0.293 -1.119,0.293c-0.381,0 -0.754,-0.098 -1.12,-0.293c-0.366,-0.195 -0.693,-0.498 -0.98,-0.91c-0.288,-0.413 -0.52,-0.939 -0.695,-1.579c-0.177,-0.64 -0.265,-1.405 -0.265,-2.295c0,-0.89 0.088,-1.655 0.265,-2.294c0.175,-0.641 0.407,-1.166 0.695,-1.579c0.287,-0.412 0.614,-0.716 0.98,-0.911c0.366,-0.195 0.739,-0.292 1.12,-0.292c0.38,0 0.753,0.097 1.119,0.292c0.366,0.195 0.694,0.499 0.981,0.911c0.287,0.413 0.519,0.938 0.695,1.579c0.176,0.639 0.265,1.404 0.265,2.294" style="fill:#fff;fill-rule:nonzero;"/><path d="M125.485,52.946c0,-0.973 -0.055,-1.775 -0.167,-2.406c-0.111,-0.63 -0.25,-1.127 -0.417,-1.488c-0.167,-0.362 -0.352,-0.614 -0.556,-0.758c-0.204,-0.144 -0.403,-0.215 -0.598,-0.215c-0.195,0 -0.394,0.071 -0.598,0.215c-0.205,0.144 -0.389,0.396 -0.556,0.758c-0.167,0.361 -0.307,0.858 -0.418,1.488c-0.111,0.631 -0.167,1.433 -0.167,2.406c0,0.973 0.056,1.776 0.167,2.406c0.111,0.631 0.251,1.127 0.418,1.488c0.167,0.362 0.351,0.614 0.556,0.758c0.204,0.144 0.403,0.216 0.598,0.216c0.195,0 0.394,-0.072 0.598,-0.216c0.204,-0.144 0.389,-0.396 0.556,-0.758c0.167,-0.361 0.306,-0.857 0.417,-1.488c0.112,-0.63 0.167,-1.433 0.167,-2.406Zm1.322,0c0,0.89 -0.089,1.655 -0.265,2.295c-0.176,0.64 -0.408,1.166 -0.695,1.579c-0.287,0.412 -0.615,0.715 -0.981,0.91c-0.366,0.195 -0.739,0.293 -1.119,0.293c-0.381,0 -0.754,-0.098 -1.12,-0.293c-0.366,-0.195 -0.693,-0.498 -0.98,-0.91c-0.288,-0.413 -0.52,-0.939 -0.695,-1.579c-0.177,-0.64 -0.265,-1.405 -0.265,-2.295c0,-0.89 0.088,-1.655 0.265,-2.294c0.175,-0.641 0.407,-1.166 0.695,-1.579c0.287,-0.412 0.614,-0.716 0.98,-0.911c0.366,-0.195 0.739,-0.292 1.12,-0.292c0.38,0 0.753,0.097 1.119,0.292c0.366,0.195 0.694,0.499 0.981,0.911c0.287,0.413 0.519,0.938 0.695,1.579c0.176,0.639 0.265,1.404 0.265,2.294Z" style="fill:none;stroke:#fff;stroke-width:0.3px;"/><path d="M130.492,51.138c0,0.492 0.049,0.911 0.146,1.259c0.098,0.348 0.223,0.635 0.376,0.862c0.153,0.228 0.329,0.394 0.528,0.501c0.199,0.106 0.406,0.159 0.619,0.159c0.195,0 0.387,-0.053 0.577,-0.159c0.19,-0.107 0.362,-0.267 0.515,-0.48c0.153,-0.213 0.276,-0.487 0.369,-0.82c0.092,-0.334 0.138,-0.724 0.138,-1.169c0,-0.593 -0.048,-1.094 -0.146,-1.502c-0.097,-0.408 -0.224,-0.739 -0.382,-0.994c-0.158,-0.255 -0.343,-0.438 -0.556,-0.55c-0.214,-0.111 -0.431,-0.166 -0.654,-0.166c-0.176,0 -0.354,0.055 -0.536,0.166c-0.18,0.112 -0.345,0.288 -0.493,0.529c-0.149,0.241 -0.269,0.556 -0.362,0.946c-0.093,0.389 -0.139,0.862 -0.139,1.418m4.589,1.808c0,0.89 -0.088,1.655 -0.264,2.295c-0.175,0.64 -0.41,1.166 -0.702,1.579c-0.292,0.412 -0.626,0.716 -1.001,0.91c-0.376,0.195 -0.763,0.293 -1.162,0.293c-0.38,0 -0.72,-0.054 -1.022,-0.16c-0.301,-0.107 -0.556,-0.248 -0.765,-0.425c-0.208,-0.176 -0.368,-0.382 -0.48,-0.618c-0.11,-0.237 -0.166,-0.485 -0.166,-0.744c0,-0.195 0.023,-0.353 0.069,-0.474c0.019,-0.055 0.042,-0.106 0.069,-0.152l1.183,0.277c-0.028,0.065 -0.051,0.135 -0.07,0.209c-0.046,0.14 -0.069,0.279 -0.069,0.417c0,0.492 0.111,0.858 0.333,1.099c0.223,0.241 0.529,0.362 0.918,0.362c0.204,0 0.418,-0.072 0.64,-0.216c0.223,-0.144 0.427,-0.382 0.612,-0.716c0.186,-0.334 0.336,-0.777 0.452,-1.328c0.116,-0.551 0.174,-1.236 0.174,-2.052l0,-0.695c-0.121,0.287 -0.255,0.519 -0.403,0.695c-0.149,0.177 -0.337,0.336 -0.564,0.48c-0.227,0.144 -0.507,0.216 -0.841,0.216c-0.399,0 -0.772,-0.074 -1.119,-0.223c-0.348,-0.148 -0.649,-0.357 -0.905,-0.625c-0.255,-0.269 -0.456,-0.592 -0.605,-0.967c-0.148,-0.376 -0.222,-0.79 -0.222,-1.245c0,-0.501 0.074,-0.953 0.222,-1.356c0.149,-0.403 0.35,-0.746 0.605,-1.029c0.256,-0.283 0.557,-0.501 0.905,-0.653c0.347,-0.154 0.72,-0.23 1.119,-0.23c0.454,0 0.869,0.084 1.245,0.25c0.375,0.167 0.697,0.44 0.966,0.821c0.269,0.38 0.478,0.874 0.626,1.481c0.149,0.607 0.222,1.356 0.222,2.246l0,0.278Z" style="fill:#fff;fill-rule:nonzero;"/><path d="M130.492,51.138c0,0.492 0.049,0.911 0.146,1.259c0.098,0.348 0.223,0.635 0.376,0.862c0.153,0.228 0.329,0.394 0.528,0.501c0.199,0.106 0.406,0.159 0.619,0.159c0.195,0 0.387,-0.053 0.577,-0.159c0.19,-0.107 0.362,-0.267 0.515,-0.48c0.153,-0.213 0.276,-0.487 0.369,-0.82c0.092,-0.334 0.138,-0.724 0.138,-1.169c0,-0.593 -0.048,-1.094 -0.146,-1.502c-0.097,-0.408 -0.224,-0.739 -0.382,-0.994c-0.158,-0.255 -0.343,-0.438 -0.556,-0.55c-0.214,-0.111 -0.431,-0.166 -0.654,-0.166c-0.176,0 -0.354,0.055 -0.536,0.166c-0.18,0.112 -0.345,0.288 -0.493,0.529c-0.149,0.241 -0.269,0.556 -0.362,0.946c-0.093,0.389 -0.139,0.862 -0.139,1.418Zm4.589,1.808c0,0.89 -0.088,1.655 -0.264,2.295c-0.175,0.64 -0.41,1.166 -0.702,1.579c-0.292,0.412 -0.626,0.716 -1.001,0.91c-0.376,0.195 -0.763,0.293 -1.162,0.293c-0.38,0 -0.72,-0.054 -1.022,-0.16c-0.301,-0.107 -0.556,-0.248 -0.765,-0.425c-0.208,-0.176 -0.368,-0.382 -0.48,-0.618c-0.11,-0.237 -0.166,-0.485 -0.166,-0.744c0,-0.195 0.023,-0.353 0.069,-0.474c0.019,-0.055 0.042,-0.106 0.069,-0.152l1.183,0.277c-0.028,0.065 -0.051,0.135 -0.07,0.209c-0.046,0.14 -0.069,0.279 -0.069,0.417c0,0.492 0.111,0.858 0.333,1.099c0.223,0.241 0.529,0.362 0.918,0.362c0.204,0 0.418,-0.072 0.64,-0.216c0.223,-0.144 0.427,-0.382 0.612,-0.716c0.186,-0.334 0.336,-0.777 0.452,-1.328c0.116,-0.551 0.174,-1.236 0.174,-2.052l0,-0.695c-0.121,0.287 -0.255,0.519 -0.403,0.695c-0.149,0.177 -0.337,0.336 -0.564,0.48c-0.227,0.144 -0.507,0.216 -0.841,0.216c-0.399,0 -0.772,-0.074 -1.119,-0.223c-0.348,-0.148 -0.649,-0.357 -0.905,-0.625c-0.255,-0.269 -0.456,-0.592 -0.605,-0.967c-0.148,-0.376 -0.222,-0.79 -0.222,-1.245c0,-0.501 0.074,-0.953 0.222,-1.356c0.149,-0.403 0.35,-0.746 0.605,-1.029c0.256,-0.283 0.557,-0.501 0.905,-0.653c0.347,-0.154 0.72,-0.23 1.119,-0.23c0.454,0 0.869,0.084 1.245,0.25c0.375,0.167 0.697,0.44 0.966,0.821c0.269,0.38 0.478,0.874 0.626,1.481c0.149,0.607 0.222,1.356 0.222,2.246l0,0.278Z" style="fill:none;stroke:#fff;stroke-width:0.3px;"/><rect x="301.067" y="114.652" width="8.732" height="2.123" style="fill:#3c3b3a;"/></g></g></svg>