<?xml version="1.0" encoding="UTF-8" standalone="no"?>
<!DOCTYPE svg PUBLIC "-//W3C//DTD SVG 1.1//EN" "http://www.w3.org/Graphics/SVG/1.1/DTD/svg11.dtd">
<svg width="100%" height="100%" viewBox="0 0 1250 1250" version="1.1" xmlns="http://www.w3.org/2000/svg" xmlns:xlink="http://www.w3.org/1999/xlink" xml:space="preserve" xmlns:serif="http://www.serif.com/" style="fill-rule:evenodd;clip-rule:evenodd;stroke-miterlimit:10;">
    <g transform="matrix(4.91038,0,0,4.91038,95.1971,85.6661)">
        <g id="logo">
            <g>
                <g transform="matrix(1,0,0,1,108.647,7.85243)">
                    <path d="M0,203.966C0,203.966 62.409,188.425 84.594,124.962C103.895,69.75 93.909,25.112 93.909,25.112L0.656,0L-2.161,0L-95.414,25.112C-95.414,25.112 -105.4,69.75 -86.1,124.962C-63.914,188.425 -1.505,203.966 -1.505,203.966L0,203.966Z" style="fill:white;fill-rule:nonzero;stroke:rgb(60,59,58);stroke-width:3.6px;"/>
                </g>
                <g transform="matrix(1,0,0,1,108.571,17.0938)">
                    <path d="M0,183.37C0,183.37 56.107,169.399 76.052,112.343C93.404,62.707 84.426,22.577 84.426,22.577L0.59,0L-1.943,0L-85.779,22.577C-85.779,22.577 -94.757,62.707 -77.406,112.343C-57.46,169.399 -1.353,183.37 -1.353,183.37L0,183.37Z" style="fill:rgb(11,141,54);fill-rule:nonzero;stroke:rgb(11,141,54);stroke-width:4.65px;"/>
                </g>
                <g transform="matrix(1,0,0,1,118.401,114.32)">
                    <path d="M0,-10.514L0,16.43L2.3,16.43C3.789,16.43 5.169,16.146 6.44,15.575C7.71,15.007 8.816,14.153 9.759,13.013C10.701,11.874 11.445,10.472 11.993,8.808C12.54,7.143 12.815,5.192 12.815,2.959C12.815,0.723 12.54,-1.226 11.993,-2.89C11.445,-4.555 10.701,-5.957 9.759,-7.097C8.816,-8.236 7.71,-9.09 6.44,-9.66C5.169,-10.229 3.789,-10.514 2.3,-10.514L0,-10.514ZM0,-11.829L2.3,-11.829C4.271,-11.872 5.859,-12.518 7.064,-13.767C8.269,-15.016 8.872,-16.888 8.872,-19.387C8.872,-21.883 8.269,-23.768 7.064,-25.039C5.859,-26.309 4.271,-26.944 2.3,-26.944L0,-26.944L0,-11.829ZM-9.529,17.745L-9.529,17.087L-8.368,16.102L-8.368,-26.615L-9.529,-27.602L-9.529,-28.259L5.081,-28.259C7.14,-28.259 8.925,-28.028 10.437,-27.569C11.949,-27.109 13.207,-26.472 14.216,-25.662C15.223,-24.852 15.979,-23.91 16.484,-22.837C16.986,-21.762 17.239,-20.612 17.239,-19.387C17.239,-18.422 17.096,-17.568 16.812,-16.824C16.527,-16.078 16.155,-15.432 15.695,-14.884C15.234,-14.337 14.709,-13.855 14.117,-13.439C13.526,-13.022 12.923,-12.683 12.31,-12.421C10.864,-11.763 6.44,-11.346 4.6,-11.172C7.316,-10.909 12.507,-10.229 14.611,-9.134C15.53,-8.651 16.417,-8.071 17.272,-7.393C18.127,-6.713 18.892,-5.881 19.572,-4.896C20.251,-3.91 20.798,-2.769 21.215,-1.478C21.631,-0.185 21.839,1.294 21.839,2.959C21.839,5.018 21.445,6.945 20.656,8.742C19.868,10.538 18.739,12.105 17.272,13.441C15.804,14.778 14.04,15.829 11.982,16.595C9.922,17.362 4.841,17.745 2.3,17.745L-9.529,17.745Z" style="fill:white;fill-rule:nonzero;"/>
                </g>
                <g transform="matrix(1,0,0,1,94.7137,114.32)">
                    <path d="M0,-10.514C-1.489,-10.514 -2.869,-10.229 -4.14,-9.66C-5.41,-9.09 -6.516,-8.236 -7.459,-7.097C-8.401,-5.957 -9.145,-4.555 -9.693,-2.89C-10.241,-1.226 -10.515,0.723 -10.515,2.959C-10.515,5.192 -10.241,7.143 -9.693,8.808C-9.145,10.472 -8.401,11.874 -7.459,13.013C-6.516,14.153 -5.41,15.007 -4.14,15.575C-2.869,16.146 -1.489,16.43 0,16.43L2.3,16.43L2.3,-10.514L0,-10.514ZM2.3,-26.944L0,-26.944C-1.971,-26.944 -3.559,-26.309 -4.764,-25.039C-5.969,-23.768 -6.572,-21.883 -6.572,-19.387C-6.572,-16.888 -5.969,-15.016 -4.764,-13.767C-3.559,-12.518 -1.971,-11.872 0,-11.829L2.3,-11.829L2.3,-26.944ZM-2.086,17.745C-4.627,17.745 -6.927,17.362 -8.987,16.595C-11.045,15.829 -12.809,14.778 -14.276,13.441C-15.744,12.105 -16.873,10.538 -17.661,8.742C-18.45,6.945 -18.844,5.018 -18.844,2.959C-18.844,1.294 -18.636,-0.185 -18.22,-1.478C-17.803,-2.769 -17.256,-3.91 -16.577,-4.896C-15.897,-5.881 -15.131,-6.713 -14.276,-7.393C-13.422,-8.071 -12.535,-8.651 -11.615,-9.134C-9.512,-10.229 -5.016,-10.909 -2.3,-11.172C-4.14,-11.346 -7.869,-11.763 -9.315,-12.421C-9.928,-12.683 -10.531,-13.022 -11.122,-13.439C-11.714,-13.855 -12.239,-14.337 -12.699,-14.884C-13.159,-15.432 -13.531,-16.078 -13.817,-16.824C-14.101,-17.568 -14.244,-18.422 -14.244,-19.387C-14.244,-20.612 -13.991,-21.762 -13.488,-22.837C-12.984,-23.91 -12.228,-24.852 -11.221,-25.662C-10.212,-26.472 -8.954,-27.109 -7.442,-27.569C-5.93,-28.028 -4.144,-28.259 -2.086,-28.259L11.829,-28.259L11.829,-27.602L10.668,-26.615L10.668,16.102L11.829,17.087L11.829,17.745L-2.086,17.745Z" style="fill:white;fill-rule:nonzero;"/>
                </g>
                <g transform="matrix(1,0,0,1,131.319,27.3251)">
                    <path d="M0,19.491L-45.597,19.491L-53.811,2.11L-34.274,8.964L-23.15,0L-10.328,8.964L7.511,2.11L0,19.491Z" style="fill:white;fill-rule:nonzero;"/>
                </g>
                <g transform="matrix(1,0,0,1,56.5993,127.772)">
                    <path d="M0,37.165C0.071,34.628 1.473,33.033 3.796,32.331C5.643,31.773 7.568,31.679 9.462,31.396C10.274,31.275 11.072,31.055 11.876,30.881C11.881,30.803 11.886,30.725 11.891,30.648C11.802,30.645 11.713,30.636 11.624,30.64C9.786,30.729 7.962,30.58 6.148,30.299C3.102,29.827 0.19,28.96 -2.403,27.23C-5.019,25.483 -6.849,23.143 -7.683,20.076C-8.074,18.638 -8.082,17.234 -7.28,15.91C-6.699,14.95 -5.827,14.307 -4.858,13.814C-3.519,13.134 -2.06,12.828 -0.578,12.64C-0.099,12.579 0.383,12.536 0.959,12.474C0.52,12.053 0.165,11.715 -0.188,11.374C-2.423,9.21 -4.528,6.934 -6.295,4.361C-7.346,2.832 -8.299,1.264 -8.735,-0.569C-9.13,-2.228 -9.033,-3.775 -7.699,-5.009C-6.438,-6.175 -4.993,-6.558 -3.437,-5.825C-2.501,-5.383 -1.743,-4.706 -1.061,-3.94C0.047,-2.696 0.987,-1.329 1.726,0.159C2.649,2.019 3.542,3.897 4.368,5.802C4.945,7.132 5.389,8.519 5.941,10.014C6.04,9.585 6.104,9.277 6.181,8.973C6.662,7.048 7.302,5.192 8.623,3.656C9.675,2.433 10.985,1.757 12.633,1.967C15.114,2.283 16.914,3.687 18.145,5.763C18.467,6.305 18.735,6.877 18.979,7.447C18.979,7.447 18.979,7.448 18.98,7.449C20.666,10.771 21.07,14.673 21.181,17.256C21.181,17.262 21.18,17.267 21.18,17.273C21.28,18.698 21.315,20.126 21.287,21.558C21.281,21.864 21.289,22.17 21.29,22.476C22.302,20.387 23.297,18.319 24.689,16.592C24.69,16.592 24.69,16.591 24.69,16.59C24.69,16.59 25.262,15.538 26.636,14.744C26.637,14.719 26.639,14.694 26.64,14.669C26.755,14.639 26.868,14.601 26.98,14.56C27.288,14.408 27.626,14.269 28.005,14.158C28.371,14.039 28.76,13.969 29.204,14.041C29.201,14.054 29.198,14.065 29.195,14.078C29.371,14.1 29.549,14.138 29.728,14.189C29.76,14.178 29.793,14.167 29.825,14.157C29.84,14.181 29.858,14.207 29.877,14.234C31.875,14.883 33.855,17.209 33.793,20.345C33.793,20.359 33.791,20.373 33.79,20.387C33.84,21.063 33.796,21.749 33.648,22.443C33.367,23.753 33.017,25.049 32.662,26.342C31.889,29.164 31.897,31.932 33.178,34.621C33.442,35.175 33.745,35.712 34.04,36.276C33.975,36.279 33.912,36.298 33.859,36.283C30.218,35.204 26.85,33.535 23.74,31.384C21.574,29.886 19.472,28.283 17.435,26.613C15.78,25.256 14.225,23.769 12.699,22.265C11.183,20.77 9.739,19.199 8.3,17.627C7.331,16.567 6.418,15.456 5.496,14.354C4.772,13.487 4.074,12.597 3.364,11.717C3.356,11.909 3.408,12.067 3.491,12.208C4.113,13.262 4.684,14.352 5.379,15.356C6.945,17.621 8.514,19.887 10.191,22.068C11.981,24.396 13.998,26.537 16.13,28.558C18.688,30.983 21.413,33.197 24.433,35.028C27.727,37.026 32.974,39.015 36.871,38.979C43.496,38.918 47.162,37.121 47.162,37.121L47.162,40.729C47.162,40.729 43.697,41.75 39.826,42.12C37.184,42.373 33.322,42.221 30.721,41.683C28.686,41.262 26.417,41.049 24.364,40.754C22.285,40.456 20.216,40.592 18.217,41.4C15.901,42.335 13.533,43.113 11.035,43.435C8.933,43.705 6.85,43.723 4.799,43.126C1.931,42.293 -0.087,40.26 0,37.165" style="fill:white;fill-rule:nonzero;"/>
                </g>
                <g transform="matrix(1,0,0,1,158.739,127.772)">
                    <path d="M0,37.165C-0.071,34.628 -1.473,33.033 -3.796,32.331C-5.643,31.773 -7.568,31.679 -9.462,31.396C-10.274,31.275 -11.072,31.055 -11.876,30.881C-11.881,30.803 -11.886,30.725 -11.891,30.648C-11.802,30.645 -11.713,30.636 -11.624,30.64C-9.786,30.729 -7.962,30.58 -6.148,30.299C-3.102,29.827 -0.19,28.96 2.403,27.23C5.019,25.483 6.849,23.143 7.683,20.076C8.074,18.638 8.082,17.234 7.28,15.91C6.699,14.95 5.827,14.307 4.858,13.814C3.519,13.134 2.06,12.828 0.578,12.64C0.099,12.579 -0.383,12.536 -0.959,12.474C-0.52,12.053 -0.165,11.715 0.188,11.374C2.423,9.21 4.528,6.934 6.295,4.361C7.346,2.832 8.299,1.264 8.735,-0.569C9.13,-2.228 9.033,-3.775 7.699,-5.009C6.438,-6.175 4.993,-6.558 3.437,-5.825C2.501,-5.383 1.743,-4.706 1.061,-3.94C-0.047,-2.696 -0.987,-1.329 -1.726,0.159C-2.649,2.019 -3.542,3.897 -4.368,5.802C-4.945,7.132 -5.389,8.519 -5.941,10.014C-6.04,9.585 -6.104,9.277 -6.181,8.973C-6.662,7.048 -7.302,5.192 -8.623,3.656C-9.675,2.433 -10.985,1.757 -12.633,1.967C-15.114,2.283 -16.914,3.687 -18.145,5.763C-18.467,6.305 -18.735,6.877 -18.979,7.447C-18.979,7.447 -18.979,7.448 -18.98,7.449C-20.666,10.771 -21.07,14.673 -21.181,17.256C-21.181,17.262 -21.18,17.267 -21.18,17.273C-21.28,18.698 -21.315,20.126 -21.287,21.558C-21.281,21.864 -21.289,22.17 -21.29,22.476C-22.302,20.387 -23.297,18.319 -24.689,16.592C-24.69,16.592 -24.69,16.591 -24.69,16.59C-24.69,16.59 -25.262,15.538 -26.636,14.744C-26.637,14.719 -26.639,14.694 -26.64,14.669C-26.755,14.639 -26.868,14.601 -26.98,14.56C-27.288,14.408 -27.626,14.269 -28.005,14.158C-28.371,14.039 -28.76,13.969 -29.204,14.041C-29.201,14.054 -29.198,14.065 -29.195,14.078C-29.371,14.1 -29.549,14.138 -29.728,14.189C-29.76,14.178 -29.793,14.167 -29.825,14.157C-29.84,14.181 -29.858,14.207 -29.877,14.234C-31.875,14.883 -33.855,17.209 -33.793,20.345C-33.793,20.359 -33.791,20.373 -33.79,20.387C-33.84,21.063 -33.797,21.749 -33.648,22.443C-33.367,23.753 -33.017,25.049 -32.662,26.342C-31.889,29.164 -31.897,31.932 -33.178,34.621C-33.442,35.175 -33.745,35.712 -34.04,36.276C-33.975,36.279 -33.912,36.298 -33.859,36.283C-30.218,35.204 -26.85,33.535 -23.74,31.384C-21.574,29.886 -19.472,28.283 -17.435,26.613C-15.78,25.256 -14.225,23.769 -12.699,22.265C-11.183,20.77 -9.739,19.199 -8.3,17.627C-7.331,16.567 -6.418,15.456 -5.496,14.354C-4.772,13.487 -4.074,12.597 -3.364,11.717C-3.356,11.909 -3.408,12.067 -3.491,12.208C-4.113,13.262 -4.684,14.352 -5.379,15.356C-6.945,17.621 -8.514,19.887 -10.191,22.068C-11.981,24.396 -13.998,26.537 -16.13,28.558C-18.688,30.983 -21.413,33.197 -24.433,35.028C-27.727,37.026 -32.974,39.015 -36.871,38.979C-43.496,38.918 -47.162,37.121 -47.162,37.121L-47.162,40.729C-47.162,40.729 -43.697,41.75 -39.826,42.12C-37.184,42.373 -33.322,42.221 -30.721,41.683C-28.686,41.262 -26.417,41.049 -24.364,40.754C-22.285,40.456 -20.216,40.592 -18.217,41.4C-15.901,42.335 -13.533,43.113 -11.035,43.435C-8.933,43.705 -6.85,43.723 -4.799,43.126C-1.931,42.293 0.087,40.26 0,37.165" style="fill:white;fill-rule:nonzero;"/>
                </g>
                <g transform="matrix(1,0,0,1,66.9225,68.8893)">
                    <path d="M0,19.386C-0.522,19.277 -0.889,18.956 -1.151,18.562C-1.06,18.115 -0.761,17.084 0.117,16.211C0.301,16.433 0.522,16.648 0.788,16.843C2.223,17.896 2.59,17.847 2.776,17.658C2.963,17.469 1.73,16.84 1.605,15.881C1.571,15.613 1.603,15.392 1.67,15.209C1.817,15.151 1.968,15.096 2.13,15.049C2.459,14.954 3.289,14.65 4.473,14.198C4.358,14.609 4.335,15.069 4.314,15.545C4.29,16.083 4.265,16.639 4.11,17.183C3.768,18.385 2.039,19.805 0,19.386M6.139,13.556C14.762,10.204 80.536,-15.942 80.536,-15.942L78.691,-20.584L1.658,8.02C1.658,8.02 -4.515,9.736 -6.416,12.146C-8.316,14.556 -10.314,18.459 -10.314,18.459L-10.357,15.948L-35.767,24.281C-35.767,24.281 -34.372,35.39 -29.252,39.97L-11.89,25.294L-8.083,25.335C-8.083,25.335 -6.303,19.073 -4.56,19.048C-3.618,19.034 -2.712,18.96 -2.076,18.895C-1.728,19.506 -1.204,20.049 -0.4,20.277C-0.333,20.296 -0.264,20.313 -0.193,20.327C2.261,20.832 4.532,19.214 5.035,17.446C5.22,16.794 5.249,16.153 5.274,15.588C5.31,14.776 5.348,14.266 5.661,14.006C5.769,13.916 5.96,13.758 6.139,13.556" style="fill:white;fill-rule:nonzero;"/>
                </g>
                <g transform="matrix(1,0,0,1,144.76,71.0919)">
                    <path d="M0,14.98C-0.155,14.436 -0.179,13.881 -0.203,13.343C-0.224,12.866 -0.248,12.406 -0.363,11.996C0.821,12.447 1.651,12.751 1.98,12.846C2.142,12.893 2.293,12.948 2.44,13.006C2.508,13.189 2.54,13.411 2.505,13.678C2.38,14.637 1.147,15.266 1.334,15.455C1.521,15.644 1.887,15.693 3.322,14.641C3.588,14.446 3.809,14.23 3.993,14.008C4.871,14.882 5.17,15.912 5.261,16.359C4.999,16.754 4.632,17.075 4.11,17.183C2.071,17.602 0.342,16.183 0,14.98M-1.551,11.803C-1.238,12.063 -1.199,12.574 -1.163,13.385C-1.138,13.951 -1.11,14.591 -0.925,15.243C-0.422,17.011 1.849,18.63 4.304,18.125C4.375,18.11 4.443,18.093 4.51,18.074C5.314,17.846 5.839,17.304 6.187,16.692C6.822,16.757 7.728,16.831 8.671,16.845C10.413,16.87 12.194,23.132 12.194,23.132L16,23.092L33.362,37.767C38.482,33.188 39.877,22.078 39.877,22.078L14.467,13.745L14.424,16.256C14.424,16.256 12.426,12.353 10.526,9.943C8.626,7.533 2.452,5.817 2.452,5.817L-74.58,-22.787L-76.425,-18.144C-76.425,-18.144 -10.652,8.002 -2.029,11.353C-1.849,11.555 -1.659,11.714 -1.551,11.803" style="fill:white;fill-rule:nonzero;"/>
                </g>
                <g transform="matrix(1,0,0,1,44.7297,57.7685)">
                    <path d="M0,15.152L1.367,15.494L1.367,15.721L-3.304,15.721L-3.304,15.494L-1.937,15.152L-1.937,0.684L-4.215,0.684L-4.215,0.342L0,-0.569L0,15.152Z" style="fill:white;fill-rule:nonzero;stroke:white;stroke-width:0.42px;"/>
                </g>
                <g transform="matrix(1,0,0,1,52.0207,68.4773)">
                    <path d="M0,-5.924C0,-5.118 0.08,-4.432 0.239,-3.861C0.398,-3.292 0.604,-2.821 0.854,-2.449C1.105,-2.076 1.393,-1.804 1.72,-1.629C2.046,-1.454 2.384,-1.367 2.734,-1.367C3.053,-1.367 3.368,-1.454 3.679,-1.629C3.991,-1.804 4.272,-2.066 4.522,-2.415C4.773,-2.764 4.974,-3.212 5.126,-3.759C5.278,-4.306 5.354,-4.945 5.354,-5.673C5.354,-6.645 5.274,-7.465 5.115,-8.134C4.956,-8.802 4.747,-9.345 4.488,-9.763C4.23,-10.181 3.926,-10.481 3.577,-10.663C3.228,-10.845 2.871,-10.936 2.506,-10.936C2.217,-10.936 1.925,-10.845 1.629,-10.663C1.333,-10.481 1.063,-10.192 0.82,-9.797C0.577,-9.402 0.379,-8.886 0.228,-8.247C0.076,-7.61 0,-6.835 0,-5.924M7.519,-2.962C7.519,-1.504 7.374,-0.25 7.085,0.798C6.797,1.846 6.414,2.708 5.935,3.384C5.457,4.059 4.91,4.556 4.294,4.876C3.679,5.195 3.045,5.354 2.392,5.354C1.769,5.354 1.211,5.266 0.718,5.093C0.224,4.918 -0.194,4.686 -0.536,4.397C-0.877,4.109 -1.139,3.77 -1.322,3.384C-1.504,2.996 -1.595,2.59 -1.595,2.165C-1.595,1.846 -1.557,1.588 -1.481,1.389C-1.451,1.299 -1.413,1.216 -1.367,1.139L0.569,1.595C0.524,1.701 0.486,1.815 0.456,1.936C0.379,2.165 0.342,2.392 0.342,2.62C0.342,3.426 0.524,4.025 0.888,4.42C1.253,4.815 1.754,5.013 2.392,5.013C2.726,5.013 3.076,4.895 3.44,4.659C3.805,4.424 4.139,4.033 4.443,3.486C4.747,2.939 4.993,2.214 5.183,1.31C5.373,0.407 5.468,-0.714 5.468,-2.051L5.468,-3.19C5.271,-2.719 5.05,-2.339 4.807,-2.051C4.564,-1.762 4.256,-1.5 3.884,-1.265C3.512,-1.028 3.053,-0.911 2.506,-0.911C1.853,-0.911 1.242,-1.032 0.672,-1.276C0.103,-1.519 -0.392,-1.861 -0.809,-2.301C-1.227,-2.741 -1.557,-3.27 -1.8,-3.885C-2.043,-4.5 -2.165,-5.179 -2.165,-5.924C-2.165,-6.744 -2.043,-7.485 -1.8,-8.145C-1.557,-8.806 -1.227,-9.367 -0.809,-9.831C-0.392,-10.294 0.103,-10.652 0.672,-10.902C1.242,-11.153 1.853,-11.278 2.506,-11.278C3.25,-11.278 3.93,-11.141 4.545,-10.868C5.16,-10.595 5.688,-10.147 6.129,-9.524C6.569,-8.901 6.911,-8.092 7.154,-7.097C7.397,-6.102 7.519,-4.876 7.519,-3.417L7.519,-2.962Z" style="fill:white;fill-rule:nonzero;"/>
                </g>
                <g transform="matrix(1,0,0,1,52.0207,68.4773)">
                    <path d="M0,-5.924C0,-5.118 0.08,-4.432 0.239,-3.861C0.398,-3.292 0.604,-2.821 0.854,-2.449C1.105,-2.076 1.393,-1.804 1.72,-1.629C2.046,-1.454 2.384,-1.367 2.734,-1.367C3.053,-1.367 3.368,-1.454 3.679,-1.629C3.991,-1.804 4.272,-2.066 4.522,-2.415C4.773,-2.764 4.974,-3.212 5.126,-3.759C5.278,-4.306 5.354,-4.945 5.354,-5.673C5.354,-6.645 5.274,-7.465 5.115,-8.134C4.956,-8.802 4.747,-9.345 4.488,-9.763C4.23,-10.181 3.926,-10.481 3.577,-10.663C3.228,-10.845 2.871,-10.936 2.506,-10.936C2.217,-10.936 1.925,-10.845 1.629,-10.663C1.333,-10.481 1.063,-10.192 0.82,-9.797C0.577,-9.402 0.379,-8.886 0.228,-8.247C0.076,-7.61 0,-6.835 0,-5.924ZM7.519,-2.962C7.519,-1.504 7.374,-0.25 7.085,0.798C6.797,1.846 6.414,2.708 5.935,3.384C5.457,4.059 4.91,4.556 4.294,4.876C3.679,5.195 3.045,5.354 2.392,5.354C1.769,5.354 1.211,5.266 0.718,5.093C0.224,4.918 -0.194,4.686 -0.536,4.397C-0.877,4.109 -1.139,3.77 -1.322,3.384C-1.504,2.996 -1.595,2.59 -1.595,2.165C-1.595,1.846 -1.557,1.588 -1.481,1.389C-1.451,1.299 -1.413,1.216 -1.367,1.139L0.569,1.595C0.524,1.701 0.486,1.815 0.456,1.936C0.379,2.165 0.342,2.392 0.342,2.62C0.342,3.426 0.524,4.025 0.888,4.42C1.253,4.815 1.754,5.013 2.392,5.013C2.726,5.013 3.076,4.895 3.44,4.659C3.805,4.424 4.139,4.033 4.443,3.486C4.747,2.939 4.993,2.214 5.183,1.31C5.373,0.407 5.468,-0.714 5.468,-2.051L5.468,-3.19C5.271,-2.719 5.05,-2.339 4.807,-2.051C4.564,-1.762 4.256,-1.5 3.884,-1.265C3.512,-1.028 3.053,-0.911 2.506,-0.911C1.853,-0.911 1.242,-1.032 0.672,-1.276C0.103,-1.519 -0.392,-1.861 -0.809,-2.301C-1.227,-2.741 -1.557,-3.27 -1.8,-3.885C-2.043,-4.5 -2.165,-5.179 -2.165,-5.924C-2.165,-6.744 -2.043,-7.485 -1.8,-8.145C-1.557,-8.806 -1.227,-9.367 -0.809,-9.831C-0.392,-10.294 0.103,-10.652 0.672,-10.902C1.242,-11.153 1.853,-11.278 2.506,-11.278C3.25,-11.278 3.93,-11.141 4.545,-10.868C5.16,-10.595 5.688,-10.147 6.129,-9.524C6.569,-8.901 6.911,-8.092 7.154,-7.097C7.397,-6.102 7.519,-4.876 7.519,-3.417L7.519,-2.962Z" style="fill:none;stroke:white;stroke-width:0.42px;"/>
                </g>
                <g transform="matrix(1,0,0,1,162.576,65.5162)">
                    <path d="M0,-0.001C0,-1.596 -0.091,-2.909 -0.273,-3.942C-0.455,-4.975 -0.684,-5.788 -0.957,-6.38C-1.23,-6.973 -1.534,-7.387 -1.868,-7.622C-2.202,-7.857 -2.528,-7.975 -2.848,-7.975C-3.167,-7.975 -3.493,-7.857 -3.827,-7.622C-4.162,-7.387 -4.465,-6.973 -4.738,-6.38C-5.012,-5.788 -5.24,-4.975 -5.422,-3.942C-5.604,-2.909 -5.695,-1.596 -5.695,-0.001C-5.695,1.594 -5.604,2.908 -5.422,3.94C-5.24,4.974 -5.012,5.786 -4.738,6.379C-4.465,6.971 -4.162,7.385 -3.827,7.62C-3.493,7.856 -3.167,7.974 -2.848,7.974C-2.528,7.974 -2.202,7.856 -1.868,7.62C-1.534,7.385 -1.23,6.971 -0.957,6.379C-0.684,5.786 -0.455,4.974 -0.273,3.94C-0.091,2.908 0,1.594 0,-0.001M2.165,-0.001C2.165,1.457 2.021,2.711 1.731,3.759C1.443,4.807 1.063,5.669 0.593,6.345C0.122,7.02 -0.414,7.518 -1.014,7.837C-1.614,8.156 -2.225,8.315 -2.848,8.315C-3.471,8.315 -4.082,8.156 -4.682,7.837C-5.282,7.518 -5.817,7.02 -6.288,6.345C-6.759,5.669 -7.139,4.807 -7.427,3.759C-7.716,2.711 -7.86,1.457 -7.86,-0.001C-7.86,-1.459 -7.716,-2.712 -7.427,-3.76C-7.139,-4.809 -6.759,-5.67 -6.288,-6.346C-5.817,-7.022 -5.282,-7.52 -4.682,-7.839C-4.082,-8.157 -3.471,-8.316 -2.848,-8.316C-2.225,-8.316 -1.614,-8.157 -1.014,-7.839C-0.414,-7.52 0.122,-7.022 0.593,-6.346C1.063,-5.67 1.443,-4.809 1.731,-3.76C2.021,-2.712 2.165,-1.459 2.165,-0.001" style="fill:white;fill-rule:nonzero;"/>
                </g>
                <g transform="matrix(1,0,0,1,162.576,65.5162)">
                    <path d="M0,-0.001C0,-1.596 -0.091,-2.909 -0.273,-3.942C-0.455,-4.975 -0.684,-5.788 -0.957,-6.38C-1.23,-6.973 -1.534,-7.387 -1.868,-7.622C-2.202,-7.857 -2.528,-7.975 -2.848,-7.975C-3.167,-7.975 -3.493,-7.857 -3.827,-7.622C-4.162,-7.387 -4.465,-6.973 -4.738,-6.38C-5.012,-5.788 -5.24,-4.975 -5.422,-3.942C-5.604,-2.909 -5.695,-1.596 -5.695,-0.001C-5.695,1.594 -5.604,2.908 -5.422,3.94C-5.24,4.974 -5.012,5.786 -4.738,6.379C-4.465,6.971 -4.162,7.385 -3.827,7.62C-3.493,7.856 -3.167,7.974 -2.848,7.974C-2.528,7.974 -2.202,7.856 -1.868,7.62C-1.534,7.385 -1.23,6.971 -0.957,6.379C-0.684,5.786 -0.455,4.974 -0.273,3.94C-0.091,2.908 0,1.594 0,-0.001ZM2.165,-0.001C2.165,1.457 2.021,2.711 1.731,3.759C1.443,4.807 1.063,5.669 0.593,6.345C0.122,7.02 -0.414,7.518 -1.014,7.837C-1.614,8.156 -2.225,8.315 -2.848,8.315C-3.471,8.315 -4.082,8.156 -4.682,7.837C-5.282,7.518 -5.817,7.02 -6.288,6.345C-6.759,5.669 -7.139,4.807 -7.427,3.759C-7.716,2.711 -7.86,1.457 -7.86,-0.001C-7.86,-1.459 -7.716,-2.712 -7.427,-3.76C-7.139,-4.809 -6.759,-5.67 -6.288,-6.346C-5.817,-7.022 -5.282,-7.52 -4.682,-7.839C-4.082,-8.157 -3.471,-8.316 -2.848,-8.316C-2.225,-8.316 -1.614,-8.157 -1.014,-7.839C-0.414,-7.52 0.122,-7.022 0.593,-6.346C1.063,-5.67 1.443,-4.809 1.731,-3.76C2.021,-2.712 2.165,-1.459 2.165,-0.001Z" style="fill:none;stroke:white;stroke-width:0.42px;"/>
                </g>
                <g transform="matrix(1,0,0,1,170.778,68.4773)">
                    <path d="M0,-5.924C0,-5.118 0.08,-4.432 0.239,-3.861C0.399,-3.292 0.604,-2.821 0.854,-2.449C1.105,-2.076 1.394,-1.804 1.721,-1.629C2.047,-1.454 2.385,-1.367 2.734,-1.367C3.054,-1.367 3.368,-1.454 3.68,-1.629C3.991,-1.804 4.272,-2.066 4.522,-2.415C4.773,-2.764 4.975,-3.212 5.127,-3.759C5.278,-4.306 5.354,-4.945 5.354,-5.673C5.354,-6.645 5.274,-7.465 5.115,-8.134C4.956,-8.802 4.747,-9.345 4.488,-9.763C4.23,-10.181 3.927,-10.481 3.577,-10.663C3.228,-10.845 2.871,-10.936 2.507,-10.936C2.218,-10.936 1.926,-10.845 1.629,-10.663C1.333,-10.481 1.063,-10.192 0.82,-9.797C0.577,-9.402 0.38,-8.886 0.229,-8.247C0.076,-7.61 0,-6.835 0,-5.924M7.519,-2.962C7.519,-1.504 7.374,-0.25 7.086,0.798C6.798,1.846 6.414,2.708 5.936,3.384C5.457,4.059 4.91,4.556 4.295,4.876C3.68,5.195 3.046,5.354 2.393,5.354C1.77,5.354 1.212,5.266 0.718,5.093C0.225,4.918 -0.193,4.686 -0.535,4.397C-0.877,4.109 -1.139,3.77 -1.321,3.384C-1.503,2.996 -1.595,2.59 -1.595,2.165C-1.595,1.846 -1.557,1.588 -1.48,1.389C-1.45,1.299 -1.412,1.216 -1.367,1.139L0.57,1.595C0.524,1.701 0.486,1.815 0.456,1.936C0.38,2.165 0.342,2.392 0.342,2.62C0.342,3.426 0.524,4.025 0.889,4.42C1.254,4.815 1.755,5.013 2.393,5.013C2.727,5.013 3.076,4.895 3.44,4.659C3.806,4.424 4.14,4.033 4.443,3.486C4.747,2.939 4.993,2.214 5.184,1.31C5.373,0.407 5.469,-0.714 5.469,-2.051L5.469,-3.19C5.271,-2.719 5.051,-2.339 4.808,-2.051C4.564,-1.762 4.257,-1.5 3.885,-1.265C3.513,-1.028 3.054,-0.911 2.507,-0.911C1.854,-0.911 1.242,-1.032 0.673,-1.276C0.103,-1.519 -0.391,-1.861 -0.809,-2.301C-1.227,-2.741 -1.557,-3.27 -1.8,-3.885C-2.043,-4.5 -2.164,-5.179 -2.164,-5.924C-2.164,-6.744 -2.043,-7.485 -1.8,-8.145C-1.557,-8.806 -1.227,-9.367 -0.809,-9.831C-0.391,-10.294 0.103,-10.652 0.673,-10.902C1.242,-11.153 1.854,-11.278 2.507,-11.278C3.251,-11.278 3.931,-11.141 4.546,-10.868C5.161,-10.595 5.688,-10.147 6.129,-9.524C6.569,-8.901 6.911,-8.092 7.154,-7.097C7.397,-6.102 7.519,-4.876 7.519,-3.417L7.519,-2.962Z" style="fill:white;fill-rule:nonzero;"/>
                </g>
                <g transform="matrix(1,0,0,1,170.778,68.4773)">
                    <path d="M0,-5.924C0,-5.118 0.08,-4.432 0.239,-3.861C0.399,-3.292 0.604,-2.821 0.854,-2.449C1.105,-2.076 1.394,-1.804 1.721,-1.629C2.047,-1.454 2.385,-1.367 2.734,-1.367C3.054,-1.367 3.368,-1.454 3.68,-1.629C3.991,-1.804 4.272,-2.066 4.522,-2.415C4.773,-2.764 4.975,-3.212 5.127,-3.759C5.278,-4.306 5.354,-4.945 5.354,-5.673C5.354,-6.645 5.274,-7.465 5.115,-8.134C4.956,-8.802 4.747,-9.345 4.488,-9.763C4.23,-10.181 3.927,-10.481 3.577,-10.663C3.228,-10.845 2.871,-10.936 2.507,-10.936C2.218,-10.936 1.926,-10.845 1.629,-10.663C1.333,-10.481 1.063,-10.192 0.82,-9.797C0.577,-9.402 0.38,-8.886 0.229,-8.247C0.076,-7.61 0,-6.835 0,-5.924ZM7.519,-2.962C7.519,-1.504 7.374,-0.25 7.086,0.798C6.798,1.846 6.414,2.708 5.936,3.384C5.457,4.059 4.91,4.556 4.295,4.876C3.68,5.195 3.046,5.354 2.393,5.354C1.77,5.354 1.212,5.266 0.718,5.093C0.225,4.918 -0.193,4.686 -0.535,4.397C-0.877,4.109 -1.139,3.77 -1.321,3.384C-1.503,2.996 -1.595,2.59 -1.595,2.165C-1.595,1.846 -1.557,1.588 -1.48,1.389C-1.45,1.299 -1.412,1.216 -1.367,1.139L0.57,1.595C0.524,1.701 0.486,1.815 0.456,1.936C0.38,2.165 0.342,2.392 0.342,2.62C0.342,3.426 0.524,4.025 0.889,4.42C1.254,4.815 1.755,5.013 2.393,5.013C2.727,5.013 3.076,4.895 3.44,4.659C3.806,4.424 4.14,4.033 4.443,3.486C4.747,2.939 4.993,2.214 5.184,1.31C5.373,0.407 5.469,-0.714 5.469,-2.051L5.469,-3.19C5.271,-2.719 5.051,-2.339 4.808,-2.051C4.564,-1.762 4.257,-1.5 3.885,-1.265C3.513,-1.028 3.054,-0.911 2.507,-0.911C1.854,-0.911 1.242,-1.032 0.673,-1.276C0.103,-1.519 -0.391,-1.861 -0.809,-2.301C-1.227,-2.741 -1.557,-3.27 -1.8,-3.885C-2.043,-4.5 -2.164,-5.179 -2.164,-5.924C-2.164,-6.744 -2.043,-7.485 -1.8,-8.145C-1.557,-8.806 -1.227,-9.367 -0.809,-9.831C-0.391,-10.294 0.103,-10.652 0.673,-10.902C1.242,-11.153 1.854,-11.278 2.507,-11.278C3.251,-11.278 3.931,-11.141 4.546,-10.868C5.161,-10.595 5.688,-10.147 6.129,-9.524C6.569,-8.901 6.911,-8.092 7.154,-7.097C7.397,-6.102 7.519,-4.876 7.519,-3.417L7.519,-2.962Z" style="fill:none;stroke:white;stroke-width:0.42px;"/>
                </g>
            </g>
        </g>
    </g>
</svg>
